<svg version="1.1" xmlns="http://www.w3.org/2000/svg" xmlns:xlink="http://www.w3.org/1999/xlink" width="228" height="74.85775" viewBox="0,0,228,74.85775"><g transform="translate(-159,-97.44656)"><g data-paper-data="{&quot;isPaintingLayer&quot;:true}" fill="#9966ff" fill-rule="nonzero" stroke="none" stroke-width="0.5" stroke-linecap="butt" stroke-linejoin="miter" stroke-miterlimit="10" stroke-dasharray="" stroke-dashoffset="0" style="mix-blend-mode: normal"><path d="M203.5,123.5c0.51632,0 0.92601,0.10664 1.25109,0.27586c0.74971,-0.14663 1.55327,-0.22801 2.1235,-0.59212c0.22741,-0.5073 0.46728,-1.00711 0.71906,-1.50073c-0.05469,-0.85633 -0.54501,-1.81195 -0.59365,-2.68301c-0.22018,-3.9426 -0.08291,-8.06003 0,-12c0.02839,-1.34896 0.50803,-2.73198 0.1903,-4.04329c-0.14768,-0.60949 -0.97205,-0.79263 -1.45807,-1.18894c0,0 -1.76777,-1.76777 0,-3.53553c1.76777,-1.76777 3.53553,0 3.53553,0c0.84731,0.93702 2.16608,1.60496 2.54193,2.81106c0.59103,1.89663 0.1558,3.97043 0.1903,5.95671c0.04553,2.62153 0.10036,5.28634 0.08639,7.93775c0.02517,-0.01729 0.05068,-0.03413 0.0765,-0.05051c0.61704,-0.42467 1.61696,-0.77536 2.79378,0.08075c0.02596,0.01864 0.05155,0.03777 0.07675,0.05737c0.13661,0.10489 0.25637,0.21215 0.36097,0.32092c1.16224,-2.36455 2.28934,-4.7482 3.60635,-7.02865c1.10988,-1.92181 1.52948,-4.71751 3.55194,-5.6312c4.68733,-2.11761 6.13834,2.2097 7.28751,4.78569c3.52403,7.89958 2.05806,17.06133 1.98869,25.59893c-0.04032,4.9625 0.36749,10.23162 -0.12881,15.16655c-0.2065,2.05336 -0.02498,4.32469 -1.08506,6.09533c-1.30084,2.17276 -3.50038,2.99715 -5.89479,3.25793c-0.18412,1.85802 -0.35177,3.71526 -0.49455,5.57143c-0.51694,5.20989 -4.19551,13.32204 -11.42606,6.58016c-1.33881,0.19106 -2.76673,-0.04063 -3.79194,-0.73672c-1.7956,-1.21916 -1.6275,-4.02605 -2.33898,-6.07649c-0.93066,-2.68213 -1.36273,-4.37483 -1.83148,-6.45666c-1.15348,-0.29904 -2.29845,-0.69659 -3.43559,-1.2268c-0.19818,-0.0924 -0.39211,-0.18958 -0.58205,-0.29123c-0.02951,0.05784 -0.05902,0.11568 -0.08853,0.17352l-0.00413,0.0081c0,0 -1.13618,2.2269 -3.36308,1.09073c-2.2269,-1.13618 -1.09073,-3.36308 -1.09073,-3.36308c0.18618,-0.36492 0.3765,-0.73793 0.56268,-1.10285c-1.50647,-1.6186 -2.81603,-3.45424 -4.24517,-5.14721c-5.23061,-6.19626 -9.67817,-12.2099 -13.32667,-19.49572c0,0 -1.11803,-2.23607 1.11803,-3.3541c2.23607,-1.11803 3.3541,1.11803 3.3541,1.11803c3.46318,6.93757 7.6985,12.61108 12.67333,18.50428c0.90604,1.0733 1.83168,2.3819 2.84971,3.625c0.93398,-1.83061 1.86797,-3.66121 2.80195,-5.49182c-0.42313,-0.07798 -0.87597,-0.29881 -1.32882,-0.75166c-0.43556,-0.43556 -0.65648,-0.87112 -0.7421,-1.28023c-1.38523,0.44256 -3.0561,0.2269 -4.44684,-0.17784c-2.0941,-0.60942 -4.97076,-5.78603 -5.84205,-7.00423c-1.73083,-2.41997 -4.94443,-5.9494 -5.89872,-9.54145c-0.1141,0.02611 -0.22813,0.05244 -0.34207,0.07903c-4.76151,1.11102 -9.50751,2.51087 -14.34185,3.21006c0.73654,0.19424 1.46674,0.41151 2.18877,0.63586l2.9432,0.92637c0,0 2.38467,0.75057 1.63409,3.13524c-0.75057,2.38467 -3.13524,1.63409 -3.13524,1.63409l-2.9432,-0.92637c-1.68142,-0.53528 -3.54708,-0.67196 -5.04427,-1.60583c-0.08318,-0.05188 -0.1656,-0.10479 -0.24729,-0.15866l-0.01344,0.0224l-4.24817,-2.5489c-0.74893,-0.43183 -1.25305,-1.24069 -1.25305,-2.16731c0,-1.1246 0.74256,-2.07576 1.76412,-2.38994l2.94531,-0.98177l0.03409,0.10228l0.29649,-0.18789c6.887,-0.35638 13.72265,-2.3644 20.45907,-4.05096c1.77518,-2.94814 5.45486,-5.69538 9.11895,-3.72779c0.55141,0.2961 1.00799,0.70747 1.41334,1.18108c0.81577,-0.28241 1.61837,-0.61552 2.40961,-1.02518c-0.49915,-2.34159 -1.09586,-4.6816 -2.17705,-6.80181c0,0 -1.11803,-2.23607 1.11803,-3.3541c2.23607,-1.11803 3.3541,1.11803 3.3541,1.11803c1.31939,2.68308 2.10825,5.61543 2.71684,8.5525c0.04298,0.05653 0.08542,0.11608 0.12722,0.17879c0.53274,0.79911 0.55383,1.4959 0.37776,2.05104c0.40197,1.3839 0.93816,2.74454 0.98884,4.17499c0.04308,1.21605 -0.78764,2.31582 -0.97246,3.51851c-0.0096,0.0625 -0.01871,0.12504 -0.02734,0.18761c0.16922,-0.02942 0.35315,-0.0454 0.55307,-0.0454zM216.83267,142.59071c0.4598,-0.04495 0.48046,-0.78946 0.73398,-1.17568c1.17162,-1.7849 2.14102,-2.68194 2.46564,-4.81548c0.4402,-2.89316 -0.04355,-5.64551 -0.53638,-8.41081c-1.09656,2.44916 -2.10753,4.9412 -2.53877,7.27223c-0.28411,1.53571 0.10489,3.12478 0.03859,4.68514c-0.03488,0.82083 -0.12883,1.63703 -0.24485,2.45147c0.02725,-0.00191 0.05452,-0.00419 0.08179,-0.00686zM218.16733,147.40929c-0.63921,0.12158 -1.34383,0.11685 -2.07688,0.01413c-0.01685,0.23438 -0.02952,0.46909 -0.03714,0.70418c-0.04588,1.41534 0.01381,2.82956 0.10998,4.24342c1.07024,0.022 2.1406,0.04009 3.21094,0.05831c0.32547,-2.28889 0.80536,-4.51399 1.20507,-6.81506c-0.68156,0.82308 -1.42002,1.60635 -2.41197,1.79502zM210.447,136.08478c-0.10667,0.20907 -0.21334,0.41815 -0.32001,0.62722c0.07422,0.15105 0.14949,0.30156 0.22623,0.45128c0.03064,-0.3584 0.06176,-0.718 0.09378,-1.0785zM209.36528,145.03848c0.04873,-0.19475 0.0986,-0.38954 0.14716,-0.5845c-0.19888,-0.15862 -0.38635,-0.31848 -0.56066,-0.47822c0.13784,0.35424 0.27567,0.70848 0.4135,1.06272zM216.57246,157.9027c0.08687,1.6644 0.27712,3.32662 0.26062,4.9932c-0.01157,1.16849 -0.82478,2.42334 -0.34461,3.48867c0.28455,0.63132 1.4241,0.59158 2.05482,0.30572c0.80656,-0.36556 0.69118,-3.77377 0.69711,-3.9115c0.08913,-1.15874 0.18169,-2.31704 0.27729,-3.47498c-0.61537,-0.23034 -1.32155,-0.73113 -1.48344,-1.81994c-0.29316,-0.01444 -0.57755,-0.02561 -0.85135,-0.03148c-0.21246,-0.00456 -0.42459,-0.00851 -0.63639,-0.01204c0.00923,0.1541 0.01791,0.30822 0.02595,0.46233zM198.85112,120.45165c0.06659,-0.22948 0.10549,-0.46297 0.09644,-0.70385c-0.01254,-0.33396 -0.06444,-0.66141 -0.14075,-0.98492c-0.2809,0.12779 -0.56378,0.25046 -0.8485,0.36842c0.30958,0.43658 0.60678,0.87676 0.89282,1.32036zM198.28086,130.34004c-1.24757,-3.10632 -2.56206,-5.91211 -4.78086,-8.84004c-0.16099,-0.2481 -0.31215,-0.50396 -0.4602,-0.76229c-1.33676,0.34663 -2.69308,0.6448 -4.05559,0.93021c0.7664,3.12648 2.95171,5.16045 4.76754,7.7061c0.93878,1.31609 1.75729,2.7147 2.6816,4.041c0.42614,0.61147 1.25704,2.21604 1.60487,1.55687c0.33762,-0.63982 0.33371,-2.66335 0.24263,-4.63185zM227.03959,113.53962c-0.16748,-0.84111 -0.55506,-1.61121 -0.95835,-2.37765c-0.06984,0.20953 -0.13969,0.41907 -0.20953,0.6286l-0.94184,1.16102c1.01826,0.70486 1.71903,1.60697 2.19689,2.61897c0.04373,-0.68341 0.04583,-1.36307 -0.08716,-2.03094zM203.09289,150.49885c0.15141,0.08378 0.30513,0.16225 0.46126,0.23495l-0.17823,-0.78967c-0.09434,0.18491 -0.18868,0.36982 -0.28302,0.55472zM226.38498,151.66707c0.43812,-1.07553 0.35814,-8.01645 0.36283,-8.63696c0.00968,-1.28134 0.01992,-2.56268 0.0304,-3.84402c-0.48115,4.44702 -1.02665,8.89454 -1.5217,13.33891c0.51001,-0.12551 0.93382,-0.38008 1.12847,-0.85793z"/><path d="M382,157c0,-1.38071 1.11929,-2.5 2.5,-2.5c1.38071,0 2.5,1.11929 2.5,2.5c0,1.38071 -1.11929,2.5 -2.5,2.5c-1.38071,0 -2.5,-1.11929 -2.5,-2.5z"/></g></g></svg>