<svg version="1.1" xmlns="http://www.w3.org/2000/svg" xmlns:xlink="http://www.w3.org/1999/xlink" width="219" height="97.10169" viewBox="0,0,219,97.10169"><g transform="translate(-75,-106.89831)"><g data-paper-data="{&quot;isPaintingLayer&quot;:true}" fill="#9966ff" fill-rule="nonzero" stroke="none" stroke-width="0.5" stroke-linecap="butt" stroke-linejoin="miter" stroke-miterlimit="10" stroke-dasharray="" stroke-dashoffset="0" style="mix-blend-mode: normal"><path d="M75,184.5c0,-2.5 2.5,-2.5 2.5,-2.5l1.20943,0.12829c1.5701,-0.47867 2.92438,-1.53558 4.2056,-2.56165c0.87468,-0.70049 2.0157,-1.05125 2.81721,-1.83441c5.78849,-5.656 3.09295,-14.51369 1.48148,-21.22085c-1.13585,-1.67329 -2.79244,-2.96733 -3.84034,-4.69706c-0.55622,-0.91813 -0.48757,-2.12509 -1.0307,-3.05102c-1.50054,-2.55815 -3.70474,-4.88463 -4.29756,-7.79054c-0.97784,-4.79313 -0.06036,-11.55918 -0.04511,-16.47277c0.0165,-5.31602 0.47619,-8.65438 3.33772,-13.25482c0.87133,-1.40082 1.56348,-3.10822 2.98263,-3.94937c1.2015,-0.71215 2.78413,-0.23832 4.17964,-0.29581c5.82917,-0.24017 10.87655,0.80047 16.54233,2.05953c0,0 2.44047,0.54233 1.89814,2.98279c-0.54233,2.44047 -2.98279,1.89814 -2.98279,1.89814c-4.31338,-0.95853 -8.04743,-1.95025 -12.45767,-1.94047c-1,0.00222 -2.00188,0.06125 -3,0c-0.61359,-0.03765 -1.29751,-0.61914 -1.82036,-0.29581c-0.64898,0.40132 -0.67673,1.36784 -1.01737,2.05063c-2.21855,4.44687 -2.67925,5.69785 -2.66228,10.74518c0.0159,4.72836 -0.87156,10.87152 -0.04511,15.52723c0.42119,2.37274 2.48293,4.13098 3.70244,6.20946c0.52363,0.89246 0.44127,2.05911 0.9693,2.94898c1.14644,1.93204 2.92421,3.42657 4.15966,5.30294c1.45423,5.62942 3.82151,12.67228 2.14684,18.58577c-1.84729,6.52303 -7.52375,11.63531 -13.64255,13.79733l-2.79057,0.12829c0,0 -2.5,0 -2.5,-2.5z"/><path d="M151.87171,156.29057c-0.79057,2.37171 -3.16228,1.58114 -3.16228,1.58114l-3,-1c-1.8708,-0.6236 -3.79358,-1.32655 -5.74076,-1.97022c-0.18542,1.32798 -0.81763,2.57269 -0.9874,3.90397c-0.43684,3.42547 0.01873,7.23106 0.01873,10.69454c0,6.00531 0.87419,12.68103 -1.03228,18.40046c0.02483,1.99985 0.01899,4.00009 0,6l-1.09601,3.39011c0,0 -0.79057,2.37171 -3.16228,1.58114c-2.37171,-0.79057 -1.58114,-3.16228 -1.58114,-3.16228l0.90399,-2.60989c-0.02483,-1.99985 -0.01899,-4.00009 0,-6c3.01021,-9.03064 -0.16414,-19.52454 0.98645,-28.905c0.16732,-1.36415 0.82614,-2.63667 1,-4c0.02936,-0.2302 0.05366,-0.46107 0.07348,-0.69252c-0.9666,-0.22104 -1.93358,-0.40009 -2.89767,-0.52075c-4.39029,-0.54947 -9.2682,0.01873 -13.69454,0.01873c0,0 -2.5,0 -2.5,-2.5c0,-2.5 2.5,-2.5 2.5,-2.5c4.63014,0 9.71285,-0.55473 14.30546,0.01873c0.74446,0.09296 1.48985,0.21681 2.23506,0.36548c-0.12456,-2.07015 -0.26468,-4.14318 -0.02435,-6.16807c0.1771,-1.49218 0.83012,-2.90112 1.01361,-4.39252c0.21122,-1.71684 -0.18364,-3.49242 0.16491,-5.18672c0.33363,-1.62177 1.52606,-2.98601 1.85043,-4.60966c0.36405,-1.82229 -0.56421,-3.87068 0.18361,-5.57187c0.27969,-0.63626 7.05551,-6.34882 7.6443,-6.8535c0,0 1.89814,-1.62698 3.52512,0.27116c1.62698,1.89814 -0.27116,3.52512 -0.27116,3.52512c-1.26543,1.08465 -2.50102,2.20512 -3.79628,3.25396c-0.8246,0.66772 -2.18609,0.89934 -2.55941,1.89254c-0.51978,1.38285 0.4517,2.97535 0.18361,4.42813c-0.30444,1.64975 -1.52308,3.0324 -1.86348,4.6751c-0.32539,1.57024 0.091,3.21777 -0.10199,4.80971c-0.17818,1.46977 -0.82481,2.85682 -1.00559,4.32627c-0.27855,2.26416 -0.07846,4.5884 0.05087,6.90498c2.46148,0.76396 4.89367,1.65206 7.25587,2.43946l3,1c0,0 2.37171,0.79057 1.58114,3.16228z"/><path d="M200.47875,157.74105c5.55235,3.97767 8.54013,11.01558 10.08129,17.48831c0.70604,1.94873 0.95773,4.09617 1.80458,5.99637c0.67725,1.51964 1.8197,2.80782 2.45623,4.34497c0.5146,1.24271 0.43599,2.68147 0.96543,3.91793c1.72952,4.03915 3.85306,7.03705 7.43817,9.61865l3.27554,-0.10727c0,0 2.5,0 2.5,2.5c0,2.5 -2.5,2.5 -2.5,2.5l-4.72446,-0.10727c-3.05068,-1.94346 -5.26402,-2.94286 -7.40217,-6.0784c-0.63947,-0.93776 -0.6105,-2.20127 -1.11916,-3.21595c-1.89909,-3.78835 -3.71857,-7.41635 -5.45656,-11.33726c-0.56374,-1.2718 -0.93602,-2.61805 -1.34436,-3.95022c-1.49612,3.87073 -3.73526,8.30046 -6.99659,9.4988c-1.552,0.57027 -3.30373,0.15077 -4.95671,0.1903c-6.4209,0.15357 -15.03771,-0.21312 -17.39273,-7.77554c-0.46895,-1.50587 -0.09421,-3.15324 -0.10726,-4.73039c-0.04458,-5.38673 0.99806,-9.10153 3.19029,-13.95078c0.56452,-1.24872 0.55649,-2.85876 1.54193,-3.81106c2.16366,-2.09088 7.64794,-2.74216 11.30958,-3.32499c0.66265,-0.49715 1.42123,-0.46683 1.94273,-0.35308c0.23407,-0.044 1.9371,-0.30758 2.69722,1.16888c0.97262,0.43977 1.93326,0.89923 2.797,1.518zM187.16733,161.90929c-0.6305,0.13294 -1.46189,-0.11443 -1.89957,0.35848c-0.50634,0.5471 -0.18263,1.49624 -0.45807,2.18894c-0.53176,1.33734 -1.47942,2.49284 -1.94502,3.85463c-0.96163,2.81262 -1.69738,8.47366 -0.97195,11.4642c1.24167,5.11868 8.93188,4.10872 12.60727,4.22446c1.01591,0.03199 2.06123,0.45231 3.04329,0.1903c0.52662,-0.1405 0.70832,-0.83051 1.02335,-1.27527c2.04923,-2.89306 3.45208,-5.85338 4.56165,-9.2056l0.88489,-2.65467c-1.91187,-4.53749 -4.90534,-8.19875 -9.55467,-10.75997c-2.42867,0.54613 -4.85546,1.10094 -7.29118,1.6145z"/><path d="M263,146.5c0,2.5 -2.5,2.5 -2.5,2.5l-3.76777,-0.73223c-2.55279,-2.70891 -10.8171,-5.49351 -13.91214,-1.83368c-0.16841,1.64078 0.17847,3.40471 0.17991,5.06591c0.00312,3.59471 0.41812,7.74394 -0.01873,11.30546c-0.16732,1.36415 -0.80068,2.64016 -1,4c-0.43425,2.96259 0.46493,6.12825 -0.01355,9.095c-0.16248,1.00741 -0.43757,2.0048 -0.65311,3.00671c-0.01215,0.95693 -0.09653,1.85135 -0.31461,2.59283v3c0,1.38071 -1.11929,2.5 -2.5,2.5c-1.38071,0 -2.5,-1.11929 -2.5,-2.5v-3c-0.58124,-0.81373 0,-2 0,-3c0,-3.66667 0,-7.33333 0,-11c0,-4.29217 -0.57463,-9.05038 0.01873,-13.30546c0.18982,-1.3612 0.80048,-2.64019 1,-4c0.1655,-1.12797 -0.30106,-2.34759 0.08854,-3.419c0.23934,-0.65821 0.52094,-1.26405 0.83995,-1.8199c0.1541,-0.69308 0.36018,-1.36848 0.63048,-2.0216c0.6982,-1.68701 1.85238,-3.14686 2.77857,-4.72029c0,0 1.28624,-2.14373 3.42997,-0.85749c1.26023,0.75614 1.3351,1.80862 1.18276,2.54771c5.0439,-0.60765 10.84523,1.50785 14.29876,4.82825l0.23223,-0.73223c0,0 2.5,0 2.5,2.5z"/><path d="M294,168.5c0,2.5 -2.5,2.5 -2.5,2.5c-1.72482,0 -3.67093,0 -5.73422,0c-0.22751,1.93712 -0.56922,3.86789 -0.78451,5.80546c-0.56792,5.11125 -0.37224,10.17108 -2.01355,15.095l0.03228,2.59954c0,0 0,2.5 -2.5,2.5c-2.5,0 -2.5,-2.5 -2.5,-2.5l0.03228,-3.40046c1.622,-4.86601 1.42469,-9.84916 1.98645,-14.905c0.15177,-1.36596 0.84587,-2.6343 1,-4c0.04471,-0.39619 0.07841,-0.79448 0.10277,-1.19454c-5.50085,0 -11.26652,0 -15.6215,0c0,0 -2.5,0 -2.5,-2.5c0,-2.5 2.5,-2.5 2.5,-2.5c5.18836,0 10.37671,0 15.56507,0c-0.21654,-3.68215 -0.63123,-7.40568 -0.02495,-10.94606c0.50581,-2.95372 2.06684,-5.62583 3.11906,-8.43175c0,0 0.87781,-2.34082 3.21863,-1.46301c2.34082,0.87781 1.46301,3.21863 1.46301,3.21863c-0.9478,2.52748 -2.43243,4.90643 -2.88094,7.56825c-0.49287,2.92513 -0.10409,6.85517 0.01078,10.05394c0.50978,0 1.01955,0 1.52933,0h4c0,0 2.5,0 2.5,2.5z"/></g></g></svg>