<svg version="1.1" xmlns="http://www.w3.org/2000/svg" xmlns:xlink="http://www.w3.org/1999/xlink" width="77.84103" height="73.77571" viewBox="0,0,77.84103,73.77571"><g transform="translate(-108.32465,-54.71151)"><g data-paper-data="{&quot;isPaintingLayer&quot;:true}" fill="#9966ff" fill-rule="nonzero" stroke="none" stroke-width="0.5" stroke-linecap="butt" stroke-linejoin="miter" stroke-miterlimit="10" stroke-dasharray="" stroke-dashoffset="0" style="mix-blend-mode: normal"><path d=""/><path d=""/><path d="M109.78142,115.81675c0.2018,0.05313 0.40373,0.09998 0.60575,0.14078c0.04347,0.1173 0.08669,0.23366 0.12968,0.34912c-0.79925,-0.09412 -1.50526,-0.34205 -2.1922,-0.9703c0.44683,0.18134 0.9316,0.34212 1.45677,0.4804z"/><path d=""/><path d="M122.53258,91.38709c0.43253,0.8621 0.87639,1.72055 1.25371,2.60152c0.53215,1.24249 0.36626,2.72816 0.97106,3.93695c0.73168,1.46238 2.14481,2.49498 2.9571,3.91416c0.49486,0.86458 0.41154,1.98469 0.91218,2.84594c1.31042,2.25432 5.2262,5.78651 7.33515,7.28622c1.23255,0.87649 2.56495,1.69147 3.95064,2.46426c-0.34667,-0.67289 -0.68101,-1.33023 -1.01882,-1.92294c-3.15059,-5.52789 -5.73513,-11.67014 -7.7653,-17.72264c0,0 -0.79057,-2.37171 1.58114,-3.16228c2.37171,-0.79057 3.16228,1.58114 3.16228,1.58114c1.90364,5.75127 4.37801,11.61394 7.37966,16.85229c0.69491,1.21272 2.01277,4.13344 3.0164,5.17051c3.00719,3.10737 6.97008,2.35392 10.53326,1.36747c2.36498,-0.65473 5.27777,-1.23678 6.52347,-3.83145c0.51256,-1.06761 0.44486,-2.32995 0.7752,-3.46722c0.22974,-0.79094 0.91163,-1.47748 0.9003,-2.30103c-0.01272,-0.92452 -0.81026,-1.68844 -0.96772,-2.59954c-0.1703,-0.98539 0,-2 0,-3c-0.69,-1.99207 -1.35148,-3.99404 -2,-6l-0.03228,-3.40046c0,0 0,-2.5 2.5,-2.5c2.5,0 2.5,2.5 2.5,2.5l-0.03228,2.59954c0.69,1.99207 1.35148,3.99404 2,6c0,2.16106 1.0528,4.2395 1.03228,6.40046c-0.01221,1.28627 -0.75013,2.46105 -1.0997,3.69897c-0.42533,1.50621 -0.50944,3.14071 -1.2248,4.53278c-1.95822,3.81064 -5.78556,5.08821 -9.47653,6.16855c-0.78782,0.2306 -1.58144,0.42974 -2.3761,0.58825c4.64418,1.62109 9.69905,2.35788 14.3628,0.88482c1.28242,-1.35427 2.20817,-3.00811 3.38097,-4.45835c0.50488,-0.62431 1.4055,-0.92532 1.75786,-1.64677c0.60314,-1.23495 0.3858,-2.77051 1,-4c0.41284,-0.8264 1.60344,-1.10052 1.97131,-1.9479c0.5877,-1.35373 0.42308,-2.92529 0.76731,-4.36038c0.54755,-2.28272 1.62333,-4.4416 1.9556,-6.76544c0.60883,-4.25793 -0.77576,-7.99411 -1.91903,-11.99557c-0.87384,-3.05842 -1.40737,-6.71225 -2.84549,-9.60059c-3.87662,-7.78584 -12.21823,-13.82728 -19.66227,-17.75969c-3.29135,-1.14879 -4.02853,-0.79391 -7.20524,0.01549c0.34333,0.43023 0.48501,0.85526 0.48501,0.85526c4.02979,12.14831 3.12829,25.16464 3.12829,37.79057v2c0,0 0,2.5 -2.5,2.5c-2.5,0 -2.5,-2.5 -2.5,-2.5v-2c0,-12.03668 1.00539,-24.64014 -2.87171,-36.20943c0,0 -0.23393,-0.7018 -0.06554,-1.46913c-2.46449,0.54363 -4.83463,1.19582 -7.10098,2.70667c-4.57591,3.0505 -3.80479,7.97906 -6.33515,12.28622c-0.47757,0.81291 -1.50584,1.19707 -2,2c-1.06264,1.72659 -0.97559,3.96998 -1.88084,5.78405c-1.35687,2.7191 -3.19722,5.07754 -5.21321,7.28871zM120.35068,86.29442c1.10757,-1.35746 2.10574,-2.80106 2.90353,-4.3928c1.37267,-2.73874 0.40937,-3.30555 2.11916,-6.21595c0.47757,-0.81291 1.50584,-1.19707 2,-2c1.5965,-2.59403 1.40402,-6.35305 3,-9c0.1307,-0.21677 4.3704,-4.51747 4.66485,-4.71378c4.11436,-2.74298 8.17608,-3.22945 12.82011,-4.38814c4.36449,-1.08895 6.32221,-1.29077 10.70897,0.16168c8.55655,4.5203 17.7042,11.23731 22.17849,20.15619c1.58189,3.15329 2.19654,7.04652 3.15451,10.39941c1.33118,4.65915 2.78686,9.05953 2.08097,14.00443c-0.36344,2.54597 -1.43849,4.93911 -2.08323,7.42876c-0.46587,1.79891 -0.46006,3.73819 -1.19385,5.44543c-0.37982,0.8837 -1.59823,1.19193 -2.02869,2.0521c-0.61506,1.22906 -0.37528,2.77582 -1,4c-0.49248,0.96506 -1.56923,1.50407 -2.24214,2.35323c-1.49354,1.88472 -2.89331,3.86692 -4.61903,5.54165c-10.12591,3.46965 -19.3613,-0.25574 -28.45555,-4.9023c-3.60754,-1.84322 -7.90822,-3.7787 -11.19652,-6.10783c-0.19008,0.49731 -0.37952,0.99484 -0.5683,1.49256c-0.40712,-0.95546 -0.81084,-1.91235 -1.20973,-2.87125c-2.50621,-2.08467 -5.64516,-5.20159 -7.01086,-7.42348c-0.58236,-0.94746 -0.53669,-2.1881 -1.08782,-3.15406c-0.84154,-1.47496 -2.28385,-2.56678 -3.0429,-4.08584c-0.62448,-1.24977 -0.4783,-2.77903 -1.02894,-4.06305c-0.01179,-0.02749 -0.02394,-0.05478 -0.03643,-0.08188c-0.36893,0.33088 -0.90329,0.5705 -1.67729,0.5705c-2.5,0 -2.5,-2.5 -2.5,-2.5l0.73223,-2.76777c0.25165,-0.25165 0.50362,-0.50357 0.75513,-0.75628c-0.13156,-0.62525 -0.25347,-1.25376 -0.41272,-1.86961c0,0 -0.60634,-2.42536 1.81902,-3.0317c1.24127,-0.31032 2.00609,0.17345 2.45702,0.71978z"/></g></g></svg>