<svg version="1.1" xmlns="http://www.w3.org/2000/svg" xmlns:xlink="http://www.w3.org/1999/xlink" width="677.42156" height="592.04688" viewBox="0,0,677.42156,592.04688"><g transform="translate(131.42156,186.63537)"><g data-paper-data="{&quot;isPaintingLayer&quot;:true}" fill="#000000" fill-rule="nonzero" stroke="none" stroke-width="0.5" stroke-linecap="butt" stroke-linejoin="miter" stroke-miterlimit="10" stroke-dasharray="" stroke-dashoffset="0" style="mix-blend-mode: normal"><path d="M519.09375,374.36464c-3.59626,5.42123 -10.05739,8.46459 -16.15269,10.25217c-6.79534,1.99288 -18.43811,0.3697 -23.63305,0.22551c-14.52235,-0.40309 -25.72558,-1.22858 -40.04462,-0.03347c-3.64742,0.30442 -7.47543,-0.37343 -11.04877,0.10267c-4.78407,0.63741 -9.17626,1.49069 -13.4734,2.34607l-8.24123,7.11743l-8.59375,2.73438l-3.90625,0.39063h-11.37644l-21.39008,2.79001l-1.6204,0.04868l-1.61308,0.16131h-55.84099l-0.41068,0.11807l-1.55285,0.73785l-3.81765,0.91483l-0.71898,0.09804l-0.92541,0.26606l-0.53513,-0.06689l-17.72091,2.41649l-0.53634,0.22084l-0.98431,-0.01348l-0.57892,0.07894l-3.92321,0.14074l-1.75238,-0.30536l-1.77862,-0.02436l-3.82932,-0.86469l-0.55429,-0.18476l-0.96979,-0.16899l-0.48617,-0.31633l-5.12345,-1.70782c-0.31641,0.02827 -0.63644,0.05239 -0.96059,0.07231c-12.81877,0.78764 -25.9774,-2.40751 -38.83241,-3c-29.40637,-1.35536 -57.67983,-3.70764 -87.5985,-4c-48.1874,-0.47087 -96.37956,0.12678 -144.56909,0c-7.54656,-0.01985 -14.16956,-3.00958 -18.69952,-8.00906l-4.80047,-1.52742l-0.42702,-0.36879l-1.52611,-0.41246l-3.07736,-3.56326l-3.56326,-3.07736l-0.41246,-1.52611l-0.36879,-0.42702l-0.71876,-2.25894c-11.45823,-12.65305 -3.32929,-41.77228 -2.90624,-52.34186c0.46755,-11.6816 0.13403,-34.6968 -0.2818,-54.84896c-2.95324,-0.00718 -5.86468,-0.05023 -8.68411,-0.05023l-0.15909,0.5c-2.47396,2.86458 -4.13557,6.71586 -7.42187,8.59375c-12.92419,7.38525 -28.7369,4.25294 -36.32812,-8.59375c-4.20113,-7.10961 -2.64435,-15.30418 -3.59993,-23.00239c-0.3046,-2.45386 -4.38791,-5.95402 -5.40007,-7.99761c-1.28237,-2.58915 -2.07401,-5.80316 -2.73437,-8.59375c-0.98229,-4.15096 0.18679,-7.87299 -0.39062,-12.25469c-0.53579,-4.06584 -2.1813,-8.11703 -2.76553,-12.23562c-2.97684,-20.9856 -5.24053,-42.0747 -7.1315,-63.18586c-3.81358,-42.57557 -6.30559,-82.66415 -0.92489,-125.20871c0.76301,-6.03301 2.26469,-12.79529 4.45699,-19.39427c0.3892,-5.01673 1.04348,-9.72724 1.93552,-13.93784c1.62608,-7.67538 3.26154,-15.34929 5,-23c0.41827,-1.84075 2.88249,-5.83825 2.73905,-7.50111c-0.49155,-5.69829 -1.98408,-11.2656 -2.93993,-16.90462c-0.49394,-2.91397 -0.52307,-5.95979 -1.0311,-8.85148c-2.33625,-13.29769 -8.96537,-28.81367 -1.2136,-41.93205c1.92555,-3.25862 4.13557,-6.71586 7.42188,-8.59375c4.33302,-2.47601 9.52407,-3.12513 14.45313,-3.90625c1.2853,-0.20368 2.47363,1.14522 3.7688,1.01859c3.25941,-0.31866 4.20878,-5.08158 6.77808,-7.11234c2.31882,-1.83278 11.76762,-3.52526 14.45313,-3.90625c9.35795,-1.3276 16.63686,5.79006 21.875,12.5c0.93422,1.19672 0.91089,3.49344 1.96711,4.66681c0.1861,0.20674 2.94181,-0.72898 3.25164,-0.77619c1.29365,-0.19708 2.60059,-0.30336 3.90625,-0.39062c4.59531,-0.30712 10.2801,-0.69058 14.62913,0.6932c6.66597,2.12099 14.02063,7.70461 17.53447,13.66748c1.22075,2.07157 2.48995,4.11834 3.59463,6.25407c0.76152,1.47228 -0.7697,4.32156 0.77943,4.91123c2.51815,0.95852 4.99426,-2.07057 7.60297,-2.74473c3.00996,-0.77785 6.37316,-0.93359 9.67419,-0.9178c0.89048,-3.16604 1.45679,-6.66845 3.09144,-9.31657c2.06862,-3.35116 8.43532,-8.32214 12.18815,-9.51622c10.31042,-3.28059 27.87101,-0.4117 33.99935,9.51622c1.98631,3.21783 3.96437,10.0016 5.55098,16.64936l2.20672,-2.28089l11.40962,-9.65429l0.78039,-1.39863l3.32921,-1.68016l0.71507,-0.49193l1.47756,-0.61463l4.61539,-2.32926l1.16026,-0.07328l1.0734,-0.44651l5.16958,0.05222l1.59711,-0.10087l0.8588,0.12568l3.72897,0.03767l1.31772,0.91038l9.97887,2.49472l1.54101,0.55318l23.28736,-36.69523l0.60284,-0.76854l0.5054,-0.83585l18,-24l2.65625,-2.89062l0.25053,-0.17857l0.19219,-0.24024l3.03352,-2.49182l3,-2l3.46688,-1.84178l0.19526,-0.05614l3.16436,-1.8826l2.81696,0.16296l2.49061,-0.71605l11.26735,1.40842l5.14783,4.50436l5.70012,3.78127l4.32343,10.49975l-0.0355,2.59125l0.89841,2.67483l-0.98366,3.54821l-0.00278,0.20315l-0.86469,3.82932l-7,21l-0.5022,1.12028l-0.38644,1.16529l-7.63695,17.10677l20.39526,-22.20817l0.97513,-0.8696l0.05503,-0.07267l0.9557,-0.82867l0.94406,-0.8419l0.07911,-0.04528l0.98714,-0.85594l51,-36l3.41655,-1.93354l0.06718,-0.02127l0.05807,-0.03992l3.62509,-1.50668l33,-10l0.68277,-0.13455l1.87178,-1.07528l7.29378,0.53369l3.02075,0.04174l0.48305,0.21463l0.52718,0.03857l2.68334,1.38793l6.68326,2.96953l1.14335,1.831l0.5386,0.44067l6.2077,6.2077l0.78148,0.26134l0.89265,1.16549l0.37711,-0.21042l1.5384,0.02921l1.42412,-0.58259l5.0161,0.70488l6.99037,0.13273l1.50752,1.06142l1.31203,0.18437l3.73028,3.36583l2.73473,1.92548l0.75529,1.22357l1.21018,1.09195l1.58881,3.44243l1.18274,1.91604l1.32637,3.69488l2,8l0.19821,1.35441l0.21845,0.91162l0.94443,2.12496l7.74603,15.49206l0.58022,1.52308l0.68375,1.4795l8.27727,23.9121l2.59808,-14.02964v-9.41774l-0.33046,-0.7931l0.33046,-1.63285v-1.86101l0.39063,-3.90625l2.13372,-6.70598l0.11498,-0.56811l0.10235,-0.11492l0.38332,-1.20474l7.42188,-8.59375l1.21373,-0.32804l0.8362,-0.93889l11.00565,-2.79508l1.24898,0.19592l0.14857,-0.04015l0.55955,0.15123l3.31099,0.51937l0.51973,-0.12891l1.0036,0.36787l2.11791,0.33222l3.66855,1.39754l1.66454,0.83227l1.60825,0.43466l0.40937,0.47401l0.18916,0.06933l1.19635,1.1272l0.2515,0.15884l2.5383,2.46969l2.57762,2.42863l0.16962,0.24436l1.1781,1.14626l0.57437,1.37848l0.31643,0.45587l5,9l0.63729,1.47665l0.09815,0.14775l0.39548,0.99603l0.42465,0.98395l0.03507,0.17388l0.59352,1.49478l6,21l0.1401,0.77593l0.2443,0.74968l6.49736,29.70223l0.17167,0.2183l7.72122,12.13335l0.38598,-0.57897l2.49182,-3.03352l0.34345,-0.27476l0.28832,-0.50189l1.20263,-0.69087l5.20769,-4.16615l3.95135,-1.09542l2.62037,-1.50532l2.22284,0.16265l2.14777,-0.59542l2.8647,0.96219l4.08945,0.29923l5.92361,3.06394l1.31477,0.4416l0.38115,0.4356l0.39067,0.20207l3.03835,2.48592l1.13079,1.13079l0.79086,0.51831l0.90109,1.35648l1.66318,2.03278l1.10043,2.1275l1.32535,1.99515l0.96925,2.44109l0.74817,1.44646l0.069,0.94305l1.6623,5.81805l0.48687,2.69649l0.08441,0.26529l0.04532,0.45324l0.08093,0.44825l-0.00828,0.27827l0.27265,2.72649v11.6765l2.5718,13.71629l0.01147,0.13355l0.03631,0.12903l2.87741,16.30532l3.79867,16.14435l3.9579,15.83158l0.06154,0.42052l0.12996,0.40464l3,14l0.04357,0.38944l0.10811,0.37666l2,11l0.17984,2.23803l0.22341,2.2341v9l-0.31873,3.1873l0.02402,1.75376l-1.87078,4.54332l-0.95952,3.01563l-0.53937,0.62454l-0.95376,2.31627l-2.45066,1.62568l-3.47809,4.02726l-4.37555,1.18258l-2.17188,1.44075l-4.01921,0.23252l-3.88648,1.0504l-2.51603,-0.68001l-4.52498,0.26178l-4.57313,-2.72073l-1.3681,-0.36976l-0.54324,2.60757l-0.14908,0.47342l-0.07187,0.49111l-3.98948,15.95793l-0.27229,10.6195l-0.02511,0.19936l0.01165,0.20059l-0.30658,7.35803l5.64246,14.57636l0.41414,1.49835l0.52522,1.46311l10,40l0.08637,0.59016l0.17459,0.57032l9,45l0.08135,0.82981l0.19049,0.81173l5,38l0.02669,0.85636l0.13827,0.84555l2,32l-0.02912,0.7814l0.07781,0.77806v10.19962c2.23989,0.88869 4.55917,1.97814 6.65913,3.31092c3.85142,2.44438 6.96508,5.70728 7.498,10.05143c1.18808,2.91214 1.8428,6.09855 1.8428,9.43789c0,4.40913 -1.14141,8.55167 -3.14487,12.14826c-0.68854,1.90992 -1.61671,3.67235 -3.01737,5.14271c-3.29055,3.45432 -6.70773,5.28701 -10.30394,6.21465c-2.66294,0.96701 -5.5368,1.49438 -8.53382,1.49438c-0.49749,0 -0.99158,-0.01453 -1.48188,-0.04319c-0.10234,0.31975 -0.23691,0.62525 -0.42437,0.90783z"/></g></g></svg>