<svg version="1.1" xmlns="http://www.w3.org/2000/svg" xmlns:xlink="http://www.w3.org/1999/xlink" width="56.39092" height="41.17111" viewBox="0,0,56.39092,41.17111"><g transform="translate(-242.60908,-144)"><g data-paper-data="{&quot;isPaintingLayer&quot;:true}" fill="#9966ff" fill-rule="nonzero" stroke="none" stroke-width="0.5" stroke-linecap="butt" stroke-linejoin="miter" stroke-miterlimit="10" stroke-dasharray="" stroke-dashoffset="0" style="mix-blend-mode: normal"><path d="M286.95774,159.06372c1.84096,-0.47226 3.73608,-1.42565 5.60174,-1.06301c0.18044,0.03507 0.35817,0.07784 0.53349,0.12744l0.01338,-0.0535l3.94927,0.98732c1.1133,0.25265 1.9444,1.24829 1.9444,2.43804c0,1.1246 -0.74256,2.07576 -1.76412,2.38994l-2.53213,0.84404c-3.20305,3.06848 -6.82109,2.982 -10.96328,4.35303c-1.0382,0.34363 -2.06442,0.67809 -3.08432,0.9974c-0.22418,0.63302 -0.4668,1.259 -0.72356,1.87896c0.86077,0.094 1.71777,0.21436 2.56742,0.35841v-0.32177h3c1.38071,0 2.5,1.11929 2.5,2.5c0,0.69036 -0.27982,1.31536 -0.73223,1.76777l-2,2l-0.17763,-0.17763l-0.34584,0.57821c-3.07608,0.86106 -5.97081,2.34981 -9.06438,3.1235c-0.08359,0.12409 -0.17962,0.24014 -0.29128,0.34616c-2.33404,2.21626 -6.06205,3.56922 -9.28909,2.82971c-0.70578,-0.16174 -1.48614,-0.29871 -2.22166,-0.51316c-3.62218,1.78557 -8.73721,-0.10266 -11.73465,-2.7994c-0.21437,-0.02613 -0.42877,-0.05385 -0.64324,-0.08327v0.4281h-3c-1.38071,0 -2.5,-1.11929 -2.5,-2.5c0,-0.69036 0.27982,-1.31536 0.73223,-1.76777l0,0l1.33691,-1.33691c-1.00099,-1.41977 -1.84189,-2.71009 -1.96187,-3.17087c-0.07559,-0.29029 -0.09909,-2.78235 -0.1058,-5.0838c-1.1033,-0.56805 -2.04649,-1.378 -2.70566,-2.46102c-1.86241,-3.05994 0.34846,-8.66032 3.22052,-10.86552c0.5989,-2.75312 1.85542,-5.2841 4.46618,-7.30089c3.16627,-2.44591 9.54675,-2.08742 13.24141,-2.49794c0,0 1.13289,-0.12588 1.95373,0.55733c0.36833,-0.92156 1.26931,-1.57262 2.32235,-1.57262c1.38071,0 2.5,1.11929 2.5,2.5v0.73063c4.11157,0.98422 7.9211,3.1974 10.8097,6.31266c0.10564,2.19654 0.33381,4.67608 0.37301,7.08195c1.44213,-0.58343 2.93109,-1.0885 4.77503,-1.56152zM256.86851,172.37493c-0.05308,-0.03391 -0.09872,-0.06961 -0.13628,-0.10716c-0.49484,-0.49484 -0.65141,-1.16104 -0.69054,-1.88672c-1.69069,0.99413 -3.46275,1.4572 -5.24675,0.90584c0.02725,0.16345 0.05965,0.32635 0.09779,0.48865c0.21459,0.91303 1.09409,1.52374 1.64812,2.28053c0.0141,0.01926 0.02827,0.03862 0.04252,0.0581c1.43683,-0.55628 2.86462,-1.1379 4.28515,-1.73924zM256.11325,160.41987l0.15146,0.22719c0.24489,-0.35514 0.47176,-0.72776 0.68181,-1.11281c-0.40119,-0.15594 -0.9313,-0.30225 -1.52894,-0.42962c-0.81743,1.02023 -1.5667,2.10902 -2.21128,3.2532zM258.97721,177c0.66677,0 1.33353,0 2.0003,0c-0.00999,-0.29229 -0.01427,-0.57963 -0.01347,-0.86282c-0.65974,0.29432 -1.32185,0.58237 -1.98683,0.86282zM271.07569,177.21523c0.32557,0.01723 0.65043,0.02779 0.97406,0.02674c0.01086,-0.10064 0.0237,-0.20055 0.04079,-0.29862c-0.06448,0.00714 -0.12786,0.01525 -0.19009,0.02437c-0.28331,0.04154 -0.55628,0.13436 -0.82476,0.24751zM277.1903,155.45671c-0.24803,-0.19992 -0.50524,-0.39332 -0.77076,-0.57986c-0.09014,0.53053 -0.2437,1.06545 -0.43809,1.59897c-0.00735,0.239 -0.01685,0.47998 -0.02862,0.72256c0.43489,0.53984 0.83051,1.11183 1.18203,1.7112c-0.03305,-1.16273 -0.04983,-2.32263 0.05544,-3.45287zM267.9588,157.9544c-0.0028,0.01525 -0.00574,0.03045 -0.00881,0.0456c0.00114,0.00562 0.00226,0.01124 0.00336,0.01687c0.00176,-0.02084 0.00357,-0.04166 0.00545,-0.06247zM253.56664,152.91503c0.19259,-0.23943 1.15256,-1.20178 2.17247,-2.18983c-0.73315,0.18713 -1.33694,0.43378 -1.72164,0.76157c-0.79786,0.67984 -1.39702,1.42568 -1.8451,2.22079c0.23459,0.01377 0.47121,0.03115 0.70875,0.05184c0.23151,-0.28353 0.46069,-0.56487 0.68551,-0.84437zM258.44255,154.82088c0.01847,-0.05238 0.03749,-0.10439 0.05708,-0.15601c-0.03676,0.04603 -0.07339,0.09244 -0.10989,0.13919c0.01768,0.0056 0.03529,0.0112 0.05281,0.01682z"/></g></g></svg>