<svg version="1.1" xmlns="http://www.w3.org/2000/svg" xmlns:xlink="http://www.w3.org/1999/xlink" width="193.44607" height="145.18293" viewBox="0,0,193.44607,145.18293"><g transform="translate(-161.87069,-88.43385)"><g data-paper-data="{&quot;isPaintingLayer&quot;:true}" fill="#9966ff" fill-rule="nonzero" stroke="none" stroke-width="0.5" stroke-linecap="butt" stroke-linejoin="miter" stroke-miterlimit="10" stroke-dasharray="" stroke-dashoffset="0" style="mix-blend-mode: normal"><path d="M170.10634,222.42536c-2.42536,0.60634 -3.0317,-1.81902 -3.0317,-1.81902l-1.02646,-4.11788c-1.61932,-10.87971 -6.4692,-21.3173 -2.89041,-32.36251c5.60657,-13.55486 9.26536,-27.292 8.73278,-42.08861c-0.30179,-8.38457 -1.16896,-16.60086 -0.89056,-25.03734c0.06954,-2.10731 -0.67416,-4.4845 0.37337,-6.31433c0.93455,-1.63248 3.27016,-1.86149 4.87181,-2.84795c2.0481,-1.26142 5.47131,-3.87082 7.43013,-4.74788c1.48969,-0.66701 3.25026,-0.60436 4.7128,-1.32897c1.42492,-0.70598 2.53171,-1.925 3.79756,-2.8875c0.8242,-0.4143 7.96084,-4.03222 8.7104,-4.28139c9.79402,-3.25575 21.94306,-4.24344 32.20007,-3.00374c4.90248,0.59253 9.6512,2.45966 14.61005,2.92028c0.07871,0.00731 6.141,0.0232 6.67359,-0.11308c1.63335,-0.41796 3.04953,-1.54234 4.70698,-1.85121c0.21889,-0.04079 9.96284,-0.05549 10.462,-0.05672c6.66658,-0.01647 13.1656,-0.04135 19.77402,-0.98122c11.17571,0.00162 22.28615,-3.75962 33.54821,-2.96119c1.4892,0.10558 10.83732,2.19529 11.56237,2.86993c1.12739,1.04902 0.47576,3.0477 0.56664,4.58497c0.19672,3.32752 0.00017,6.66667 0,10c-0.00026,5.04988 -0.24658,10.44415 0.92207,15.38068c1.6641,7.02934 6.20715,12.92575 7.97599,19.9127c1.73637,5.09402 4.83076,9.94083 6.04001,15.1536c0.61103,2.63403 0.50475,5.39248 1.01054,8.04873c1.17479,6.16961 3.4611,11.94833 4.04287,18.29809c0.72551,7.91857 0.01122,16.25139 0.00852,24.2062c-0.00217,6.39241 -0.47115,12.96673 -1.49031,19.28918c-0.3556,2.20602 0.22052,4.96659 -1.33701,6.56881c-1.32644,1.36449 -3.78179,0.428 -5.67268,0.64201c-12.87312,0 -25.50257,-0.87878 -38.2826,-1.68282c-1.75082,1.68493 -3.48517,-0.04941 -3.48517,-0.04941l-0.17789,-0.17789c-0.73946,-0.04508 -1.47955,-0.08961 -2.22035,-0.1334c-16.94772,-1.0019 -33.91737,-1.01564 -50.88603,-0.90294c-13.35285,0.08868 -26.49159,1.1494 -39.81099,1.94271c-15.3531,0.91445 -30.76383,1.00376 -46.13698,1.00376c0,0 -2.5,0 -2.5,-2.5c0,-2.5 2.5,-2.5 2.5,-2.5c15.28169,0 30.60132,-0.08552 45.86302,-0.99624c13.39899,-0.79957 26.61861,-1.8609 40.05174,-1.95011c16.12551,-0.1071 32.25201,-0.09826 48.35986,0.75192c-1.79966,-2.21695 -3.50722,-4.5274 -5.23942,-6.75974c-2.58812,-3.33539 -5.71225,-6.22686 -8.32881,-9.50047c-2.07607,-2.5974 -3.39723,-5.74645 -5.50055,-8.32183c-4.14113,-5.07054 -9.57425,-9.25457 -14.0519,-14.03767c-2.38575,-2.5485 -4.44372,-5.39888 -6.81675,-7.96809c-3.20162,-3.46843 -6.32702,-7.75202 -9.93237,-10.7928c-0.146,-0.12314 -0.29431,-0.24307 -0.44468,-0.36012c-1.65819,1.85042 -3.07752,3.93785 -4.84579,5.68674c-8.00909,7.9213 -17.72172,14.15777 -27.04507,20.37347c-9.28134,6.14875 -16.08957,14.99026 -21.04745,24.92636l-1.78638,3.56785c0,0 -1.11927,2.23545 -3.35472,1.11619c-2.23545,-1.11927 -1.11619,-3.35472 -1.11619,-3.35472l1.78717,-3.56942c2.34387,-4.65109 5.26251,-8.56726 8.12864,-12.9028c0.99459,-1.5045 1.77646,-3.17715 2.99778,-4.50423c3.17593,-3.45094 7.72063,-6.82674 11.6176,-9.43946c9.05368,-6.03592 18.52418,-12.07503 26.30262,-19.76821c0.59878,-0.59222 2.50859,-2.81907 4.17882,-4.73142c-1.08637,-0.60095 -2.17188,-1.20457 -3.19096,-1.90334c-3.76157,-2.57923 -4.28746,-3.44013 -8,-6c-6.02717,-4.15585 -12.59179,-7.58766 -18.95394,-11.18774c-7.99011,-4.52127 -15.76557,-9.28091 -23.82942,-13.67937c0,0 -2.19474,-1.19713 -0.99761,-3.39187c1.19713,-2.19474 3.39187,-0.99761 3.39187,-0.99761c8.08657,4.41086 15.88538,9.18347 23.89756,13.71723c6.48838,3.67151 13.17209,7.17822 19.31908,11.41565c2.74443,1.89188 5.25086,4.11497 8,6c0.08633,0.05919 1.966,1.22811 3.90228,2.43648c1.92045,-1.30608 4.26824,-2.00243 6.16743,-3.36212c2.15064,-1.53971 3.72867,-3.75245 5.60078,-5.62092c5.9639,-5.95231 11.77255,-12.0724 18.354,-17.34375c0,0 1.95217,-1.56174 3.51391,0.39043c1.56174,1.95217 -0.39043,3.51391 -0.39043,3.51391c-6.44166,5.14697 -12.11358,11.15791 -17.94538,16.97838c-2.02811,2.02417 -3.77759,4.37836 -6.09984,6.05696c-1.38483,1.001 -3.03031,1.6179 -4.5581,2.39832c3.62561,3.15261 6.80865,7.42604 10.05279,10.94052c2.37724,2.57685 4.44198,5.43548 6.83485,7.9878c4.54707,4.85007 10.02882,9.09964 14.23237,14.2466c2.11369,2.58807 3.44173,5.75289 5.5316,8.36024c2.62932,3.28037 5.75998,6.18447 8.35477,9.53318c2.6575,3.42966 5.26555,7.14627 8.29214,10.26205c13.28237,0.82648 26.37875,1.78377 39.74306,1.78377c0.77577,0.214 1.84651,1.28733 2.32732,0.64201c0.67487,-0.9058 -0.32171,-2.24712 -0.29016,-3.37625c0.17594,-6.29697 1.46504,-12.43771 1.46284,-18.76576c-0.00272,-7.81462 0.7277,-16.0168 0.00852,-23.7938c-0.56811,-6.14338 -2.81173,-11.72993 -3.95713,-17.70191c-0.50309,-2.62306 -0.40518,-5.3451 -0.98946,-7.95127c-1.13358,-5.05632 -4.27553,-9.89273 -5.95999,-14.8464c-2.18227,-8.85043 -7.93797,-16.08794 -8.79912,-25.43383c-0.49452,-5.36694 -0.30282,-10.89066 -0.30282,-16.27279c0,-1.66667 -0.14665,-3.3398 0,-5c0.04471,-0.50612 1.01585,-1.17761 0.56664,-1.41503c-1.02018,-0.53919 -2.31567,0.03549 -3.45984,-0.1141c-3.07005,-0.40139 -6.1743,-0.83606 -9.26529,-0.65686c-9.39824,0.54485 -18.7914,2.67835 -28.1643,2.6797c-6.71534,0.96369 -13.34139,0.97701 -20.1161,0.99378c-3.17933,0.00787 -6.41767,-0.64156 -9.53797,-0.03173c-1.61678,0.31599 -2.99031,1.4412 -4.59167,1.82781c-0.9792,0.23641 -7.32237,0.28231 -8.13768,0.2079c-5.02963,-0.459 -9.8357,-2.3343 -14.8001,-2.93967c-9.50862,-1.1595 -20.91935,-0.23057 -30.00139,2.77853c-0.15938,0.05281 -7.47466,3.69523 -7.67798,3.79629c-1.40081,1.0375 -2.64181,2.33591 -4.20244,3.1125c-1.52301,0.75787 -3.3459,0.73187 -4.90244,1.41824c-2.90901,1.28274 -4.21334,3.09048 -6.95463,4.50491c-0.98749,0.50952 -2.57833,0.18644 -3.12819,1.15205c-0.61105,1.07306 0.32034,2.45197 0.37337,3.68567c0.07158,1.66513 0,3.33333 0,5c0,6.70398 0.64186,13.17925 0.88725,19.85554c0.56733,15.43507 -3.18143,29.87418 -9.04502,44.01851c-3.36255,9.7142 1.66792,20.02479 3.10959,29.63749l0.97354,3.88212c0,0 0.60634,2.42536 -1.81902,3.0317z"/></g></g></svg>