<svg version="1.1" xmlns="http://www.w3.org/2000/svg" xmlns:xlink="http://www.w3.org/1999/xlink" width="257.08376" height="121.54634" viewBox="0,0,257.08376,121.54634"><g transform="translate(-67.98645,-97.45366)"><g data-paper-data="{&quot;isPaintingLayer&quot;:true}" fill="#9966ff" fill-rule="nonzero" stroke="none" stroke-width="0.5" stroke-linecap="butt" stroke-linejoin="miter" stroke-miterlimit="10" stroke-dasharray="" stroke-dashoffset="0" style="mix-blend-mode: normal"><path d="M210.5,185c-2.5,0 -2.5,-2.5 -2.5,-2.5l0.12829,-1.20943c-1.27166,-3.81501 -2.66554,-7.50087 -3.11613,-11.54423c-0.55283,-4.96085 -0.3666,-9.92619 -0.99286,-14.93626c0,0 -0.31009,-2.48069 2.17061,-2.79078c2.48069,-0.31009 2.79078,2.17061 2.79078,2.17061c0.63138,5.05105 0.46381,10.06278 1.00714,15.06374c0.39523,3.63786 1.73842,7.01943 2.88387,10.45577l0.12829,2.79057c0,0 0,2.5 -2.5,2.5z"/><path d="M199,122.5c0,-1.38071 1.11929,-2.5 2.5,-2.5c1.38071,0 2.5,1.11929 2.5,2.5c0,1.38071 -1.11929,2.5 -2.5,2.5c-1.38071,0 -2.5,-1.11929 -2.5,-2.5z"/><path d="M180.5,135c-1.09545,0 -1.71089,-0.48 -2.05666,-1.01935c-2.60099,-0.24055 -5.20111,-0.47742 -7.80011,-0.70453c0.0943,0.04858 0.18512,0.10297 0.27196,0.16272l2.97156,1.98104l-0.0221,0.03315c0.07383,0.03696 0.14728,0.07482 0.22032,0.11362c2.29815,1.22086 3.79638,4.91903 4.69563,6.90922c1.81092,4.00787 2.52205,8.12541 4.06411,12.15677c1.67626,4.3822 4.11851,8.58939 5.96499,12.91066c1.56719,3.66766 1.52322,8.49055 4.45807,11.18894l0.73223,2.76777c0,0 0,2.5 -2.5,2.5c-2.5,0 -2.5,-2.5 -2.5,-2.5l0.73223,0.76777c-3.55544,-3.74488 -3.56347,-8.20919 -5.54193,-12.81106c-1.3942,-3.24289 -3.10624,-6.42884 -4.58922,-9.67032c0.65643,3.06435 1.13337,6.54489 0.33204,9.28799c-2.10285,7.19847 -9.14392,12.3108 -16.73858,10.90689c-1.84836,-0.34168 -3.96026,-0.43042 -5.39317,-1.64696c-2.1372,-1.8145 -1.79101,-5.45857 -1.80138,-7.83431c-0.01581,-3.62437 -0.48245,-7.71143 0.01873,-11.30546c0.18982,-1.3612 0.82982,-2.63621 1,-4c0.23771,-1.9049 -0.43495,-3.94946 0.2173,-5.75493c0.43919,-1.21571 1.85176,-1.80561 2.82241,-2.65924c1.25154,-1.10065 2.56074,-2.13395 3.84111,-3.20092c0,0 1.92055,-1.60046 3.52101,0.32009c1.60046,1.92055 -0.32009,3.52101 -0.32009,3.52101c-1.28037,1.06697 -2.52423,2.17934 -3.84111,3.20092c-0.46504,0.36076 -1.35449,0.36746 -1.49538,0.93891c-0.33917,1.37568 0.3512,2.83454 0.2173,4.24507c-0.12988,1.36822 -0.80068,2.64016 -1,4c-0.32363,2.20793 0.01873,4.46302 0.01873,6.69454c0,2.19987 -0.13705,4.40217 -0.03228,6.59954c0.02513,0.52709 -0.20621,1.27053 0.23091,1.56615c0.57753,0.39059 4.37115,0.42237 5.05503,0.34647c1.34268,-0.149 2.74399,-0.18706 3.99045,-0.70796c0.673,-0.28125 0.99216,-1.06978 1.50488,-1.58857c4.24884,-4.29911 3.7808,-8.90467 2.35071,-14.51667c-2.21926,-6.69634 -5.46076,-11.78878 -6.0354,-18.98864l-0.9271,-2.89144c-0.0889,-0.25656 -0.1372,-0.53208 -0.1372,-0.81888c0,-1.12123 0.73812,-2.07007 1.75495,-2.3871c-0.45299,-0.03871 -0.90594,-0.07707 -1.35885,-0.11506c-15.42165,0.0068 -30.66125,-2.2421 -46.03435,-3.00167c-3.26096,-0.16112 -6.55213,-0.01977 -9.8405,0.08398c4.48297,1.02085 8.79562,2.58666 13.11467,4.32912c1.68544,0.67997 3.55603,0.97331 5.09616,1.93823c5.08912,3.18844 4.27717,11.91989 0.53569,15.92025c-1.10732,1.18394 -2.96264,1.353 -4.30599,2.26034c-0.82939,0.5602 -1.2892,1.58363 -2.14745,2.09852c-0.97332,0.58393 -2.14397,0.74611 -3.21595,1.11916c-2.29828,1.54036 -5.01124,2.35987 -7.41463,3.73045c-0.89285,0.50917 -1.40662,1.52949 -2.27069,2.0861c-2.98105,1.92035 -4.53125,2.27248 -7.62249,3.30936l-3.9086,-1.13564c0,0 -0.0058,-0.0029 -0.01666,-0.0087c0.68167,10.22819 0.63469,20.46934 0.63469,30.77263v2c0,0 0,2.5 -2.5,2.5c-2.5,0 -2.5,-2.5 -2.5,-2.5v-2c0,-14.69214 0.11633,-29.25025 -2.01262,-43.83305c-0.92937,-6.36596 -2.21212,-12.37136 -2.74262,-18.65139c-0.58165,0.00037 -1.16325,-0.00332 -1.74477,-0.01556c-1.34896,-0.02839 -2.77537,-0.65167 -4.04329,-0.1903c-1.03101,0.37516 -1.45929,1.63871 -2.18894,2.45807c0,0 -1.76777,1.76777 -3.53553,0c-1.76777,-1.76777 0,-3.53553 0,-3.53553c1.27035,-1.18064 2.19102,-2.92292 3.81106,-3.54193c0.07887,-0.03013 0.28875,-0.05573 0.59816,-0.07744c-2.93005,0.02489 -5.85803,0.0009 -8.76006,-0.22432c0.05427,0.04309 0.10356,0.09255 0.14672,0.14968c0.92436,1.22367 3.18276,6.15847 3.43961,8.06132c0.21973,1.62781 -0.3236,3.31479 -0.01283,4.92769c0.31359,1.62752 1.52306,2.99021 1.85148,4.6148c0.35139,1.7382 0.02481,3.54932 0.15647,5.31779c0.20913,2.80898 0.89101,5.57374 1.03246,8.38694c0.33573,6.67748 0.0047,13.46631 0.0047,20.15324c0,4.62452 0.48626,9.65249 -0.01217,14.24634c-0.41974,3.86861 -0.80953,7.34992 -0.94094,11.10343c3.67483,-0.18152 7.58434,-0.39599 10.85356,0.1825c1.70311,0.30136 3.24857,1.21245 4.92975,1.6187c2.93768,0.70988 5.96098,1.0188 8.96317,1.3663c16.98886,1.96643 35.3715,1.93862 52.2885,-0.31698c13.69695,-1.82591 27.414,-3.73823 41.08412,-5.67788c0.44868,-0.06366 9.65372,-1.62552 9.95802,-1.65486c4.37701,-0.42203 8.83124,-0.04677 13.21765,-0.36253c10.37875,-0.74712 20.69155,-2.37291 30.95951,-3.9971c4.78171,0.00057 8.88555,-1.00292 13.48571,-1.61134c-0.78687,-0.73981 -0.78687,-1.89658 -0.78687,-1.89658l0.12829,-0.20943c-0.66481,-2.05635 -0.68718,-4.268 -1.09601,-6.39011c-0.73019,-3.79015 -2.58166,-7.61711 -3.77807,-11.30208c-1.24035,-1.86052 -2.00603,-3.997 -3,-6c-1.45596,-2.93398 -4.03883,-5.01288 -5.78232,-7.6366c-0.7806,-1.1747 -0.94901,-2.71892 -1.84609,-3.80727c-1.27277,-1.54413 -3.16116,-2.45507 -4.71078,-3.72115c-1.58761,-1.29712 -2.95716,-1.9862 -4.60378,-2.28459c1.06301,10.746 0.68875,21.5364 0.68875,32.35124v3c0,1.38071 -1.11929,2.5 -2.5,2.5c-1.25484,0 -2.29374,-0.92451 -2.47274,-2.12954l-0.81524,-4.89143c-2.54042,-7.03739 -1.44173,-15.04344 -2.2035,-22.27283c-0.30386,-2.88374 -2.06039,-8.86687 -0.57464,-11.53894c0.74737,-1.34414 2.58543,-1.65907 4.15032,-2.01438c0.15134,-0.05019 0.31703,-0.09037 0.49841,-0.11855c5.40639,-1.35761 9.2886,2.52797 13.00237,5.53232c1.037,0.83891 2.43066,1.25807 3.28922,2.27885c1.01135,1.20244 1.28045,2.88668 2.15391,4.19273c1.90464,2.84795 4.6151,5.17998 6.21768,8.3634c1.00545,1.99726 1.75965,4.13948 3,6c1.40131,4.11687 3.37821,8.43902 4.22193,12.69792c0.36808,1.85798 0.28407,3.82012 0.90399,5.60989l0.12829,1.79057c0,0 0,0.83476 -0.48236,1.53956c3.63699,-0.20137 7.36495,-0.02788 10.97195,-0.03953c4.99157,-0.01612 10.24441,-0.40444 15.21661,0.0085c3.34773,0.27803 6.58167,1.39824 9.91886,1.78262c1.36567,0.1573 7.29956,0.2007 8.8877,0.20889c1.32906,0.00686 2.66298,-0.11312 3.98724,-0.00003c0.53438,0.04564 1.07583,0.74362 1.53822,0.47189c0.3944,-0.23177 -0.00233,-0.91491 -0.00594,-1.37235c-0.00629,-0.7978 0.06784,-1.6008 -0.02376,-2.39334c-0.70862,-6.13077 -0.98444,-12.01152 -1.00851,-18.20134c-0.00001,-9.50424 0.63389,-19.20281 -0.96772,-28.60441c-0.43739,-2.56754 -0.83703,-4.90831 -1.78013,-7.30631c-0.25708,-0.65366 -0.28533,-1.6153 -0.93179,-1.88996c-0.87001,-0.36963 -1.87597,0.25485 -2.82036,0.29581c-4.30753,0.18683 -8.68985,0 -13,0c-11,0 -22,0 -33,0c-17.02037,0 -34.12014,-0.09409 -51.11006,-1.00242c-11.0385,-0.59015 -22.08375,-1.63167 -33.1158,-2.66075c-0.37032,0.37786 -0.92957,0.66318 -1.77414,0.66318zM178,128.5c0.02476,-2.76051 -0.10831,-6.19298 -1.62663,-8.68567c-0.43367,-0.71198 -1.38697,-1.00908 -1.80673,-1.72936c-1.00497,-1.72447 -3.14776,-3.63652 -2.39845,-5.48646c0.34129,-0.84259 6.57681,-2.81185 8.3751,-3.40821c8.93706,-4.46853 18.8229,-5.26264 28,-9c3.39258,-1.38162 6.56908,-4.47798 10.72448,-1.45807c1.21853,0.88556 0.41456,2.98594 0.7135,4.46231c0.27276,1.34703 0.80563,2.63945 1,4c0.5766,4.03609 1.62075,8.49715 0.99263,12.66577c-0.63732,4.22966 -3.18044,8.35919 -4.98583,12.2146c16.4618,0.84435 33.02596,0.92508 49.51193,0.92508c12.66667,0 25.33333,0 38,0c2.66667,0 5.33472,-0.08589 8,0c1.72846,0.0557 3.65428,-0.51901 5.17964,0.29581c3.78882,2.02392 4.68098,9.27775 5.28807,12.80373c1.66409,9.665 1.03229,19.62414 1.03228,29.39559c0.02358,6.05815 0.43082,11.8003 0.99149,17.79866c0.22312,2.38704 0.09365,6.56012 -2.02971,8.23431c-1.17441,0.92598 -2.96853,0.38875 -4.46178,0.47189c-6.2241,0.34656 -12.40631,-0.11247 -18.51179,-1.2177c-6.44391,-1.1665 -12.94416,-0.80339 -19.4778,-0.78232c-4.24427,0.01369 -8.67367,-0.26525 -12.89168,0.2096c-5.14642,0.57937 -9.67811,1.78187 -14.91989,1.7825c-10.28187,1.67958 -20.6404,3.25812 -31.04049,4.0029c-4.3315,0.31019 -8.73373,-0.06711 -13.05447,0.34949c-3.28656,0.31689 -6.50068,1.17012 -9.76986,1.63312c-13.67381,1.93657 -27.39146,3.85185 -41.09133,5.67885c-17.32194,2.30959 -36.14034,2.34134 -53.53606,0.32629c-3.1995,-0.37062 -6.41894,-0.71599 -9.55,-1.47143c-1.55907,-0.37616 -2.98012,-1.25139 -4.55709,-1.54358c-2.99291,-0.55454 -6.66397,-0.33413 -10.09954,-0.14031c0,1.2242 0,2.44839 0,3.67259v2c0,0 0,2.5 -2.5,2.5c-2.5,0 -2.5,-2.5 -2.5,-2.5c0,-1.1864 0,-4.37279 0,-5.55919c-0.72958,-0.14694 -2,-0.65867 -2,-2.44081c0,-1.81284 1.31456,-2.31113 2.03721,-2.44809c0.12042,-3.99473 0.51827,-7.71635 0.97496,-11.79826c0.49462,-4.42093 -0.01217,-9.30283 -0.01217,-13.75366c0,-6.58524 0.32979,-13.27073 0.0047,-19.84676c-0.13816,-2.79462 -0.8308,-5.5398 -1.02869,-8.33082c-0.11034,-1.55616 0.24705,-3.15186 -0.06847,-4.67968c-0.33895,-1.64125 -1.54566,-3.02429 -1.86243,-4.66997c-0.47661,-2.47605 0.14348,-5.20059 -0.85481,-7.51606c-0.51396,-1.19211 -1.04859,-2.3829 -1.71841,-3.49493c-0.7316,-1.21459 -2.66554,-2.05715 -2.47189,-3.46178c0.25399,-1.84234 2.36219,-2.87313 3.54329,-4.3097c10.45595,-0.50289 20.7857,-0.04956 31.16291,0.81822c6.25719,0.52325 12.65862,-0.31688 18.93205,-0.00469c4.6797,0.23288 9.33118,0.77423 14.0163,1.00096c10.68564,0.5171 21.22192,1.99284 31.94935,1.99738c3.46369,0.28684 6.92922,0.59672 10.3961,0.91497zM212.22408,130.46549c1.57056,-3.45524 4.26554,-7.4974 4.80202,-11.32581c0.4336,-3.09427 -0.50856,-5.32111 -0.99382,-8.23923c-0.16924,-1.0177 0.13235,-2.07369 -0.01355,-3.095c-0.19436,-1.36056 -0.92899,-2.62747 -1,-4c-0.02919,-0.5643 1.12857,-1.15428 0.7135,-1.53769c-0.4374,-0.40405 -1.12141,0.40688 -1.65785,0.66536c-2.79196,1.34526 -5.63005,2.6444 -8.59647,3.54169c-7.84233,2.37217 -15.64787,3.64822 -23.02121,7.33489c-1.08591,0.36353 -2.11888,0.97078 -3.25774,1.0906c-0.80196,0.08437 -1.56093,-0.51432 -2.36716,-0.49881c-0.56052,0.01078 1.14954,0.1819 1.60155,0.51354c0.84845,0.62249 1.65626,1.36567 2.19327,2.27064c2.01561,3.39676 2.34558,7.52591 2.37337,11.31433v0.8802c9.65956,0.89937 19.3278,1.80893 28.99418,2.41168c-0.04345,-0.72501 0.2299,-1.32638 0.2299,-1.32638zM174.15912,144.3838c0.67624,2.22875 1.55258,4.33389 2.45289,6.50054c-0.17567,-0.63295 -0.36916,-1.25996 -0.59977,-1.87458c-0.35408,-0.94368 -1.0857,-2.84448 -1.85312,-4.62596zM101.61803,161.26393l0.0914,0.86436c2.40073,-0.79463 4.17247,-1.23515 6.37751,-2.69064c0.91491,-0.6039 1.49318,-1.65533 2.44455,-2.19999c2.55169,-1.46086 5.41984,-2.35826 7.87013,-3.98345c0.92802,-0.29361 1.94943,-0.38 2.78405,-0.88084c0.75878,-0.45532 1.1128,-1.41585 1.85255,-1.90148c1.13779,-0.74692 2.6844,-0.8269 3.69401,-1.73966c1.30126,-1.17643 2.00071,-5.58011 1.46543,-7.25795c-0.14605,-0.4578 -0.69097,-0.69946 -1.12965,-0.8956c-2.88417,-1.28957 -5.85569,-2.3768 -8.81824,-3.4744c-7.53382,-2.79124 -15.14287,-3.07586 -22.99962,-3.10184c0.52991,6.03721 1.79015,11.81416 2.68479,17.94223c0.46088,3.15693 0.81912,6.313 1.09752,9.46964c1.14645,-0.86993 2.58557,-0.15037 2.58557,-0.15037z"/><path d="M306.26777,170.26777c-1.76777,1.76777 -3.53553,0 -3.53553,0l0.76777,-0.26777c-3.08519,0 -6.27977,-0.15166 -9.5,-0.26843c0,5.58948 0,11.17895 0,16.76843v5c0,0 0,2.5 -2.5,2.5c-2.5,0 -2.5,-2.5 -2.5,-2.5c0,-6.52213 0,-14.183 0,-21.89574c-4.75939,-0.04564 -9.48039,0.19474 -13.89366,1.32109c0,0 -2.42536,0.60634 -3.0317,-1.81902c-0.60634,-2.42536 1.81902,-3.0317 1.81902,-3.0317c4.84314,-1.18904 9.96007,-1.44035 15.10634,-1.40342c0,-6.77913 0,-13.41818 0,-19.17123c0,0 0,-2.5 2.5,-2.5c2.5,0 2.5,2.5 2.5,2.5c0,6.42524 0,12.85047 0,19.27571c3.20582,0.09699 6.39226,0.22429 9.5,0.22429l2.76777,1.73223c0,0 1.76777,1.76777 0,3.53553z"/></g></g></svg>