<svg version="1.1" xmlns="http://www.w3.org/2000/svg" xmlns:xlink="http://www.w3.org/1999/xlink" width="440.01052" height="308.48627" viewBox="0,0,440.01052,308.48627"><g transform="translate(2.01052,-20.32228)"><g data-paper-data="{&quot;isPaintingLayer&quot;:true}" fill="#9966ff" fill-rule="nonzero" stroke="none" stroke-width="0.5" stroke-linecap="butt" stroke-linejoin="miter" stroke-miterlimit="10" stroke-dasharray="" stroke-dashoffset="0" style="mix-blend-mode: normal"><path d=""/><path d=""/><path d=""/><path d=""/><path d=""/><path d=""/><path d=""/><path d=""/><path d=""/><path d="M295.00051,325.95889c0,-0.34831 0.06331,-0.68183 0.17907,-0.98967l0.98225,-2.83582c-0.02085,-2.32456 0.38366,-4.68118 0,-6.97396c-0.53098,-3.17319 -2.24828,-6.63001 -3.26698,-9.6861c0,0 -0.88939,-2.66817 1.77878,-3.55756c2.66817,-0.88939 3.55756,1.77878 3.55756,1.77878c1.11468,3.34405 2.90649,7.09411 3.483,10.56385c0.47948,2.88577 0.02146,5.85075 0,8.776l-1.20387,3.72375c-0.10656,0.36017 -0.28331,0.69021 -0.51438,0.97428c-0.50104,0.66709 -1.42965,1.39405 -2.96469,0.92886c-0.07348,-0.02122 -0.14573,-0.04536 -0.21661,-0.07227c-1.50592,-0.54949 -1.81183,-1.68841 -1.81209,-2.52239c-0.00135,-0.03575 -0.00202,-0.07167 -0.00202,-0.10775z"/><path d="M350.30156,306.64511c-1.98874,2.12791 -3.97746,0 -3.97746,0l-0.69635,-0.82773c-4.85263,-3.48522 -8.55117,-8.07301 -14.64038,-9.16325c-4.28424,-0.76706 -9.2242,1.55288 -13.16012,-1.47087c-0.10138,-0.07789 -0.20118,-0.15774 -0.29952,-0.23937l-0.0249,0.03996l-0.92284,-0.65828c0.25423,1.63135 0.505,3.26332 0.75911,4.89468c0.19495,1.25157 0.96117,2.35451 1.125,3.61117c0.10367,0.7952 0.17839,1.59492 0.22489,2.39659c2.64802,0.76025 1.97745,3.63022 1.97745,3.63022l-1.21572,5.12911c-0.76484,1.64968 -1.52968,3.29936 -2.29451,4.94903c-0.21,0.60263 -0.62117,1.27868 -1.4262,1.61574c-0.47855,0.25882 -1.08446,0.38287 -1.81776,0.15527c-0.75099,-0.14732 -1.24111,-0.5482 -1.56094,-1.0087c-0.64137,-0.76045 -0.67697,-1.6616 -0.57493,-2.32774l0.11839,-1.76814c1.77476,-5.48244 0.739,-9.98078 -0.10801,-15.41848c-0.375,-2.40745 -0.7581,-4.81347 -1.125,-7.22235c-0.16147,-1.06016 0.40355,-2.20276 0.08436,-3.22117c-0.38322,-1.2227 -1.53957,-2.01091 -2.08469,-3.16108c-1.08144,-2.28178 -1.84888,-4.75615 -3.18862,-6.87523c0,0 -1.56009,-2.5039 0.78005,-4.17317c2.34014,-1.66927 3.90023,0.83464 3.90023,0.83464c1.45209,2.35917 2.39259,5.03653 3.56136,7.56947c0.49701,1.07711 1.33886,1.96406 1.92881,2.98088l2.3881,-0.85174c3.60054,-1.92707 7.78613,-4.26206 11.83103,-4.98118c5.43983,-0.96711 11.80323,-0.03886 17.32547,-0.03886c0,0 2.81249,0 2.81249,3.00931c0,3.00931 -2.81249,3.00931 -2.81249,3.00931c-5.2061,0 -11.30471,-0.9555 -16.42444,-0.03886c-2.88017,0.51568 -5.93821,2.08959 -8.66794,3.56564c0.26639,0.04893 0.53122,0.093 0.79297,0.12326c2.98263,0.34486 6.04056,-0.52614 8.99998,0c7.02871,1.24959 11.26527,6.13709 16.85953,10.09635l1.55364,1.57972c0,0 1.98874,2.12791 0,4.25581z"/><path d="M52.06945,152.50221c0,-2.65043 2.65043,-2.65043 2.65043,-2.65043h2.12035c2.82083,0 5.75415,0.51158 8.37708,-0.79067c5.20695,-2.58516 6.90389,-10.13872 5.27091,-15.30877c-1.99397,-1.87906 -4.73033,-3.9456 -6.25659,-6.20471c-0.88474,-1.30956 -1.24366,-2.92573 -2.12035,-4.24069c-0.5886,-0.88285 -1.67892,-1.36677 -2.22479,-2.27667c-0.61907,-1.03189 -0.64724,-2.33373 -1.1865,-3.40946c-1.89729,-3.78473 -4.90742,-7.85983 -3.3363,-12.53425c3.16583,-9.41902 13.88767,-8.24342 21.61982,-8.24342c4.24604,0 7.39371,-0.11192 11.43987,1.19618c0,0 2.51442,0.83814 1.67628,3.35256c-0.83814,2.51442 -3.35256,1.67628 -3.35256,1.67628c-4.19328,-1.45244 -8.52091,-0.92416 -12.94411,-0.92416c-2.33224,0 -4.68281,-0.32663 -6.99665,-0.03422c-2.33482,0.29505 -5.5901,2.13475 -6.36923,4.51288c-1.04219,3.18109 1.80311,6.21892 3.02474,8.6692c1.59391,3.197 3.02347,6.04013 5.07009,9.15629c1.51003,2.29916 4.56566,4.54135 6.46548,6.51736c2.76826,8.07894 0.91818,18.65426 -7.45116,22.85745c-3.50484,1.76017 -6.95269,1.32968 -10.70603,1.32968h-2.12035c0,0 -2.65043,0 -2.65043,-2.65043z"/><path d="M137.41335,101.08383c2.65043,0 2.65043,2.65043 2.65043,2.65043v2.12035c0,6.55615 -1.06017,12.61229 -1.06017,19.08311c0,2.83805 0.78347,7.65821 -0.11372,10.30961c-1.75641,5.19055 -7.29881,7.81789 -11.06398,11.22218c-5.13803,0.24712 -10.99285,1.00442 -15.86876,-1.08499c-2.24667,-0.96273 -3.7466,-3.15561 -5.77836,-4.51441c-1.38464,-0.92602 -3.17022,-1.21131 -4.44502,-2.28352c-1.0822,-0.91022 -1.52967,-2.38526 -2.41597,-3.48714c-0.69924,-0.86931 -1.75592,-1.44785 -2.32525,-2.40727c-2.56753,-4.32687 -2.51618,-9.31034 -2.51618,-14.11549c0,-3.14272 -0.4796,-6.87365 0.03422,-9.96611c0.02902,-0.17463 0.82485,-2.58253 1.45813,-4.48536c-0.27327,-0.41687 -0.43219,-0.91544 -0.43219,-1.45113c0,-1.46379 1.18664,-2.65043 2.65043,-2.65043c0.12933,0 0.25649,0.00927 0.38087,0.02716c0.41897,-0.10013 0.92106,-0.08995 1.51745,0.10885c2.51442,0.83814 1.67628,3.35256 1.67628,3.35256c-0.66204,1.98612 -1.67304,3.88261 -2.01856,5.94745c-0.47024,2.8102 0.03422,6.26385 0.03422,9.117c0,3.72163 -0.31949,7.97291 1.72451,11.32866c0.45977,0.75482 1.36563,1.14142 1.91545,1.83342c0.70592,0.88845 0.94909,2.15214 1.82472,2.8739c1.15384,0.95106 2.79098,1.1296 4.03636,1.95717c1.73382,1.15213 2.91003,3.14683 4.82337,3.96698c3.62077,1.55204 7.8781,0.67979 11.69573,1.03535c2.24958,-2.66272 6.85647,-4.27969 8.01913,-7.86093c0.24859,-0.76571 -0.09736,-1.60758 -0.11372,-2.41247c-0.06456,-3.17539 -0.01602,-6.36548 0,-9.54155c0.01156,-2.29107 0.70423,-4.52797 1.0944,-6.78559c0.48335,-2.79683 -0.03422,-6.27473 -0.03422,-9.117v-2.12035c0,0 0,-2.65043 2.65043,-2.65043z"/><path d="M153.06974,128.36444l-0.81397,0.28388c3.18029,0 6.36133,-0.01833 9.54155,0c1.81225,0.01044 3.32459,0.33902 4.96762,-0.66434c2.6116,-1.59483 5.18089,-6.2504 3.3277,-9.16162c-0.67871,-1.06619 -1.84198,-1.73129 -2.74825,-2.61224c-1.19199,-1.15869 -1.83326,-3.05915 -3.38083,-3.66615c-1.79169,-0.70275 -3.87276,0.48298 -5.77132,0.16753c-0.20574,-0.03418 -3.5109,-1.13259 -5.43837,-1.77574c-0.22563,3.37919 -1.5612,5.77064 -2.1226,9.12563c-0.40433,2.41631 0.13251,5.00029 0.14269,7.49855c1.28196,-0.20931 2.29576,0.80449 2.29576,0.80449zM149.74135,107.13681c0.83814,-2.51442 3.35256,-1.67628 3.35256,-1.67628c1.98612,0.66204 3.88261,1.67304 5.94745,2.01856c2.26817,0.37954 4.71444,-0.7353 6.95076,0.16753c0.5598,0.226 4.39282,4.09071 5.10055,4.81523c1.21267,1.24144 2.7957,2.21774 3.61278,3.74879c2.94713,5.52228 0.14067,13.1359 -5.15368,16.28253c-4.69714,2.79168 -12.0446,1.45601 -17.29601,1.45601l-2.57999,-1.61472c-0.04265,0.14774 -0.07842,0.29718 -0.10466,0.449c-0.65808,3.80784 0.03422,8.42209 0.03422,12.29752v1.06017c0,0 0,2.65043 -2.65043,2.65043c-2.65043,0 -2.65043,-2.65043 -2.65043,-2.65043v-1.06017c0,-4.19342 -0.63251,-9.01268 0.03422,-13.14663c0.17794,-1.10326 0.86986,-2.07932 1.06017,-3.18052c0.53178,-3.07705 -0.51467,-6.44401 0,-9.54155c0.57356,-3.45196 2.13033,-5.5565 2.08612,-9.117c0,0 0,-2.31271 2.16035,-2.61744c0.0251,-0.11009 0.05691,-0.22375 0.09601,-0.34105z"/><path d="M211.09536,129.17841c0,2.65043 -2.65043,2.65043 -2.65043,2.65043h-3.18052c-4.5879,0 -9.15275,0.0187 -13.73635,-0.20175c-1.41531,-1.27981 -2.99701,-2.67323 -4.32638,-4.22392c-0.55092,-0.21817 -1.0872,-0.6735 -1.39578,-1.57112c-0.02392,-0.06673 -0.04523,-0.13468 -0.06382,-0.20377c-0.02892,-0.10215 -0.05236,-0.20137 -0.07072,-0.29775c-1.37725,-2.24581 -1.99607,-4.8012 -0.87855,-7.76813c0.21529,-0.57159 4.09869,-4.38402 4.81523,-5.10055c3.54907,-3.54907 7.48944,-7.78976 13.24392,-5.96343c3.68259,1.16876 9.02872,6.15464 8.17251,10.56686c-0.30232,1.55795 -1.88817,2.58662 -3.0932,3.61933c-3.61317,3.09648 -9.55428,4.40084 -14.70259,5.66794c0.12029,0.13183 0.23057,0.25774 0.32794,0.37717c3.88542,-0.36187 7.8072,-0.20175 11.7078,-0.20175h3.18052c0,0 2.65043,0 2.65043,2.65043zM189.64707,121.76151c4.26647,-1.25654 8.67504,-2.39084 12.77677,-3.9979c1.22254,-0.47899 3.14835,-0.63636 3.44155,-1.91622c0.10338,-0.45123 -0.43271,-0.82777 -0.73523,-1.17816c-1.54897,-1.79401 -3.29144,-3.48307 -5.80224,-3.0179c-3.46736,0.6424 -5.6249,4.40407 -8.09197,6.67914c-0.48876,0.45072 -1.26841,0.65626 -1.54581,1.26048c-0.32982,0.7184 -0.29529,1.45127 -0.04307,2.17056z"/><path d="M262.90489,113.37868c0.0879,0.27279 0.13894,0.58953 0.13894,0.9573c0,2.65043 -2.65043,2.65043 -2.65043,2.65043c-4.66587,-0.04429 -10.29038,-3.62518 -14.88831,-2.3221c-0.89675,0.25414 -1.53994,2.98779 -1.57859,3.27674c-0.47264,3.53416 0.59691,6.4282 1.07454,9.85334c0.28821,2.06679 -0.36974,4.20402 -0.01437,6.26032c0.19031,1.1012 0.88936,2.07613 1.06017,3.18052c0.13228,0.85523 -0.43295,1.76711 -0.16753,2.5908c0.17723,0.54999 0.88208,0.74868 1.35201,1.08493c2.6686,1.90947 5.22296,2.6133 8.28576,3.67418c1.83717,-0.02281 3.69083,0.24354 5.51193,0c1.7076,-0.22836 2.85471,-1.93253 4.332,-2.8189c0.95827,-0.57496 2.21421,-0.49883 3.18052,-1.06017c1.55321,-0.90227 2.48983,-2.5901 3.75997,-3.86024c1.17546,-1.17546 3.05915,-1.83326 3.66615,-3.38083c0.2648,-0.67513 -0.17441,-1.44155 -0.20175,-2.16624c-0.12492,-3.31065 0.53078,-6.91366 0.03422,-10.17717c-0.45152,-2.96755 -1.50788,-2.73525 -2.94523,-5.62112c-0.46006,-0.9237 -0.45718,-2.03634 -0.93384,-2.95157c-1.43892,-2.76283 -4.89989,-2.50864 -6.473,-0.57945zM258.80993,111.58772c-0.41026,-1.86859 1.45833,-2.80287 1.45833,-2.80287l1.43152,-0.56369c0.9934,-0.89829 1.72684,-2.2228 2.98021,-2.69488c4.09266,-1.54152 9.47791,0.75152 11.75026,4.23578c0.65735,1.00793 0.64681,2.33394 1.1865,3.40946c1.17803,2.34761 2.95878,4.51442 3.4158,7.10095c0.6021,3.4077 0.12907,7.55924 0.03422,11.02628c-0.03828,1.39935 0.3223,2.89671 -0.20175,4.1948c-0.24123,0.59752 -4.07933,4.36466 -4.81523,5.10055c-0.48748,0.48748 -4.38803,4.41581 -4.72142,4.62114c-0.95152,0.58605 -2.22225,0.48521 -3.18052,1.06017c-0.8571,0.51426 -1.25008,1.62869 -2.12035,2.12035c-1.27296,0.71917 -2.71242,1.15198 -4.14938,1.42179c-0.46266,0.08687 -6.74748,0.00439 -7.21014,0c-4.55801,-1.47359 -11.48236,-2.96899 -13.68602,-7.96297c-0.50787,-1.15091 0.05128,-2.53143 -0.16753,-3.77024c-0.19437,-1.10048 -0.88223,-2.07726 -1.06017,-3.18052c-0.34296,-2.12644 0.29801,-4.3306 -0.01437,-6.46175c-0.56102,-3.82751 -1.95982,-9.487 -0.60769,-13.76967c-0.53916,0.19367 -1.00243,0.19367 -1.00243,0.19367c-3.18052,0 -9.54155,0 -12.72207,0c0,0 -0.78669,0 -1.50287,-0.4286c-0.1974,0.06319 -0.39872,0.13046 -0.60427,0.20152c-0.43064,0.14885 -1.12249,0.02955 -1.28951,0.45348c-0.51166,1.29864 -0.30475,2.77607 -0.52592,4.15423c-1.08162,6.73984 -1.90839,12.665 -1.90839,19.47325c0,2.68757 0.75422,6.97723 0,9.54155c-0.60243,2.04826 -1.76696,3.8873 -2.65043,5.83095l-2.65043,-5.83095c-0.61621,-0.86269 0,-2.12035 0,-3.18052c0,-3.18052 0,-6.36104 0,-9.54155c0,-7.42121 0,-14.84242 0,-22.26363c0,0 0,-2.65043 2.65043,-2.65043c0.7122,0 1.23303,0.19138 1.6139,0.47129c0.76003,-0.56159 1.75923,-0.8978 2.61358,-1.30438c3.80474,-1.81067 7.33764,-1.76521 10.54257,-0.22708c1.08429,0 2.16858,0 3.25288,0h3.18052c0,0 2.31883,0 2.61864,2.16893c0.69477,-0.78862 1.58893,-1.45795 2.72812,-1.96717c4.85522,-2.17033 10.39134,1.19142 15.33341,1.82076z"/><path d="M278.94642,148.26151c0,-2.65043 2.65043,-2.65043 2.65043,-2.65043h1.06017c1.78352,0 3.68639,0.85299 5.34676,0.20175c1.54757,-0.60699 2.20537,-2.4907 3.38083,-3.66615c0.70679,-0.70679 1.35561,-1.4767 2.12035,-2.12035c0.42163,-0.35487 1.35688,-0.30712 1.41495,-0.85516c0.08468,-0.79918 -0.94216,-1.35839 -1.09685,-2.14702c-0.16657,-0.84922 0.45912,-1.776 0.16753,-2.5908c-0.47415,-1.32491 -1.93033,-1.98704 -3.07921,-2.87211c-0.4867,-0.2786 -0.80591,-0.70649 -1.00311,-1.0635c-0.1758,-0.29288 -0.35167,-0.68473 -0.40232,-1.13379l-0.76296,-2.8816c-1.84202,-4.82522 -4.21606,-9.76194 -5.6155,-14.73061c-0.68414,-2.42901 -2.61109,-5.09224 -1.59267,-7.40113c0.73774,-1.67255 3.54878,-0.92145 5.36291,-1.14644c2.27367,-0.28198 4.52797,0.70423 6.78559,1.0944c1.94995,0.337 3.95762,-0.03422 5.93648,-0.03422c0,0 2.65043,0 2.65043,2.65043c0,2.65043 -2.65043,2.65043 -2.65043,2.65043c-3.67912,0 -6.44045,-0.48509 -9.96611,-1.0944c-0.9053,-0.15646 -1.87509,0.29519 -2.75596,0.03422c-0.03769,-0.01116 -0.07755,-0.0298 -0.11885,-0.0545c3.49338,4.68233 4.94471,10.97498 7.00921,16.40506l0.78673,2.94778c1.28169,1.27304 4.08904,4.07293 4.31315,4.60145c0.4911,1.15816 -0.01808,2.52602 0.16753,3.77024c0.21326,1.42969 1.35704,2.80752 1.02349,4.21402c-0.33919,1.43028 -1.84341,2.29203 -2.82574,3.38553c-1.62714,1.81131 -5.04238,6.05609 -7.2209,6.93558c-0.62589,0.25268 -6.29973,0.20175 -7.37531,0.20175h-1.06017c0,0 -2.65043,0 -2.65043,-2.65043z"/><path d="M336.72584,174.23575c-2.65043,0 -2.65043,-2.65043 -2.65043,-2.65043c0,-5.65425 0,-13.42886 0,-19.08311c0,-3.97578 0.50813,-7.0239 1.08003,-10.92557c0.60991,-4.16097 -0.49988,-8.58408 0.01446,-12.77061c0.78049,-6.35284 1.07723,-12.86304 2.12025,-19.13529c0.18331,-1.10238 0.89804,-2.07482 1.06017,-3.18052c0.6547,-4.46486 -0.49325,-9.22607 -0.00011,-13.72805c0.33494,-3.05785 1.03603,-6.09507 1.02606,-9.17119c0,0 0,-2.65043 2.65043,-2.65043c2.65043,0 2.65043,2.65043 2.65043,2.65043c-0.00933,3.25432 -0.68842,6.4722 -1.05311,9.70603c-0.52056,4.61594 0.60085,9.4388 -0.04128,14.04232c-0.15438,1.1068 -0.87604,2.07827 -1.06017,3.18052c-1.03068,6.16977 -1.28319,12.57035 -2.07926,18.82505c-0.53765,4.22428 0.56165,8.66017 -0.02672,12.87941c-0.52772,3.7844 -1.04032,6.4434 -1.04032,10.27789c0,5.65425 0,11.30851 0,16.96276v2.12035c0,0 0,2.65043 -2.65043,2.65043z"/><path d="M285.33738,231.07184c0.23372,0.24719 0.46675,0.49501 0.69909,0.74345c-0.00174,0.10971 -0.00297,0.21963 -0.00374,0.32973c-0.8277,0.06224 -1.65703,0.1089 -2.48777,0.14193c0.61603,-0.39541 1.21489,-0.802 1.79242,-1.21511z"/><path d="M82.81446,218.23292c0,-1.46379 1.18664,-2.65043 2.65043,-2.65043c1.46379,0 2.65043,1.18664 2.65043,2.65043c0,1.46379 -1.18664,2.65043 -2.65043,2.65043c-1.46379,0 -2.65043,-1.18664 -2.65043,-2.65043z"/><path d="M162.32741,212.93205c0,2.65043 -2.65043,2.65043 -2.65043,2.65043h-3.18052c0,0 -2.65043,0 -2.65043,-2.65043c0,-2.65043 2.65043,-2.65043 2.65043,-2.65043h3.18052c0,0 2.65043,0 2.65043,2.65043z"/><path d="M260.92348,204.45067c0,-1.46379 1.18664,-2.65043 2.65043,-2.65043c1.46379,0 2.65043,1.18664 2.65043,2.65043c0,1.46379 -1.18664,2.65043 -2.65043,2.65043c-1.46379,0 -2.65043,-1.18664 -2.65043,-2.65043z"/><path d="M222.75726,210.81171c0,-1.46379 1.18664,-2.65043 2.65043,-2.65043c1.46379,0 2.65043,1.18664 2.65043,2.65043c0,1.46379 -1.18664,2.65043 -2.65043,2.65043c-1.46379,0 -2.65043,-1.18664 -2.65043,-2.65043z"/><path d="M346.79748,209.75154c0,-1.46379 1.18664,-2.65043 2.65043,-2.65043c1.46379,0 2.65043,1.18664 2.65043,2.65043c0,1.46379 -1.18664,2.65043 -2.65043,2.65043c-1.46379,0 -2.65043,-1.18664 -2.65043,-2.65043z"/><path d="M85.85897,66.40618c-0.83814,2.51442 -3.35256,1.67628 -3.35256,1.67628l-3.08341,-1.02986c-0.6169,-0.15422 -1.22723,-0.33458 -1.83488,-0.52522c-1.98104,0.36612 -3.95442,0.6124 -5.90547,0.63092c0,0 -2.25235,0 -2.6044,-2.07633c-1.94314,0.34087 -3.92941,1.01395 -5.87698,1.01615c-1.37944,0.00156 -3.23158,-0.84169 -4.1334,0.20214c-1.62073,1.87593 -1.90029,4.58514 -3.02723,6.79328c-1.0961,2.14769 -3.1263,3.68499 -4.47147,5.68613c-1.24047,1.84536 -2.61966,5.7645 -3.40168,7.78868c-1.0068,1.67159 -1.87884,3.43215 -3.02042,5.01477c-0.52924,0.7337 -1.49079,1.10607 -1.95484,1.88265c-0.52932,0.88583 -0.4711,2.02921 -0.93384,2.95157c-1.70223,3.39297 -4.67206,6.15184 -6.36104,9.54155c-0.53665,1.07705 -0.55726,2.38376 -1.1865,3.40946c-1.28952,2.10199 -4.04219,3.0628 -5.24905,5.21331c-0.64498,1.1493 -0.42265,2.61866 -0.88078,3.85439c-0.54937,1.48186 -1.55256,2.7658 -2.12035,4.24069c-1.58511,4.11749 -0.23658,8.06797 -0.92976,12.22707c-0.16115,0.96691 -1.02595,1.77573 -1.02595,2.75596c0,0.98025 0.85902,1.79004 1.02595,2.75596c0.34197,1.97873 0.30116,4.04999 0.95839,5.94745c0,0 0.64344,1.93031 -0.88853,2.97209c0.49649,0.42495 0.74473,0.92143 0.74473,0.92143l1.26085,2.66283c0.56105,2.24859 1.17097,4.48794 1.88754,6.69199c0.30576,0.50988 0.35182,1.05988 0.3098,1.51104c-0.00547,0.45533 -0.10984,1.00061 -0.47161,1.47736c-8.69855,19.13681 -17.5728,38.66015 -26.26813,57.7899c0,0 -0.09991,0.21981 -0.30578,0.49658c0.49216,0.01319 0.85139,0.13292 0.85139,0.13292c2.35513,0.80165 4.46218,2.20143 6.68737,3.31402c2.30215,1.15108 4.88794,1.87807 6.87691,3.51175c2.79412,2.295 5.11193,6.42011 8.19446,8.27648c1.88086,1.1327 4.18669,1.37872 6.35163,1.74437c3.6229,0.61188 7.66116,-2.8523 10.7287,-4.26724c0.77691,-0.35836 7.64727,-3.15993 8.79203,-3.85915c5.23205,-3.19572 9.72807,-6.94997 15.18703,-9.71466c5.01069,-1.63163 10.83423,-2.13256 15.86876,0.02482c2.24667,0.96273 3.75205,3.1475 5.77836,4.51441c2.45322,1.65489 4.08387,1.87404 6.70961,2.81624c0.79004,0.28349 1.50302,0.92416 2.34238,0.92416c2.09746,0 3.86563,-1.75317 5.93648,-2.08612c0.85443,-0.13738 1.78896,0.49307 2.5908,0.16753c0.80196,-0.32558 0.96823,-1.53684 1.74121,-1.92626c1.52708,-0.76935 3.23096,-1.65981 4.92573,-1.43256c2.81531,0.3775 5.47388,3.17827 7.70203,5.66395c0.95917,-0.60025 2.13056,-0.30741 2.13056,-0.30741l4.6701,1.20761c2.04315,1.35052 4.43499,2.08899 6.57209,3.28534c0.97876,0.54791 1.5407,1.73227 2.57497,2.16638c3.13936,1.31766 6.75647,1.02067 10.01442,2.00935c4.55122,1.38114 9.23972,2.83842 13.78225,4.24069c5.38999,1.66388 9.34046,5.43012 15.06977,6.11374c11.08365,1.32249 22.7226,-1.93611 33.76875,-2.21993c5.42218,-0.12278 10.73326,-1.46427 16.16229,-0.93556c1.80027,0.17532 3.53475,0.78343 5.32375,1.05027c1.04104,0.15528 10.27482,0.94448 10.96409,1.15143c1.54581,0.46412 2.71001,1.80415 4.22013,2.37375c1.59669,0.60226 3.36942,0.59752 4.99914,1.10366c3.28244,1.01942 6.20054,3.13546 9.55908,3.8661c2.94461,0.6406 6.02685,-0.04782 9.04034,-0.04782c2.71968,0 5.45627,0.32277 8.15902,0.01968c3.18859,-0.35758 6.2389,-1.51623 9.39428,-2.09808c8.16426,-1.5055 16.38949,-2.38927 24.64251,-3.21457c8.96303,-0.8963 17.71111,-1.06806 26.71543,-1.06806c1.76696,0 3.53568,-0.07896 5.30086,0c1.30041,0.05817 2.67801,0.9021 3.88347,0.41084c0.71668,-0.29207 0.33297,-1.51721 0.60718,-2.24091c0.59847,-1.5794 1.45024,-3.05811 2.00519,-4.65333c1.15361,-3.31609 2.60524,-6.52421 3.73821,-9.84741c0.57855,-1.69698 0.49328,-3.57303 1.06606,-5.27195c1.51348,-4.48918 4.93689,-7.86367 7.85366,-11.35268c2.64621,-3.16537 3.91017,-7.19242 6.26059,-10.47111c2.7104,-3.78085 6.77407,-7.14438 9.71679,-10.81963c4.76902,-4.77627 9.3582,-9.63028 13.70746,-14.75513c0.88028,-1.03725 1.33552,-2.41074 2.2959,-3.37431c0.89947,-0.90247 2.26246,-1.23679 3.18052,-2.12035c2.81859,-2.71266 3.08949,-7.83751 4.85047,-11.06109c2.30927,-4.22725 5.84603,-8.00911 8.24759,-12.25117c6.98868,-12.34461 8.77553,-27.92454 5.43533,-41.59242c-2.35271,-3.48205 -4.73309,-7.88691 -6.38586,-11.71987c-0.55919,-1.29681 -0.38427,-2.84721 -1.00467,-4.11589c-2.19365,-4.48588 -7.264,-7.86582 -10.59489,-11.50478c-4.08471,-4.46249 -7.82288,-9.72862 -12.69541,-13.42191c-1.41709,-1.07414 -3.16063,-1.66672 -4.5723,-2.74796c-1.98297,-1.5188 -3.57707,-3.49912 -5.52829,-5.0585c-0.17555,-0.14029 -8.29078,-6.63109 -8.39047,-6.71757c-3.02371,-2.62312 -5.84077,-5.71362 -9.67224,-6.8817c-3.3431,-1.15795 -5.61928,-0.53334 -9.07579,-0.95848c-11.62057,-1.42929 -23.3631,-2.72751 -34.98202,-4.23215c-4.77064,-0.61779 -9.35138,-2.09083 -13.99981,-3.2204c-2.76226,-0.67123 -5.66973,-0.66574 -8.40636,-1.43482c-3.60267,-1.01248 -6.31472,-2.87832 -9.88431,-3.92962c-5.7828,-1.70314 -11.97365,-3.23393 -17.88718,-4.39023c-3.39323,-0.61378 -6.74335,-1.5429 -10.17776,-1.85186c-6.85005,-0.61623 -13.88956,0.44357 -20.67445,1.06003c-3.34115,0.30358 -6.72945,-0.06446 -10.05863,0.35019c-5.1715,0.6441 -10.05744,2.51382 -15.04535,3.83336c-15.48679,4.09701 -30.62899,9.50379 -46.19918,13.44779c-23.43468,5.93613 -46.09306,14.5344 -69.89986,18.99262c-1.62755,0.30479 -3.27269,0.69449 -4.9268,1.10561c0.18767,0.47248 0.23364,1.0703 -0.01468,1.81527zM21.46045,148.03948c-0.70481,-2.18009 -0.79714,-4.51267 -1.16196,-6.77462c-0.19996,-1.23982 -1.0944,-2.34923 -1.0944,-3.60508c0,-1.25584 0.88794,-2.36632 1.0944,-3.60508c0.75854,-4.55126 -0.48888,-8.63265 1.19058,-13.21708c0.54364,-1.48397 1.56038,-2.76281 2.12035,-4.24069c0.56574,-1.49314 0.43916,-3.24538 1.23956,-4.627c1.26911,-2.19065 4.07861,-3.20065 5.35267,-5.38841c0.51932,-0.89173 0.4711,-2.02921 0.93384,-2.95157c1.70223,-3.39297 4.67206,-6.15184 6.36104,-9.54155c0.53665,-1.07705 0.56584,-2.37854 1.1865,-3.40946c1.37196,-2.2788 3.35622,-4.15046 4.71997,-6.43418c1.1224,-2.93361 2.10891,-5.91095 3.86586,-8.56456c1.16737,-1.76313 3.08316,-3.01493 4.00991,-4.9156c1.42878,-2.93032 2.16011,-6.4388 4.54765,-8.65866c1.73644,-1.61448 5.30678,-1.31106 7.37482,-1.30868c3.54941,0.00408 6.33215,-1.57232 9.96611,-1.02595c1.38558,0.20832 2.72613,0.62004 4.06155,1.05847c0.66718,-0.19463 1.33283,-0.39118 1.99853,-0.56396c0.11509,-0.02987 10.36792,-1.94787 10.59728,-1.99081c23.69306,-4.43694 46.24927,-13.01265 69.57394,-18.92091c15.55198,-3.9394 30.67533,-9.34152 46.14514,-13.43381c5.22217,-1.38144 10.33172,-3.29469 15.74587,-3.969c1.6059,-0.20001 8.37017,-0.19821 10.24433,-0.37c7.10074,-0.65088 14.44968,-1.6994 21.6169,-1.05972c0.15678,0.01399 10.39893,1.8704 10.68705,1.92252c16.94348,3.33715 32.71097,10.71781 49.93277,12.9348c11.56353,1.4886 23.22454,2.73765 34.78351,4.20807c3.75467,0.47763 6.48137,-0.00345 10.2132,1.20304c4.64741,1.64211 7.83029,4.7484 11.53121,7.96072c4.38475,3.80585 9.04969,8.03933 13.64573,11.54773c1.39559,1.06533 3.12257,1.64184 4.5186,2.70658c6.08166,4.63844 10.5473,11.20177 15.87903,16.60287c3.14102,3.18188 6.91971,6.20171 8.98909,10.26522c0.68159,1.33837 0.52128,2.98619 1.11567,4.36549c1.64546,3.81833 4.03687,8.11189 6.33622,11.60393c3.45342,13.59979 2.42633,28.39055 -3.16851,41.34329c-2.75336,6.37438 -7.44361,11.24129 -10.71308,17.19143c-0.5719,1.0408 -2.44072,7.08448 -3.14608,8.41639c-0.72472,1.36846 -1.52719,2.73462 -2.60517,3.84632c-0.88699,0.91474 -2.27794,1.22098 -3.18052,2.12035c-0.84157,0.83856 -1.17788,2.07939 -1.94479,2.98673c-4.38492,5.18779 -9.03065,10.11108 -13.85703,14.9297c-2.82571,3.53523 -6.77986,6.74767 -9.36632,10.38383c-2.40255,3.37763 -3.74487,7.46243 -6.46149,10.73234c-2.52405,3.03813 -5.71472,5.90958 -6.98875,9.85078c-0.53553,1.65663 -0.45118,3.47604 -1.01311,5.1239c-0.57998,1.70076 -1.74556,3.1554 -2.38311,4.83543c-1.26992,3.3464 -1.95359,6.92985 -3.54601,10.13537c-0.77608,1.56223 -1.06325,3.72122 -2.60389,4.53932c-0.9768,0.51869 -10.38533,0.41084 -12.01913,0.41084c-8.83034,0 -17.39923,0.16288 -26.18797,1.04176c-8.11555,0.81155 -16.20195,1.67883 -24.23067,3.15699c-3.25297,0.5989 -6.40174,1.7745 -9.68883,2.14261c-0.20884,0.02339 -7.41082,0.01968 -8.80375,0.01968c-3.34763,0 -6.7684,0.64865 -10.04277,-0.04782c-1.2387,-0.26347 -8.65167,-3.55086 -10.12784,-4.00866c-1.74542,-0.5413 -3.63394,-0.57931 -5.34394,-1.22383c-1.41129,-0.53194 -2.47554,-1.81975 -3.91609,-2.26641c-3.24091,-1.00486 -6.77813,-0.45788 -10.13413,-0.9584c-1.70625,-0.25447 -3.35835,-0.83909 -5.07406,-1.01907c-5.13063,-0.53818 -10.35741,0.83229 -15.5036,0.96085c-11.32013,0.24674 -23.16229,3.57294 -34.53074,2.18319c-6.20184,-0.75815 -10.23227,-4.58567 -15.97714,-6.30503c-4.60006,-1.37673 -9.19203,-2.84025 -13.78225,-4.24069c-1.22128,-0.37261 -9.93794,-1.96038 -10.74751,-2.29332c-1.13576,-0.4671 -1.7936,-1.71633 -2.86551,-2.31564c-2.00061,-1.11856 -4.24817,-1.79639 -6.14999,-3.0757l-1.57922,-0.3782c0.00069,0.02481 0.00103,0.04971 0.00103,0.07469c0,0.33498 -0.06215,0.65546 -0.17554,0.95052c-0.25832,0.76031 -0.89681,1.69991 -2.47489,1.69991c-1.57809,0 -2.21657,-0.9396 -2.47489,-1.69991c-0.1134,-0.29506 -0.17554,-0.61553 -0.17554,-0.95052c0,-0.0117 0.00007,-0.02339 0.00022,-0.03505c-1.74234,-2.02648 -4.0359,-5.26074 -6.18298,-5.81935c-1.59662,-0.41541 -2.40084,2.39498 -3.93479,3.00222c-1.16968,0.46303 -2.53051,-0.04599 -3.77024,0.16753c-2.24099,0.38598 -4.47556,2.15457 -6.78559,2.15457c-3.28779,0 -9.60509,-3.05972 -12.15147,-4.74098c-1.73721,-1.147 -2.91003,-3.14683 -4.82337,-3.96698c-3.55789,-1.52509 -8.16674,-1.19107 -11.69573,0.02482c-5.18529,2.54954 -9.51945,6.35824 -14.49781,9.36845c-1.76821,1.06916 -7.51631,3.30398 -9.28999,4.12169c-4.53371,2.09016 -8.33785,5.37113 -13.59619,4.71469c-1.16772,-0.14577 -7.22102,-1.7363 -8.49079,-2.49633c-3.36613,-2.01483 -5.78651,-6.1568 -8.76831,-8.68628c-1.65293,-1.40218 -3.90645,-1.87993 -5.84517,-2.84929c-2.01554,-1.00777 -3.8914,-2.35115 -6.0347,-3.04702c0,0 -2.51442,-0.83814 -1.67628,-3.35256c0.09168,-0.27504 0.20342,-0.50996 0.32972,-0.71026c-0.31276,-0.02293 -0.65663,-0.10861 -1.03241,-0.27942c-2.41287,-1.09676 -1.31611,-3.50962 -1.31611,-3.50962c8.69277,-19.12411 17.38555,-38.2482 26.07832,-57.37231c-0.69405,-2.18333 -1.2962,-4.39663 -1.85278,-6.61882l-0.85949,-1.57787c0,0 -1.02685,-2.0537 0.74246,-3.29385c-0.63634,-0.54422 -0.88626,-1.294 -0.88626,-1.294z"/><path d="M296.96936,200.20998c0,-1.46379 1.18664,-2.65043 2.65043,-2.65043c1.46379,0 2.65043,1.18664 2.65043,2.65043c0,1.46379 -1.18664,2.65043 -2.65043,2.65043c-1.46379,0 -2.65043,-1.18664 -2.65043,-2.65043z"/><path d="M28.74565,210.81171c0,-1.46379 1.18664,-2.65043 2.65043,-2.65043c1.46379,0 2.65043,1.18664 2.65043,2.65043c0,1.46379 -1.18664,2.65043 -2.65043,2.65043c-1.46379,0 -2.65043,-1.18664 -2.65043,-2.65043z"/><path d="M259.33322,300.39631c1.46379,0 2.65043,1.18664 2.65043,2.65043c0,1.45831 -1.17776,2.64154 -2.63399,2.65038c-0.43121,0.52027 -0.95148,0.78041 -0.95148,0.78041l-3.30565,1.33998c-1.86641,-0.02318 -3.75914,0.31325 -5.5229,0.92416c-4.44237,1.48079 -8.29019,3.40932 -12.54594,5.23512c-2.72752,1.17016 -4.99206,2.91997 -8.01093,3.34805c-2.74904,0.38981 -8.96015,0.08379 -10.99502,-2.04527c-1.11569,-1.16734 -0.44821,-3.20084 -0.56135,-4.81163c-0.19808,-2.82018 -0.00603,-5.65426 0,-8.48138c0.01246,-5.83711 -2.19338,-10.88201 -3.1463,-16.53821c-0.17613,-1.04544 0.17113,-2.13424 0,-3.18052c-0.40334,-2.46589 -1.46836,-4.77914 -2.07544,-7.20294c0,0 -0.64283,-2.5713 1.92848,-3.21413c2.5713,-0.64283 3.21413,1.92848 3.21413,1.92848c0.64077,2.56807 1.723,5.02989 2.16525,7.63948c0.17714,1.04527 -0.1723,2.13444 0,3.18052c0.98148,5.95878 3.20244,11.22021 3.21474,17.38732c0.00564,2.82712 0.33318,5.67396 0,8.48138c-0.06473,0.54549 -0.98172,1.1958 -0.56135,1.54941c0.63164,0.53133 1.65012,0.05033 2.47544,0.06071c1.16402,0.01464 2.34014,0.18072 3.4923,0.01437c1.94379,-0.28065 5.47855,-2.43379 6.83149,-3.01299c4.34915,-1.8619 8.34072,-3.84744 12.89821,-5.36661c2.31466,-0.74832 4.76666,-1.17309 7.19918,-1.19618l0.93504,-0.78036c0,0 0.52017,-0.26009 1.19504,-0.29294c0.48412,-0.63629 1.2494,-1.04706 2.11062,-1.04706z"/><path d="M284.24728,276.54242c0,-0.04248 0.001,-0.08474 0.00298,-0.12673c-1.13812,-1.42265 -2.73139,-3.41423 -3.66288,-4.57859c0,0 -1.65571,-2.06964 0.41392,-3.72535c2.06964,-1.65571 3.72535,0.41392 3.72535,0.41392c1.10381,1.37976 2.20762,2.75952 3.31143,4.13927l0.92926,1.16159c0,0 0.88111,1.10138 0.55434,2.34c0.01743,0.12279 0.02645,0.24828 0.02645,0.37588c0,1.46379 -1.18664,2.65043 -2.65043,2.65043c-1.46379,0 -2.65043,-1.18664 -2.65043,-2.65043z"/><path d="M421.00957,312.58829c0,2.65043 -2.65043,2.65043 -2.65043,2.65043h-3.18052c-4.18334,-0.03752 -6.1936,1.51202 -10.17717,2.08612c-2.87877,0.41488 -5.66951,-1.31911 -8.45471,-2.15703c-2.71745,-0.81753 -6.52429,0.49357 -9.35716,0.03668c-2.32709,-0.37532 -4.6395,-1.02595 -6.99665,-1.02595c-2.67205,0 -6.05332,0.33286 -8.23518,-1.83646c-1.164,-1.15732 -1.19643,-3.05707 -1.79463,-4.58561c-0.16802,-4.37935 -1.25803,-7.5762 -2.46472,-11.41735c-4.30976,0.51621 -8.62436,0.87141 -12.94962,0.87666c0,0 -2.65043,0 -2.65043,-2.65043c0,-2.65043 2.65043,-2.65043 2.65043,-2.65043c3.85045,0.00503 7.69688,-0.27828 11.54106,-0.71007c-0.39873,-1.79445 -0.75802,-3.59956 -1.3334,-5.34291c-0.8524,-2.58267 -3.4686,-4.74565 -3.30364,-7.46034c0.07201,-1.18494 5.32668,-6.1826 6.06426,-6.91383c1.90989,-1.89346 4.43751,-3.04032 6.68544,-4.5167c3.24485,-2.13112 5.15889,-6.33545 8.43764,-8.44916c1.58786,-1.02364 3.21233,-2.54082 5.10028,-2.47171c2.1942,0.08032 3.97268,1.87319 5.92631,2.87533c6.27949,3.22114 12.40308,6.80169 18.59145,10.19531c1.65487,0.90751 9.868,5.23493 10.4888,6.45396c0.82213,1.61437 -0.4969,3.62152 -1.14674,5.31261c-0.40741,1.06024 -1.60815,1.70565 -1.96456,2.7841c-0.35855,1.08491 0.4888,2.44041 -0.08803,3.42674c-1.09825,1.87793 -2.7061,3.57129 -4.61492,4.61492c-1.22828,0.67156 -2.79523,0.17197 -4.1948,0.20175c-4.97986,0.10597 -9.83207,0.33371 -14.80526,0.69122c-7.71384,0.55453 -15.40204,1.92205 -23.09795,3.02451c1.16413,3.67177 2.22227,7.00096 2.34559,11.18772c0.70648,3.85093 6.44242,1.67012 9.47786,2.09353c1.1068,0.15438 2.07932,0.86986 3.18052,1.06017c3.09568,0.53499 6.67175,-0.79674 9.72595,0.03668c1.52467,0.41604 2.73819,1.63023 4.24069,2.12035c2.66257,0.86853 6.01941,-1.7966 8.50806,-2.15703c1.53906,-0.2229 3.11017,-0.02281 4.66525,-0.03422h3.18052c0,0 2.65043,0 2.65043,2.65043zM371.561,290.53291c8.06446,-1.1298 16.12262,-2.63204 24.19096,-3.21392c3.26322,-0.23534 6.51991,-0.5961 9.78986,-0.7032c1.79773,-0.05888 3.59802,-0.04928 5.3961,-0.00171c0.72496,0.01918 1.49168,0.46802 2.16624,0.20175c3.20009,-1.26321 0.86488,-2.32002 1.65809,-4.68041c0.45018,-1.33962 1.46367,-2.42058 2.27613,-3.57694c0.27417,-0.39024 1.32755,-0.72875 0.97361,-1.04843c-0.9041,-0.81657 -2.34874,-0.68181 -3.4548,-1.19252c-1.6042,-0.74073 -3.09858,-1.69922 -4.64786,-2.54882c-4.64786,-2.54882 -9.29572,-5.09766 -13.94359,-7.64649c-1.54928,-0.84961 -3.12945,-1.64521 -4.64786,-2.54882c-1.15619,-0.68806 -2.03969,-2.01734 -3.36942,-2.22233c-0.64614,-0.09961 -3.55301,3.07326 -3.76107,3.28326c-2.04355,2.06258 -4.28923,5.01815 -6.68544,6.63704c-1.30956,0.88474 -2.91971,1.25276 -4.24069,2.12035c-1.97039,1.2941 -3.14711,3.53803 -4.97646,5.02486c-0.37474,0.30458 -1.46251,0.03615 -1.35695,0.50738c0.18653,0.83266 1.43503,1.01709 1.86373,1.75488c0.62038,1.06766 0.80022,2.3364 1.19367,3.50685c0.69464,2.0664 1.0795,4.22234 1.57575,6.34724z"/><path d="M435.18751,293.02142c-2.81249,0 -2.81249,-2.81249 -2.81249,-2.81249l0.02152,-3.02775c-2.68632,-10.60905 -1.03386,-21.84906 -2.25044,-32.62851c-0.31021,-2.74859 -1.1304,-5.45261 -1.14607,-8.21862c0,0 0,-2.81249 2.81249,-2.81249c2.81249,0 2.81249,2.81249 2.81249,2.81249c-0.01764,2.53721 0.82781,5.00914 1.10393,7.53134c1.18081,10.78587 -0.42536,22.01851 2.24954,32.62131l0.02152,3.72223c0,0 0,2.81249 -2.81249,2.81249z"/><path d="M435.26777,301.23223c1.76777,1.76777 0,3.53553 0,3.53553l-0.26777,-0.76777c-0.02178,2.29445 -0.42244,4.60728 -1.12829,6.79057c0,0 -0.79057,2.37171 -3.16228,1.58114c-2.37171,-0.79057 -1.58114,-3.16228 -1.58114,-3.16228c0.57624,-1.66365 0.89357,-3.44895 0.87171,-5.20943l1.73223,-2.76777c0,0 1.76777,-1.76777 3.53553,0z"/></g></g></svg>