<svg version="1.1" xmlns="http://www.w3.org/2000/svg" xmlns:xlink="http://www.w3.org/1999/xlink" width="867.13135" height="639.08325" viewBox="0,0,867.13135,639.08325"><g transform="translate(189.65576,135.39972)"><g data-paper-data="{&quot;isPaintingLayer&quot;:true}" fill="#ccff66" fill-rule="nonzero" stroke="none" stroke-width="0.5" stroke-linecap="butt" stroke-linejoin="miter" stroke-miterlimit="10" stroke-dasharray="" stroke-dashoffset="0" style="mix-blend-mode: normal"><path d=""/><path d="M-121.95312,-64.40625c-2.10147,-1.50054 -3.98631,-3.62161 -5.57177,-6.1245c-2.90457,-3.8793 -4.70828,-8.63055 -4.9478,-13.7904c-0.91904,-6.623 0.10846,-13.26614 3.87895,-17.63197c2.04611,-2.36917 4.27145,-4.59452 6.64063,-6.64062c5.90156,-5.0968 22.00872,-4.43983 30.17658,-3.72495c0.75547,-0.4177 1.51486,-0.7528 2.27654,-0.99515c12.77873,-4.06596 24.14605,-1.68862 33.09375,8.67188c2.39537,2.77359 1.51637,7.33423 3.47831,10.4296c0.44585,0.70342 1.65742,-0.17458 2.47917,-0.3099c1.96004,-0.32276 4.11566,-0.82294 6.13136,-0.76642c4.14003,0.11607 9.27776,0.76433 13.41741,2.07235c1.54923,0.48952 3.08667,1.02748 4.58033,1.6668c0.30651,0.13119 0.46019,0.83535 0.74693,0.66523c3.43034,-2.03519 5.92645,-5.5628 9.57273,-7.17955c10.52297,-4.66585 18.46214,-2.88923 28.89003,-0.17669c0.76071,0.19788 1.67184,-0.09362 2.33513,0.32814c1.64467,1.04577 2.66496,2.92232 4.34106,3.91693c1.70885,1.01405 6.63664,-0.82246 8.62942,-0.32881c1.55952,0.38632 4.08381,1.49391 6.71148,2.94774c3.43291,-0.46736 7.07704,-0.665 10.99082,-0.81231c15.43132,-0.58079 28.38684,-1.23869 44.0093,-1.82123c13.47767,-0.50256 35.69609,-3.55484 48.74971,-5.014c16.74226,-1.87148 39.02719,-1.19656 55.8656,-1.16478c8.66617,0.01636 17.43833,0.38523 26.07614,1.08636c9.54052,0.77439 19.18328,3.69308 28.63347,2.17152c31.45813,-5.06504 62.98468,-15.12465 94.70628,-17.20764c21.52398,-1.41336 43.01381,-4.01912 64.58411,-4.05024c18.19834,-0.02625 36.40154,-0.41204 54.59507,0.00708c12.73197,0.29331 25.47882,1.60391 38.19522,0.90941c0.91247,-0.04983 1.64614,-4.53882 2.33471,-5.41649c5.40928,-6.89484 8.86376,-10.38331 17.23455,-12.64568c1.07071,-0.28938 2.17928,0.47645 3.28786,0.51125c3.08026,0.0967 13.03922,1.29349 15.80572,3.54068c2.74678,2.23118 5.143,4.89909 7.32129,7.68801c0.37434,0.47927 0.05306,1.36738 0.52891,1.74605c0.27521,0.21901 0.54161,-0.44951 0.79856,-0.68967c1.6804,-1.57058 4.39578,-4.28663 6.39811,-5.52564c3.37417,-2.08788 15.94896,-4.45742 19.99386,-3.45546c6.83097,1.69211 13.03152,5.52426 17.59989,10.87733c2.87048,3.36353 2.76551,11.35376 4.72109,14.60149c0.17103,0.28403 0.6624,-0.09592 0.99251,-0.06508c2.3661,0.221 6.74303,0.2463 8.92635,1.28437c8.92588,4.24383 10.9124,6.25978 15.02453,15.2471c0.67889,1.48375 0.66045,4.16283 0.74925,5.81233c0.12625,2.34515 0.44945,4.7243 0.08928,7.04506c-0.80716,5.20092 -1.64404,12.01947 -4.0033,17.23002c-1.54119,3.40381 -3.64257,6.57722 -4.79859,10.13037c-0.52333,1.60849 1.18774,6.13218 1.20515,8.16747c0.12856,15.03406 -0.22514,21.00167 -2.13736,36.61712c-0.04189,0.34207 -0.09961,0.71256 -0.17074,1.10256c6.56847,-0.12725 12.8974,0.79663 16.78556,3.09418c16.59429,9.80571 16.59429,33.94429 0,43.75c-3.12616,1.84728 -7.53539,0.8186 -10.4936,2.92436c-0.25447,0.59666 -0.53147,1.1814 -0.82993,1.75317c-2.69951,5.17144 -7.15488,9.28086 -12.57516,11.53732c0.8456,6.74169 1.09249,13.37139 1.36206,18.63209c0.21656,4.22612 0.3613,8.50749 0.53746,12.73549c0.32268,7.74429 0.55669,15.47482 0.73708,23.20059c0.2371,-3.6683 0.78057,-7.28202 2.88708,-10.84688c7.59122,-12.84669 23.40393,-15.979 36.32813,-8.59375c6.96266,3.97866 10.39123,13.5605 10.54688,21.09375c0.47792,23.13116 -4.64563,43.65671 -10.99863,65.86571c-5.39004,18.84266 -8.35459,38.17392 -11.22952,57.57222c-0.85174,5.74705 -1.23749,11.55383 -1.92476,17.32286c-0.00159,0.01333 -0.61481,2.68514 -0.49188,2.81553c2.75753,2.92482 6.88673,4.60443 9.00547,8.02049c1.995,3.21656 2.53012,7.22992 2.79508,11.00565c0.81447,11.60615 -8.64331,21.16498 -11.88132,31.49854c-0.96112,3.06725 -1.21578,6.34456 -1.27444,9.55833c-0.01796,0.984 -0.04284,1.96933 -0.07349,2.95581c1.88252,2.22354 3.81553,4.65342 3.94849,4.88487c0.83144,1.44732 0.87485,3.23157 1.51827,4.77171c0.4494,1.07572 1.48325,1.89595 1.74216,3.03266c0.26251,1.15249 -0.94434,7.88417 -0.13544,8.74478c1.8327,1.94985 4.81279,2.34299 7.18034,3.59017c4.89629,2.57927 9.40414,7.06783 13.28228,10.54626c19.08874,17.12137 20.05799,41.38371 14.69572,64.91811c-3.41437,14.9853 -12.51871,27.6589 -23.25731,38.20574c-3.36837,3.30822 -8.49053,6.14644 -12.03352,8.49182c-0.53892,0.35675 -3.48601,1.5733 -3.59043,1.8773c-2.74476,7.99027 -6.82568,13.71575 -12.9906,19.56756c-0.68458,0.64981 -1.03103,1.70888 -1.88328,2.11456c-3.4051,1.62085 -7.11944,2.70247 -10.86238,3.16313c-2.59188,0.319 -15.22076,-3.0634 -17.99393,-5.43006c-5.35307,-4.56837 -9.18522,-10.76893 -10.87733,-17.59989c-0.18385,-0.7422 0.38301,-1.48707 0.45501,-2.2483c0.38669,-4.08843 0.03182,-8.20968 -0.09295,-12.31905c-6.87609,-1.14944 -11.98804,-5.04548 -16.00905,-10.44513v24.20749c-1.11039,11.10386 -8.51264,31.36024 -22.30437,31.13544c-5.94119,-0.09684 -8.64797,0.62648 -12.60133,-1.41835c-2.25422,-1.16598 -4.53561,-2.28475 -6.73363,-3.55349c-0.58036,-0.33499 -0.88844,-1.33263 -1.55588,-1.273c-2.68425,0.23985 -5.11859,2.32626 -7.8048,2.1094c-11.30616,-0.91273 -16.3492,-3.14865 -21.875,-12.5c-4.56495,-7.7253 -3.21327,-20.73473 -3.125,-28.5c0.01321,-1.16233 0.0512,-2.32694 0.11214,-3.4933c-14.25916,0.00081 -28.51832,0.0007 -42.77747,-0.00061c-0.68344,6.86647 -4.14518,12.91518 -9.24496,17.00589c-1.23298,1.46228 -2.69246,2.67093 -4.48725,3.50228c-0.84045,0.3893 -1.81799,0.35569 -2.72699,0.53354c-1.61385,0.5769 -3.30434,0.99261 -5.05208,1.22772c-1.11145,0.24273 -2.22968,0.41634 -3.36468,0.41904c-0.777,0.00185 -1.56007,-0.11192 -2.34474,-0.30307c-4.11081,-0.38238 -7.93279,-1.76004 -11.22262,-3.88969c-0.02394,-0.00073 -0.04785,-0.00134 -0.07174,-0.0018c-8.07409,-0.15718 -16.15801,-0.33056 -24.22686,0c-18.3351,0.75114 -29.5358,3.86424 -48.46629,6.67779c-37.61825,5.59102 -76.00682,11.43973 -114.1257,12.26801c-52.97702,1.15113 -106.66512,5.07801 -159.54681,-0.21016c-6.05047,-0.60505 -11.9837,-3.03933 -17.9448,-4.22569c-11.26304,-2.24153 -22.25728,-4.39543 -33.37182,-7.32088c-5.68298,-1.49581 -9.95771,-2.46382 -15.54665,-4.15097c-3.78829,-1.14358 -7.92701,-3.69298 -11.89608,-4.11451c-0.91482,-0.09716 -1.83677,0.62807 -2.72974,0.40687c-3.1211,-0.77313 -6.03806,-2.21875 -9.00614,-3.45546c-0.77488,-0.32287 -3.37591,-2.87464 -3.3855,-2.875c-16.60577,-0.62978 -33.24905,-0.67294 -49.85313,0c-0.92141,0.03734 -0.94309,1.77453 -1.80824,2.09375c-4.68202,1.72754 -9.46256,3.90625 -14.45312,3.90625c-17.6024,0 -26.65184,-15.09422 -24.90377,-29.60859c-2.2533,-3.74767 -3.53615,-8.01082 -3.57749,-13.08026c-0.11959,-14.66618 -0.07739,-29.33354 0,-44c0.05125,-9.71243 3.4705,-19.15691 7.53175,-27.83771l-6.10303,-7.96841l-2.22501,-8.73949l-0.16057,-3.92245l0.00819,-0.1393l-0.38179,-1.8865l0.57377,-1.37704l0.79983,-13.59716l0.19198,-1.20166l0.06854,-1.21497l0.26548,-1.68775c-7.94055,-4.16977 -13.59683,-10.63755 -15.89959,-19.93372c-0.64075,-2.58668 0.34348,-11.56035 0.46099,-13.79917c0.39886,-7.59934 0.89136,-15.32324 2.39496,-22.79354c1.13299,-5.62902 3.50636,-11.12174 3.51326,-16.86364c0.00145,-1.20572 -2.58398,-0.15034 -3.49187,-0.94375c-2.85007,-2.49067 -5.49633,-5.33513 -7.42187,-8.59375c-1.60761,-2.72057 -3.09846,-8.70204 -3.125,-12.5c-0.21211,-30.35659 -0.33209,-40.59089 0.20006,-57.581l-11.10575,-3.70192l-3.31109,-1.48428l-0.09863,-0.03277l-0.08388,-0.04905l-0.08867,-0.03975l-0.08399,-0.06121l-3.13234,-1.83162l-7.63031,-5.54931l-0.70071,-0.10827l-2.00479,-1.85937l-0.66419,-0.48305l-2.92937,-2.61346l-0.54623,-0.74299l-2.18092,-2.02272l-1.06423,-2.39138l-1.55042,-2.1089l-0.67709,-2.89644l-0.37494,-0.84251l-0.81961,-3.83922l-0.09069,-0.81625l-0.62241,-2.66253l0.25298,-0.66236l-0.53987,-4.85887l-0.0017,-0.15454l-0.30697,-1.20871l0.27446,-1.7497l-0.00893,-0.81255l0.63234,-3.16171l0.49967,-3.18537l0.28928,-0.75936l0.34734,-1.7367l0.7059,-1.02806l0.05502,-0.14442l7,-14l2.09631,-3.31916l0.27444,-0.28207l0.18928,-0.34505l2.55927,-2.97683l21,-20l0.8355,-0.65024l0.00229,-0.00271l1.13036,-0.87878l1.12991,-0.87936l0.00319,-0.00155l0.83584,-0.64981l16.71598,-10.50719c1.25952,-5.18123 2.55499,-10.95563 3.8788,-17.8822c0.02471,-0.12929 -3.58336,-1.21255 -3.74362,-1.35095c-2.39851,-2.07144 -6.40173,-5.62824 -7.42187,-8.59375c-4.54159,-13.20222 -2.85116,-22.73612 -0.93195,-36.60087c0.8197,-5.92166 1.66826,-12.40663 3.38088,-18.17195c0.81982,-2.75983 3.79755,-5.0859 4.74504,-7.74106c3.2946,-9.23248 7.37387,-18.05487 11.7042,-26.88211c-0.16093,-0.10257 -0.31974,-0.20962 -0.47631,-0.32141z"/></g></g></svg>