<svg version="1.1" xmlns="http://www.w3.org/2000/svg" xmlns:xlink="http://www.w3.org/1999/xlink" width="311" height="205.04044" viewBox="0,0,311,205.04044"><g transform="translate(-93,-103.95956)"><g data-paper-data="{&quot;isPaintingLayer&quot;:true}" fill="#9966ff" fill-rule="nonzero" stroke="none" stroke-width="0.5" stroke-linecap="butt" stroke-linejoin="miter" stroke-miterlimit="10" stroke-dasharray="" stroke-dashoffset="0" style="mix-blend-mode: normal"><path d=""/><path d=""/><path d=""/><path d="M93,202.5c0,-2.5 2.5,-2.5 2.5,-2.5h1c6.20131,0 13.07039,1.08871 18.53822,-2.52811c4.03405,-2.66841 5.34838,-6.83297 2.21601,-10.74602c-1.01611,-1.26936 -2.21534,-2.38061 -3.32301,-3.57092c-6.25303,-9.17914 -14.20451,-19.13616 -17.13679,-30.05022c-1.74109,-6.4804 -0.79443,-13.96349 -0.79443,-20.60473c0,-5.96123 0.09163,-15.48749 4.93568,-19.9501c0.48744,-0.44906 8.78356,-2.43165 8.95798,-2.47525c0,0 2.42536,-0.60634 3.0317,1.81902c0.60634,2.42536 -1.81902,3.0317 -1.81902,3.0317c-1.6169,0.40423 -3.22179,0.85998 -4.85071,1.21268c-0.7211,0.15613 -1.65553,-0.19518 -2.19131,0.31207c-0.76537,0.72462 -0.89779,1.91362 -1.21961,2.91726c-1.49653,4.66718 -1.84471,8.26995 -1.84471,13.13263c0,6.13153 -1.02284,13.31665 0.61978,19.29476c2.81574,10.24755 10.36683,19.5967 16.22495,28.2482c2.5328,2.74858 3.62895,3.33186 4.94797,6.46027c0.88874,2.10788 2.00199,5.4565 1.07901,7.78734c-1.74663,4.41085 -6.23644,7.94457 -10.50434,9.55414c-5.23632,1.9748 -11.37122,1.15529 -16.86737,1.15529h-1c0,0 -2.5,0 -2.5,-2.5z"/><path d="M169,147.5c0,2.5 -2.5,2.5 -2.5,2.5h-2c-3.17431,0 -6.61447,0.26588 -9.90978,0.19866c0.17572,1.71635 0.31811,3.43103 0.40453,5.13939c0.16851,3.33128 -0.20684,6.67752 0.00042,10.0066c0.44232,7.10459 1.97407,14.08536 2.00483,21.15534c0,2.33333 0,4.66667 0,7v1c0,0 0,2.5 -2.5,2.5c-2.5,0 -2.5,-2.5 -2.5,-2.5c0,-2.33333 0,-5.66667 0,-8c0.03516,-6.93444 -1.56057,-13.86406 -1.99517,-20.84466c-0.11963,-1.92155 0.09962,-7.98509 0.00042,-9.9934c-0.10238,-2.0727 -0.29167,-4.15488 -0.52387,-6.2381c-0.44989,-0.19762 -0.90177,-0.38754 -1.38184,-0.45613c-3.6992,-0.52847 -7.82132,-0.25447 -11.48208,-1.16649c-2.87299,-0.71577 -5.49112,-2.40648 -8.42292,-2.81996c-6.08639,-0.85836 -12.03095,0.18703 -18.18483,-1.02982c0,0 -2.45145,-0.49029 -1.96116,-2.94174c0.49029,-2.45145 2.94174,-1.96116 2.94174,-1.96116c6.00815,1.21661 11.85107,0.10943 17.81517,0.97018c3.0756,0.44388 5.84784,2.13756 8.86185,2.89395c3.53795,0.88788 7.5508,0.60786 11.14347,1.10696c-0.27617,-2.0987 -0.55729,-4.19099 -0.7981,-6.26818c-1.16858,-10.0802 0.04389,-20.85583 -3.83387,-30.32299c0,0 -0.92848,-2.32119 1.39272,-3.24967c2.32119,-0.92848 3.24967,1.39272 3.24967,1.39272c3.95884,10.0997 2.90899,21.00541 4.16613,31.67701c0.31042,2.63513 0.67842,5.29458 1.0189,7.96088c3.4412,0.16059 7.15467,-0.20941 10.49377,-0.20941h2c0,0 2.5,0 2.5,2.5z"/><path d="M207,131.5c0,-2.5 2.5,-2.5 2.5,-2.5l3.40046,0.03228c1.37234,0.49365 2.9695,0.58085 4.11703,1.48095c4.88017,3.8279 3.98252,10.66642 3.98252,15.98677c0,11.80036 -4.41245,23.38188 -12.73223,31.76777c-1.05089,1.05089 -5.31104,5.35981 -5.81106,5.54193c-4.69807,1.71117 -8.59446,-1.1623 -10.98481,-4.84792c-3.51714,-5.42298 -2.4719,-11.312 -2.47189,-17.46178c0,-0.54068 -0.00987,-7.9978 0.03218,-8.34934c0.4804,-4.01608 2.13521,-10.12058 6.51111,-11.96036c1.21722,-0.51176 2.63662,-0.16056 3.95671,-0.1903c4.91596,-0.11075 8.97184,0.75427 13.6868,2.09619c0,0 2.40381,0.6868 1.71701,3.09061c-0.6868,2.40381 -3.09061,1.71701 -3.09061,1.71701c-4.3963,-1.26128 -7.79152,-1.76223 -12.3132,-1.90381c-0.68371,-0.02141 -1.39842,-0.41846 -2.04329,-0.1903c-2.38182,0.84268 -3.27946,6.14969 -3.45005,7.84544c-0.38679,3.84504 -0.00666,7.97964 -0.00666,11.84486c0,2.47531 -0.63022,5.01527 -0.06688,7.42562c0.38768,1.65875 4.01839,7.75474 6.61017,6.26468c1.76778,-1.01632 2.74708,-3.0162 4.18894,-4.45807c7.43204,-7.36233 11.26777,-17.7989 11.26777,-28.23223c0,-4.24648 1.34439,-11.08652 -3.90046,-12.53228l-2.59954,0.03228c0,0 -2.5,0 -2.5,-2.5z"/><path d="M278.26393,178.61803c-1.11803,-2.23607 1.11803,-3.3541 1.11803,-3.3541l1.35027,-0.5317c1.77449,-1.76372 5.7468,-5.32737 6.37504,-7.95669c0.3313,-1.3866 -0.08625,-2.85007 -0.10727,-4.27554c-0.03262,-2.21265 0.66422,-5.7539 -0.27735,-7.85912c-3.10494,-6.94225 -8.56853,-10.03351 -14.6094,-14.06076c-2.91492,-1.94328 -5.29689,-4.1856 -8.91283,-4.59814c-0.66725,-0.07613 -1.27607,-0.10587 -1.85123,-0.09935c0.63412,6.308 -0.78259,13.29153 -0.35403,19.46202c0.48662,7.00632 1.66509,13.98752 2,21c0.4319,9.04323 1.2752,17.37907 4.68298,25.86925l0.73428,0.67593c0,0 1.61017,1.91242 -0.30226,3.52259c-1.91242,1.61017 -3.52259,-0.30226 -3.52259,-0.30226l-1.55182,-2.03931c-3.58724,-8.99705 -4.58348,-17.84093 -5.03093,-27.41552c-0.32767,-7.01163 -1.51676,-13.99375 -2,-21c-0.43461,-6.30125 0.55385,-12.71874 -0.07817,-18.90149c-0.3001,0.06551 -0.61128,0.13176 -0.93638,0.1976c0,0 -2.45145,0.49029 -2.94174,-1.96116c-0.49029,-2.45145 1.96116,-2.94174 1.96116,-2.94174c0.34675,-0.06855 0.67989,-0.13727 1.00195,-0.20517c-0.2311,-0.8112 -0.50624,-1.61645 -0.83285,-2.4149c0,0 -0.92848,-2.32119 1.39272,-3.24967c2.32119,-0.92848 3.24967,1.39272 3.24967,1.39272c0.44142,1.12491 0.98541,2.21726 1.42617,3.34238c1.07284,-0.08195 2.21003,-0.0653 3.55221,0.10411c4.59098,0.57949 7.402,2.94508 11.08717,5.40186c6.89383,4.59589 13.18628,8.44615 16.53555,16.51417c1.14417,2.75617 0.61344,6.65901 0.5777,9.56595c-0.02346,1.90834 0.36916,3.87639 -0.10727,5.72446c-0.90473,3.50946 -5.19844,7.60359 -7.62496,10.04331l-2.64973,1.4683c0,0 -2.23607,1.11803 -3.3541,-1.11803z"/><path d="M399,306.5c0,-1.38071 1.11929,-2.5 2.5,-2.5c1.38071,0 2.5,1.11929 2.5,2.5c0,1.38071 -1.11929,2.5 -2.5,2.5c-1.38071,0 -2.5,-1.11929 -2.5,-2.5z"/></g></g></svg>