<svg version="1.1" xmlns="http://www.w3.org/2000/svg" xmlns:xlink="http://www.w3.org/1999/xlink" width="483.00001" height="16.36061" viewBox="0,0,483.00001,16.36061"><g transform="translate(4.25526,-88.5)"><g data-paper-data="{&quot;isPaintingLayer&quot;:true}" fill="#9966ff" fill-rule="nonzero" stroke="none" stroke-width="0.5" stroke-linecap="butt" stroke-linejoin="miter" stroke-miterlimit="10" stroke-dasharray="" stroke-dashoffset="0" style="mix-blend-mode: normal"><path d=""/><path d=""/><path d=""/><path d=""/><path d=""/><path d=""/><path d=""/><path d=""/><path d=""/><path d="M478.74473,91c0,2.5 -2.5,2.5 -2.5,2.5l-4.99408,-0.00001c-2.93836,0.00509 -5.83836,0.67089 -8.75958,0.98784c-3.64375,0.39535 -7.57311,0.01217 -11.24634,0.01217c-7.19922,0 -14.40087,0.05711 -21.59954,-0.03228c-2.30043,0.79413 -4.66836,1.70331 -7.095,2.01355c-1.25428,0.16036 -2.54611,-0.24268 -3.7933,-0.03429c-0.83301,0.13918 -1.49405,0.81531 -2.30443,1.05311c-4.85057,1.42338 -9.66363,2.68729 -14.56605,3.91616c-3.46346,0.86817 -3.26466,1.60337 -7.33621,2.06502c-5.93168,0.67255 -12.3278,0.01873 -18.30546,0.01873c-11,0 -22,0 -33,0c-6.00851,0 -11.43397,-1.1581 -17.30546,-2.01873c-6.22016,-0.91173 -12.87811,0.98912 -19.095,-0.01355c-1.04064,-0.16784 -1.96031,-0.82632 -3,-1c-4.25193,-0.7103 -8.75762,-0.31578 -13,-1c-1.04064,-0.16784 -1.9613,-0.82049 -3,-1c-3.59172,-0.62073 -7.94407,0.03228 -11.59954,0.03228c-8.4289,0 -17.48371,-0.93625 -25.84486,0.00666c-1.65812,0.18699 -3.24809,0.81873 -4.9088,0.98117c-4.28609,0.41925 -8.92825,0.01217 -13.24634,0.01217c-9.66667,0 -19.33333,0 -29,0c-8.66667,0 -17.33333,0 -26,0c-4.09154,0 -8.66489,-0.60939 -12.69454,-0.01873c-3.34742,0.49066 -6.61076,1.52694 -9.905,1.98645c-3.5963,0.50164 -7.42024,-0.52492 -11,0c-1.04294,0.15293 -1.95936,0.83216 -3,1c-0.53826,0.08681 -5.11761,0.01096 -6,0c-6.87913,2.29304 -14.14181,2.03228 -21.40046,2.03228c-6.92147,0 -14.43725,0.82371 -21.30546,-0.01873c-1.36415,-0.16732 -2.64016,-0.80068 -4,-1c-5.23923,-0.76795 -10.86101,0.85611 -16.095,-0.01355c-0.54625,-0.09076 -5.15163,-1.70615 -6,-2c-3.66316,0 -6.32568,-1.47503 -9.905,-1.98645c-5.92999,-0.84728 -12.69853,0.01873 -18.69454,0.01873c-13,0 -26,0 -39,0c0,0 -2.5,0 -2.5,-2.5c0,-2.5 2.5,-2.5 2.5,-2.5c13,0 26,0 39,0c6.2072,0 13.16328,-0.8586 19.30546,0.01873c3.75677,0.53661 6.31957,2.01355 10.095,2.01355c2.00596,0.64852 3.92072,1.65207 6,2c5.14447,0.86084 10.72429,-0.73599 15.905,-0.01355c1.3612,0.18982 2.63667,0.82614 4,1c6.64198,0.84704 13.9942,-0.01873 20.69454,-0.01873c7.02064,0 13.94474,0.25055 20.59954,-1.96772c1.99991,-0.01899 4.02921,0.34059 6,0c1.0387,-0.17951 1.95602,-0.85438 3,-1c3.5963,-0.50164 7.42024,0.52492 11,0c3.35833,-0.49245 6.67878,-1.53717 10.095,-2.01355c4.25848,-0.59384 8.99285,-0.01873 13.30546,-0.01873c8.66667,0 17.33333,0 26,0c9.66667,0 19.33333,0 29,0c4.1483,0 8.63554,0.42515 12.75366,0.01217c1.65639,-0.16611 3.2422,-0.79873 4.89701,-0.97999c8.54718,-0.93622 17.73836,-0.03218 26.34934,-0.03218c10.80272,0 20.8864,1.21523 31.40046,3.03228c6.10403,1.0549 12.75393,-0.8713 18.905,-0.01355c5.67282,0.79106 10.90014,1.98127 16.69454,1.98127c11,0 22,0 33,0c5.78261,0 11.95462,0.64126 17.69454,0.01873c2.67435,-0.29005 4.13691,-1.30184 6.66379,-1.93498c4.81755,-1.2071 9.54115,-2.45141 14.31095,-3.8411c0.97907,-0.28525 1.81392,-1.0146 2.81856,-1.18963c1.38147,-0.24068 2.81474,0.13555 4.2067,-0.03429c1.61253,-0.19675 5.32679,-1.47573 6.905,-1.98645c7.46627,-0.07088 14.93387,-0.03228 22.40046,-0.03228c3.50604,0 7.27711,0.40112 10.75366,0.01217c3.07935,-0.34451 6.14194,-0.98921 9.24042,-1.01216l5.00592,-0.00001c0,0 2.5,0 2.5,2.5z"/><path d=""/></g></g></svg>