<svg version="1.1" xmlns="http://www.w3.org/2000/svg" xmlns:xlink="http://www.w3.org/1999/xlink" width="898.44901" height="642.40257" viewBox="0,0,898.44901,642.40257"><g transform="translate(167.98886,137.69764)"><g data-paper-data="{&quot;isPaintingLayer&quot;:true}" fill-rule="nonzero" stroke="none" stroke-width="0.5" stroke-linecap="butt" stroke-linejoin="miter" stroke-miterlimit="10" stroke-dasharray="" stroke-dashoffset="0" style="mix-blend-mode: normal"><path d="M410.5,187c-1.90613,-0.01026 -4.20564,-0.32579 -6.06339,-0.74644c-55.73518,-12.62 -141.24969,-3.43665 -178.38017,-3.25356c-14.99841,0.07396 -29.55522,5.95376 -44.55644,6c-21.50807,0.06629 -43.01697,-0.16493 -64.52451,0c-5.55889,0.04263 -11.34146,1.74093 -17,2c-2.98408,0.13662 -6.4803,2.22967 -9.19072,3.21192c-5.90498,2.13994 -12.02681,4.70152 -18.22138,6.04165c-7.17292,1.55178 -14.22459,1.492 -21.5879,1.74644c-3.0933,0.10689 -6.17058,1.50942 -9.29646,1.82201c-1.62519,0.16252 -3.24362,0.32469 -4.85729,0.48536c-5.11653,1.87454 -10.17459,3.88213 -15.41605,5.40972c-10.79213,3.14529 -25.0702,3.00424 -36.20385,-1.93743c-1.20747,0.02465 -2.41281,0.09009 -3.61489,0.22035c-2.00798,0.21759 -3.57437,2.39414 -5.5931,2.33046c-14.88722,-0.46961 -27.53927,-8.11048 -28.64962,-23.93292c-0.98315,-14.00987 9.92826,-25.57373 22.66191,-28.728c1.1355,-0.28128 2.32406,0.33721 3.49386,0.33046c2.84785,-0.01643 5.69613,0.01128 8.54432,0.03621c-3.17098,-2.73101 -7.66141,-4.68915 -8.905,-8.63302c-4.2436,-13.45805 -3.34067,-20.27127 5.02052,-30.93071c1.2757,-1.62635 -7.2366,-34.91931 -9.69794,-44.60446c-2.25416,-8.86989 -2.4632,-19.26223 -0.54367,-27.9444c0.72522,-3.28024 1.56756,-6.26549 2.93873,-9.32426c0.13497,-0.30108 1.321,-2.21257 1.25873,-2.36938c-0.14403,-0.36272 -0.81109,-0.11102 -1.1157,-0.35499c-2.95421,-2.3662 -6.71586,-4.13557 -8.59375,-7.42187c-5.20833,-9.11458 -5.20833,-19.79167 0,-28.90625c3.95981,-6.92967 13.5738,-10.42775 21.09375,-10.54687c6.91684,-0.10957 13.84319,0.32806 20.75311,0c5.34055,-0.25355 14.34973,-1.98112 21.24689,-2c14.696,-0.04022 29.39875,0.44157 44.08817,0c3.37,-0.1013 25.31909,-4.38117 26.1566,-4.54405c21.96679,-4.27209 43.72937,-9.45798 65.65637,-13.93046c8.91963,-1.81935 18.63714,-2.36907 27.27955,-3.35056c28.43851,-3.22967 56.21479,-4.22893 84.8193,-4.17493c17.66892,0.03336 31.23956,1.83495 48.70767,3.05415c26.94414,1.88059 53.39171,2.8629 80.09376,7.23655c9.84149,1.61198 19.47925,4.96915 29.33257,6.79589c14.85723,2.75443 37.21422,-1.16918 54.40153,1.16466c6.02381,0.81797 10.02121,2.51391 15.62665,3.68779c3.08062,0.64514 8.99012,1.65966 11.81324,4.09781c2.43351,2.10167 5.03102,4.06417 7.11833,6.51001c0.49636,0.58162 0.32246,1.50137 0.59849,2.21443c1.14842,2.96664 3.95378,6.42309 4.44319,9.54307c0.76592,4.88273 -0.50409,12.70886 -2.77476,17.09882c-1.89108,3.65609 -6.47605,7.10515 -9.66205,9.71187l-3.60488,13.33806c-1.36458,1.1785 -3.56973,1.8103 -4.09375,3.53551c-1.82781,6.01767 0.9728,12.03971 1,18.01136c0.06781,14.88752 0.85724,29.8033 -0.05537,44.66298c-0.92164,15.00674 -2.10831,29.39869 -1.94463,44.52246c0.06625,6.12191 4.70101,12.15149 5.15576,18.41702c0.6561,9.0396 -4.87416,19.51401 -12.18034,24.36068c-0.40033,0.26557 -9.20117,4.29325 -10.48157,4.36732c-1.77196,0.10251 -3.44851,-0.9304 -5.21897,-1.05622c-1.77046,-0.12582 -3.57623,0.6596 -5.31589,0.30753c-4.84009,-0.97954 -9.90393,-6.6392 -12.7079,-9.85247c-0.76651,-0.8784 -2.00669,-1.32961 -2.61177,-2.32611c-0.7819,-1.28769 -1.30616,-2.83364 -1.68954,-4.50987c-15.2969,6.05728 -36.05631,3.17611 -48.94978,3.10668z" fill="#ff6666"/><path d="M539.61646,460.29853c-10.3572,-3.80149 -23.2319,-2.28639 -33.49997,0.59716c-15.55644,4.36867 -31.29986,8.14967 -46.60955,13.31701c-15.22669,5.13933 -29.9268,11.72377 -44.89696,17.56837c-15.1711,5.92305 -34.03925,14.34667 -51.24898,12.71893c-4.44172,-0.42011 -10.73566,-0.23715 -14.36101,-3.125c-2.96054,-2.35828 -5.87408,-4.78944 -8.59375,-7.42187c-3.27483,-3.16978 -3.11639,-8.59713 -4.06201,-13.05558c-0.43261,-2.03969 0.75153,-4.10598 0.96935,-6.17964c0.68025,-6.47597 4.76591,-12.16115 10.19721,-16.88745h-32.85504l-0.59349,-0.05935l-0.59564,0.03105l-41.78412,-1.98972l-32.78398,-0.99345l-0.7013,-0.09166l-0.70721,0.00914l-23,-2l-0.81127,-0.153l-0.82442,-0.04372l-2.26008,-0.3477c-0.20849,0.75229 -0.45127,1.49032 -0.72654,2.21231c-0.44467,1.99787 -1.0954,3.89822 -2.27397,5.54877c-2.47524,3.46651 -5.51655,5.80558 -8.90532,7.37958c-3.6059,2.01736 -7.76287,3.16729 -12.18843,3.16729c-0.79363,0 -1.57862,-0.03698 -2.35334,-0.10931c-5.71611,0.2841 -11.56481,-0.05305 -16.86996,0.10931c-8.88842,0.27203 -18.35587,2.77296 -26.85949,4.48098c-5.04508,1.01335 -10.15569,1.70832 -15.16717,2.87655c-10.37058,2.41749 -20.4117,6.6306 -30.9486,8.35177c-18.35126,2.99762 -36.42749,4.01398 -54.72902,4.28709l-4.68582,0.89254l-2.34013,0.20777l-2.33767,0.23377h-37.62536l-2.04962,0.56821l-2.27113,-0.76282l-1.96014,-0.19601l-8.59375,-2.73437l-1.16422,-1.00546l-0.20328,-0.06828l-0.38423,-0.43912l-6.84202,-5.90902l-0.25501,-0.94352c-6.69543,-1.8056 -13.50735,-3.76722 -20.73435,-6.00299c-12.55795,-3.88497 -25.02222,-7.41398 -37.70059,-10.72824l-2.2163,0.22163h-3l-1.24556,-0.12456l-2.2483,0.45501l-1.45771,-0.60738c-0.25324,-0.00156 -0.50572,-0.01812 -0.75722,-0.05354c-4.9418,-0.69593 -10.1201,-1.43024 -14.45312,-3.90625c-0.90568,-0.51753 -1.76163,-1.15169 -2.56532,-1.87922l-10.00621,1.25078l-2.34814,-0.67509l-0.82132,0.05475l-1.38753,-0.6898l-4.1102,-1.18168l-3.46688,-1.84178l-0.02331,-0.01554l-0.9987,-0.14773l-2.25235,-2.0621l-0.44987,-0.36954l-0.71755,-0.35672l-0.24605,-0.4348l-1.34569,-1.10539l-0.77629,-0.97036l-2.58734,-2.36879l-0.90277,-1.99385l-1.36727,-1.70909l-0.93715,-3.38043l-0.51256,-1.13204l-0.76799,-3.48711l-0.81581,-2.94275l0.32144,-0.95702l-1.582,-13.44697l-0.02554,-1.46404l-0.1457,-1.45699v-38l0.10187,-1.01871l-0.01831,-1.02362l5,-61l0.25478,-1.38865l0.13395,-1.40547l14,-71l0.25027,-0.82554l0.14075,-0.85108l4.54408,-16.83981l-0.35865,-7.05336l-3.87836,-50.41868l-4.94669,-27.56015l-1.37956,-5.17335l-0.0066,-0.04065l-0.01439,-0.03858l-4.58235,-17.41293l-1.08035,-3.42112l-0.36004,-1.72118l-0.46024,-1.69713l-1,-6l-0.1192,-1.81785l-0.09169,-0.76684l0.02391,-0.26678l-0.06989,-1.06586l0.43863,-3.04849l0.41237,-4.60115l0.34079,-0.63327l0.09258,-0.64344l2.17271,-3.56607l1.19598,-2.22245c-0.35738,-9.24282 -0.80441,-18.49964 0.55438,-27.60967c1.94034,-13.00904 3.97786,-26.00343 6,-39c0.28433,-1.82741 1.61916,-6.71003 1.398,-6.82296c-3.091,-1.57843 -6.91928,0.9576 -10.38433,0.75983c-1.00328,-0.05726 -1.68354,-1.12232 -2.61409,-1.50171c-2.25517,-0.91944 -4.79583,-1.16718 -6.90758,-2.38032c-2.04892,-1.17704 -4.91992,-6.35165 -5.96901,-7.94264c-1.04909,-1.59099 -4.67437,-6.26823 -4.94913,-8.61514c-0.28319,-2.41888 0.48992,-4.85171 0.53317,-7.28672c0.01785,-1.00475 -0.70139,-2.0526 -0.35055,-2.99428c4.8278,-12.95797 12.73693,-15.85267 22.6071,-24.95369c1.52839,-1.40928 2.88174,-3.95605 4.3643,-5.73073c1.19498,-1.43044 3.29487,-2.41369 3.63904,-4.24554c0.18679,-0.99421 -1.69398,-1.10675 -2.52513,-1.68342c-2.8474,-1.97559 -5.61006,-3.92277 -8.02312,-6.45751c-7.13436,-7.49414 -12.66433,-25.60708 -4.20312,-33.79687c2.71967,-2.63243 5.63321,-5.06359 8.59375,-7.42187c4.16758,-3.31977 11.78165,-3.15558 16.78695,-3.125c17.76671,0.10854 35.53996,0.45686 53.30113,0c0.83336,-0.02144 4.09893,-1.92169 5.34852,-2.25356c6.66435,-1.76995 14.986,-3.62974 21.4419,-5.10622c22.47759,-5.14066 34.00435,-6.66018 57.76207,-10.34052c49.46811,-7.66317 98.99369,-8.75679 148.94535,-6.2761c6.60402,0.32797 16.79889,2.63421 20.86993,3.29087c7.71968,1.24519 14.01963,2.43541 21.51963,3.68553c6.7489,1.12492 15.20714,0.88887 20.96532,5.61813c0.90091,0.73993 1.1722,2.03145 1.93337,2.91448c2.78443,3.23022 7.67107,9.04355 7.95628,13.97353c0.10251,1.77196 -0.9304,3.44851 -1.05622,5.21897c-0.03181,0.44757 -0.00538,0.8974 0.04619,1.34785c37.11165,0.03395 74.22364,-0.10521 111.33536,-0.07297c6.53205,0.00567 13.64448,1.001 20.10997,2.34015c1.46468,0.30337 2.83559,1.60075 4.29837,1.28835c9.8695,-2.10781 19.08956,-6.74937 29.05612,-8.37724c27.67195,-4.51975 44.92259,-3.94512 68.85443,5.04923c21.57069,-17.69147 29.0739,-25.37755 54.95421,-30.47736c10.59363,-2.08751 23.33361,0.17295 32.8466,4.89447c2.01941,1.00228 3.98891,3.7333 5.27794,5.17804c0.70612,0.79142 1.00336,2.43612 2.06389,2.42174c9.84428,-0.13341 19.88608,-0.90796 27.12423,6.48036c0.27725,0.283 0.75872,-0.23242 1.14677,-0.31226c4.9944,-1.0276 9.99077,-2.0473 15,-3c10.874,-2.06812 18.25567,2.96925 25.7888,9.518c0.74502,0.64767 1.86708,0.92828 2.36751,1.77922c7.14009,12.14119 2.99547,29.72836 -7.58537,38.94743c-4.86663,4.24029 -9.41404,9.1079 -14.48179,13.12882c-1.97711,1.5687 -4.91513,2.32751 -6.01451,4.59933c-0.79787,1.64878 1.27646,3.44527 1.67991,5.23197l0.22245,0.56901c2.33333,8.33333 4.70766,16.6553 7,25c2.21992,8.08108 4.15197,23.95678 4.58575,26.63077c1.9357,11.93242 3.04557,27.5141 -2.79693,38.95661l0.77651,0.89912l1.49176,0.62157l0.88163,0.90612l0.14294,0.05702l0.3569,0.45672l4.90746,5.04378l2.09631,3.31916l0.10071,0.20143l0.41361,0.47891l0.30476,0.95783l0.01318,0.02637l1.0258,1.31268l0.10739,1.55711l0.43209,1.13422l0.28789,1.83527l0.56327,1.77027l0.39063,3.90625v0.40454l0.15576,0.993l-0.15576,0.61332v3.98913l-0.39062,3.90625l-0.12038,0.37834l-0.27024,3.91853l-1.64728,2.10795l-0.69647,2.18892l-5.89245,6.82284l-5.50568,24.77557l-2.47687,12.73817v4.16342l-0.19463,1.94626l-0.1113,1.9528l-5.99687,37.98018l-0.62989,4.03129l0.62832,-0.04597l4.61715,2.6524l5.14035,1.38928l2.68017,3.10335l0.54437,0.31273l0.54492,0.94856l3.65241,4.22911l1.51827,4.77171l1.74216,3.03266l-0.25563,3.49366l0.1202,1.20197v22l-0.21254,2.12542l0.01466,0.26936l-0.11691,0.75311l-0.07584,0.75835l-0.08179,0.25706l-0.32766,2.11074l-7,27l-0.1532,0.41538l-0.08331,0.43482l-0.42258,1.4214l2.33689,2.83976l2.48296,2.21139l0.73559,2.89637l0.11565,0.22205l2,5l0.77851,2.69884l0.10813,0.25034l0.08394,0.41549l0.11748,0.40727l0.01974,0.27198l0.55621,2.75326l1,10v1.24689l0.12407,1.2407v25l-0.13402,1.3402l-0.0108,1.34684l-4,37l-0.3532,1.67884l-0.24842,1.69751l-2.77233,11.08931c14.39373,-2.23952 28.91271,-4.01088 41.53013,-4.46928c13.18791,-0.47914 45.80747,-4.41991 58.75902,6.46374c14.75645,12.40038 10.7881,36.21052 -7.19246,43.15473c-8.5064,3.28523 -13.93779,-0.39847 -22.38849,-0.56331c-8.86417,-0.17291 -17.74243,0.21452 -26.58281,0.88609c-18.97131,1.44119 -37.69862,3.97989 -56.34824,7.27717l-0.47328,0.40874l-1.1298,5.0034l-1.65531,13.24246v1.44356l-0.39062,3.90625l-2.73437,8.59375l-7.42187,8.59375l-14.45312,3.90625l-14.45312,-3.90625l-7.42187,-8.59375l-1.24292,-3.90633c-2.88858,-0.22426 -5.63946,-0.93945 -8.16929,-2.06224c-3.36187,-1.04853 -6.44615,-2.84996 -9.75209,-4.06337zM489.34539,26.02504c-2.47666,1.18033 -10.14721,3.53321 -10.14364,3.82137c0.04656,3.7596 5.38653,5.24979 7.97592,7.97592c9.72203,10.23539 10.49068,24.86466 0,35.35534c-3.52886,3.52886 -8.16732,6.14466 -12.98204,7.45777c-15.5439,4.23925 -27.63216,-13.37129 -36.57142,-21.65589c-0.11685,-0.10829 -0.23439,-0.21665 -0.3526,-0.32508c-1.01378,0.23201 -2.04059,0.381 -3.08202,0.41375c-2.57334,0.08091 -4.85772,-1.71317 -7.32185,-2.45925c-2.46414,-0.74608 -5.36003,-0.52046 -7.45629,-2.01521c-8.0352,-5.72955 -10.60731,-14.21366 -10.54687,-23.29624c0.09202,-13.82866 0.26776,-26.64824 2.19564,-40.0198c-0.80227,-0.71801 -1.45317,-1.53884 -1.81361,-2.56041c-0.39881,-1.13031 -0.81945,-2.25424 -1.23868,-3.37872c-3.55984,-0.40494 -6.89279,-1.55753 -9.838,-3.2969c-0.33403,-0.07514 -0.66893,-0.14657 -1.00485,-0.21369c-7.15297,-1.42933 -14.58921,-1.42573 -21.72377,-2.9233c-29.18324,-6.12568 -58.84932,-11.23752 -88.76943,-11.21705c-37.94273,0.02596 -64.63261,3.83354 -104.79828,8.63122c-37.79984,4.51509 -40.2674,5.22526 -78.30052,10.90456c-13.46267,2.01032 -27.11115,4.07291 -40.68811,5.19482c-0.10672,0.00882 -25.90468,2.6726 -38.26317,3.0703c-2.84875,0.09167 -20.89962,0.91297 -32.1474,1.00357l1.13891,7.97236l0.07485,1.77138l0.17642,1.76416v18l-0.05935,0.59349l0.03105,0.59564l-1,21l-0.07924,0.53422l0.00487,0.54004l-1.80987,19.90853l1.13963,2.59007l0.35942,1.10363l0.47479,1.05914l11,33l0.04388,0.19434l0.0786,0.18307l12,38l0.08663,0.41413l0.15371,0.39418l11.78311,42.2228l3.28976,9.3993l0.65219,-0.13044l11.42286,-2.85572l0.42052,-0.06154l0.40464,-0.12996l13.75557,-2.94762l16.27165,-3.82862l16.46148,-4.57263l14.97144,-5.61429l1.37544,-0.36457l1.33926,-0.48076l15.59589,-3.89897l13.59948,-3.88556l1.54567,-0.27908l1.52093,-0.39211l13,-2l1.01684,-0.05392l1.00342,-0.17325l14,-1l0.0595,0.00169l0.0587,-0.00985l15,-1l0.83333,0.02759l0.82965,-0.08296h133.4051l20.37611,-0.97029l19.90118,-0.99506l16.9687,-0.94271l14.04481,-1.87264l0.76684,-0.02523l0.75607,-0.13054l13.50931,-0.96495l8.51107,-0.94567l1.38379,-0.01521l1.377,-0.1377h5.68544l3.02979,-1.21192l3.77194,-1.08806l0.8216,-0.05963l0.78498,-0.24977l3.90625,-0.39062h21l1.90529,0.19053l0.21971,-0.69053l1.17244,-1.35756l1.56498,-3.10098l2.14844,-1.19876l2.53602,-2.93644l5.28819,-1.42924l3.10154,-1.73057l3.08485,0.05857l0.35766,-0.09667c-1.58019,-6.52962 -1.91036,-13.52984 -1.72336,-19.70834c0.13578,-4.4862 1.03491,-11.12842 3.90625,-14.45312c2.04611,-2.36917 4.27145,-4.59452 6.64063,-6.64062c0.08224,-0.07102 0.17465,-0.14275 0.27664,-0.21506l0.03551,-0.04112c1.33033,-2.1023 2.96558,-3.99248 4.8436,-5.60838l1.84425,-2.13544l1.84456,-0.49853c0.27488,-0.16086 0.5531,-0.31662 0.83455,-0.46715l1.07994,-6.83963l0.10053,-0.38367l0.03508,-0.39507l1.9506,-10.24064l-1.96394,-10.47434l-0.13541,-1.57659l-0.24964,-1.56258l-1,-17l0.03011,-0.73554l-0.07325,-0.73251v-19.22859c-2.26908,1.08675 -4.53922,2.17125 -6.81037,3.25364zM85.62217,236.4775l-2.22061,0.5225h2.7431z" fill="#ff3939"/><path d="M114.68259,264.59984c-1.96771,0.17312 -3.9126,0.01506 -5.82955,-0.36393c-2.97664,-0.43506 -5.78298,-1.39466 -8.32219,-2.78196c-2.37559,-1.03175 -4.69077,-2.1612 -6.93415,-3.14427c-3.03241,-1.32884 -11.59393,-0.9576 -13.63116,-0.80967c-20.10838,1.46016 -39.39963,9.75624 -56.37572,20.40594c-14.08859,8.83827 -36.89874,26.47839 -49.64717,39.62167c-6.33593,6.53216 -9.66307,15.58336 -18.72537,19.21761c-13.84975,5.55414 -28.29309,-1.60429 -34.03425,-15.33804c-2.91368,-6.96998 -0.26439,-13.63004 2.42932,-19.8156c6.04472,-13.88047 27.06828,-31.16316 37.13564,-39.38333c22.00266,-17.96554 43.52189,-32.73937 67.51033,-42.54439c-1.5226,-0.55349 -3.02044,-1.23726 -4.49569,-2.0422c-16.59975,6.99453 -46.43642,26.86321 -58.01791,35.74864c-15.37571,11.7964 -29.36849,25.30286 -44.43213,37.49525c-1.20191,0.97282 -6.63478,5.87034 -9.0589,7.0406c-6.0757,2.9331 -12.62728,5.84032 -19.70568,3.20092c-13.94737,-5.20072 -21.66411,-19.35363 -16.6548,-33.40962c3.9109,-10.97387 20.6049,-20.6544 28.60529,-27.41188c4.6943,-3.96501 8.76174,-7.46633 12.42496,-10.63572c-3.86093,1.82198 -8.19214,2.85013 -12.42345,2.85013c-14.42468,0 -21.46893,-8.53197 -24.60937,-21.09375c-2.56139,-10.24557 2.6528,-31.71062 5.61594,-41.92872c4.23378,-14.59978 7.09399,-29.7009 12.9701,-43.72052c14.6123,-34.86302 28.47835,-69.77542 42.89784,-104.75498c1.30895,-3.17532 3.23537,-6.01111 4.46762,-9.28589c1.62614,-4.32158 1.85864,-10.49068 4.2972,-14.61932c1.10894,-1.87752 4.60874,-4.06692 5.60132,-5.69868c2.12121,-3.48717 3.54607,-7.29741 5.3526,-10.95751c3.89463,-7.89067 6.41577,-16.75906 12.14239,-23.44012c8.4267,-9.83115 18.54288,-14.31209 31.44471,-7.86118c4.4637,2.23185 8.41207,5.80509 11.18034,9.95749c2.09955,3.14932 2.17462,7.27184 2.79508,11.00565c0.16543,0.99554 -0.89238,2.07483 -0.46918,2.991c0.31826,0.689 1.61401,1.20731 2.16967,0.69035c9.25792,-8.61305 13.78612,-21.36915 27.62744,-25.45828c3.70636,-1.09497 10.56906,-3.32353 14.67983,-1.64186c1.89013,0.77323 3.3166,2.40772 5.12396,3.35845c1.80737,0.95073 3.96239,1.20022 5.67038,2.3197c2.34761,1.53872 4.03095,4.86799 5.25424,8.03755c0.99792,-10.52216 5.24689,-21.0773 11.65365,-28.49087c2.06775,-2.3927 4.69331,-6.18227 7.51963,-7.93115c7.55182,-4.67295 18.46013,-6.20583 27.3754,-5.32445c2.99592,0.29618 5.97205,0.80368 8.97633,0.99737c0.64074,0.04131 1.3004,-0.5167 1.90333,-0.29596c3.52625,1.29099 6.80165,3.18468 10.19879,4.78487c3.42415,1.61292 5.40535,5.33194 7.72158,8.3255c1.26262,1.63185 -2.15372,10.01627 3.02808,8.05497c9.57878,-3.62555 17.06878,-11.32529 25.66134,-16.89893c9.84261,-6.3845 22.17291,-10.04775 33.67339,-11.7025c10.65174,-1.53262 23.01474,1.29724 32.00253,7.05939c3.50658,2.2481 6.89163,6.63353 9.75152,9.84471c1.47764,1.65915 3.09891,3.24643 4.19733,5.17767c0.35535,0.62477 0.04439,2.43588 0.65379,2.05478c2.77818,-1.73739 3.89911,-5.30768 6.26349,-7.57628c3.62605,-3.47915 8.72565,-6.25951 13.71386,-7.30896c8.92404,-1.87749 20.58936,6.0834 25.85454,12.92727c1.97783,2.57085 2.60446,7.8989 2.79508,11.00565c0.09626,1.56881 -0.2574,3.14198 -0.18016,4.71184c0.00133,0.02708 -0.04407,0.09793 -0.02735,0.07659c24.80838,-31.66555 23.91558,-32.87183 45.37408,-54.06856c1.114,-1.10042 1.89906,-2.5824 3.22454,-3.41608c3.35161,-2.10804 14.61523,-5.26696 19.14876,-4.04169c1.71345,0.46309 2.97733,1.97317 4.61715,2.6524c1.63982,0.67924 3.6013,0.50515 5.14035,1.38928c1.41771,0.81443 2.20897,4.79034 3.33065,3.60078c9.3276,-9.89204 21.88264,-27.96504 36.63086,-33.45984c0.94167,-0.35084 1.98953,0.3684 2.99428,0.35055c2.43502,-0.04325 4.86784,-0.81636 7.28672,-0.53317c2.34691,0.27476 7.02415,3.90003 8.61514,4.94913c1.59099,1.04909 6.7656,3.92009 7.94264,5.96901c1.21313,2.11175 1.46087,4.65241 2.38032,6.90758c0.37939,0.93054 1.45324,1.61035 1.50171,2.61409c0.18256,3.78061 -0.36589,7.56814 -0.82864,11.32476c-0.07443,0.60422 -1.40405,1.54962 -0.80213,1.64078c2.66683,0.40389 5.55084,-0.06059 8.02925,1.00366c2.23238,0.9586 3.58203,3.28933 5.48514,4.7995c1.90311,1.51017 4.58058,2.22438 5.92034,4.25107c7.64421,11.56358 3.30526,26.8045 -3.92159,37.48053c2.07679,1.73488 3.86775,3.80048 5.29191,6.11586c3.4633,3.93027 4.39938,9.32186 3.63294,14.78623c-0.11891,1.76372 -0.42074,3.4773 -0.88668,5.12192c5.996,2.22359 11.69718,5.84365 14.48797,11.69781c0.59133,1.24043 1.59041,1.32904 1.84117,2.62238c0.57563,2.96887 1.75615,-5.78918 2.73989,-8.64887c1.02014,-2.96551 5.02337,-6.52231 7.42188,-8.59375c1.71543,-1.48151 4.30814,-1.41454 6.43196,-2.20633c8.61585,-3.21212 20.10315,-1.52598 27.47429,4.20633c6.91414,5.37691 10.73337,14.14837 10.54688,22.46045c-0.17671,7.87578 0.04839,15.75568 0,23.6333c-0.05148,8.38011 -2.82492,24.32661 -3.19305,27.10087c-1.02185,7.70057 -5.66983,20.57189 -6.80695,24.47056v84.43017c1.30847,16.35583 2.03074,24.64632 1.82623,39.73614c-0.04521,3.33578 -1.08664,9.60083 -3.57281,12.47956c-9.52723,11.03152 -22.76373,13.58064 -35.70654,6.87645c-3.36089,-1.74089 -5.15133,-5.5654 -7.42187,-8.59375c-1.49684,-1.99642 -2.75368,-6.78135 -3.46719,-8.66686c-4.96496,-13.12026 -6.54021,-19.28932 -8.86404,-30.56004c-3.6386,4.70865 -8.91998,8.08323 -14.98532,9.26491c-1.79679,0.72761 -3.67683,1.12022 -5.67727,1.0175c-4.04679,-0.20779 -7.54018,-1.44891 -10.64904,-3.36098c-1.59728,-0.8306 -3.09359,-1.82856 -4.4657,-2.97065c-0.24806,0.64823 -0.49984,1.29477 -0.75622,1.93923c-2.49584,6.27367 -7.34109,14.59561 -9.31271,18.84359c-3.26331,7.031 -4.28835,11.96268 -9.85434,17.37824c-8.09925,7.88035 -20.57343,7.10464 -30.49635,3.97574c-4.34667,-1.37059 -6.63214,-6.29581 -9.47181,-9.86068c-3.30469,-4.14864 -3.19235,-11.79235 -3.125,-16.78695c0.1615,-11.97678 0.09772,-17.5604 0.27856,-23.25098c-1.90406,2.08361 -3.80296,4.16656 -5.68611,6.25141c-3.23085,3.5769 -10.53261,13.4712 -15.61702,16.24966c-2.25114,1.23017 -7.56074,4.1536 -10.48157,4.36732c-2.72332,0.19927 -5.48276,0.16526 -8.18949,-0.19502c-0.94516,-0.12581 -1.86018,-2.14914 -2.48034,-1.42488c-10.49403,12.2557 -11.07963,29.21562 -31.49901,29.85765c-2.57334,0.08091 -4.85772,-1.71317 -7.32185,-2.45925c-2.46414,-0.74608 -5.36003,-0.52046 -7.45629,-2.01521c-12.04996,-8.5923 -12.82343,-25.15239 -7.42187,-37.59375c0.3175,-0.73129 0.66515,-1.44512 1.03848,-2.1441c-8.20472,10.92412 -17.47199,21.77811 -25.41106,26.42899c-8.45657,4.95404 -17.13682,1.72385 -25.08898,-2.30409c-0.90706,-0.45944 -1.72989,-1.123 -2.38756,-1.89844c-1.00982,-1.19066 -1.12538,-4.58643 -2.54327,-3.93299c-2.73099,1.25858 -3.34093,5.00191 -5.08758,7.44968c-3.09256,4.33391 -9.69444,10.86919 -13.1919,12.99471c-4.3844,2.66455 -15.38381,5.14235 -21.06272,3.60751c-1.40868,-0.38072 -2.29175,-1.85559 -3.61748,-2.46534c-1.32572,-0.60975 -2.99869,-0.35292 -4.22605,-1.14217c-1.31255,-0.84403 -1.52731,-3.83673 -3.05993,-3.54308c-3.82117,0.73214 -6.86857,3.57899 -10.21049,5.64324c-0.01665,0.72861 -0.10823,1.45599 -0.28418,2.17847c0.00514,0.20858 0.00772,0.4178 0.00772,0.62762c0,9.11086 -4.87365,17.08341 -12.15612,21.45284c-1.09754,1.85843 -1.97012,1.51357 -4.04462,1.95468c-2.54118,0.95573 -5.27917,1.50951 -8.13651,1.58387c-1.90079,0.18792 -3.62,0.07 -5.80038,-0.51982c-2.61024,-0.54523 -5.07098,-1.49755 -7.31281,-2.78753c-0.20504,-0.09109 -0.40948,-0.18346 -0.61335,-0.27704c0.14157,1.05006 0.13504,2.11943 -0.04907,3.20208c0.07466,0.78691 0.11285,1.58446 0.11285,2.39092c0,8.73619 -4.48105,16.42578 -11.27008,20.89567c-2.57398,2.28686 -6.08114,3.72323 -11.54733,4.20416zM-56.75356,181.56339c-0.42885,-1.85799 -0.7263,-4.15603 -0.74644,-6.06339c-0.05767,-5.46127 2.72659,-21.11701 0,-16.38473c-6.24231,10.83421 -7.5449,23.84293 -11.18877,35.80406c-2.61875,8.59613 -1.0636,19.36721 -5.72152,27.2317c8.37295,-7.20621 15.22248,-12.84899 24.79447,-19.44086c-4.33094,-5.89015 -5.60143,-14.49076 -7.13774,-21.14678zM305.59116,150.49506c1.26944,-1.82623 2.26079,-3.83086 3.40155,-5.74012c0.53931,-0.90263 2.28674,-3.52633 1.65792,-2.6836c-2.52391,3.38252 -6.63335,9.54486 -11.58115,16.57024c2.25473,-2.66483 4.54963,-5.30953 6.52167,-8.14652z" fill="#ff4646"/><path d="M446.93067,238.77573c1.94985,1.95462 3.25365,4.406 4.19022,7.0664c1.52589,3.23297 2.37911,6.84578 2.37911,10.65786c1.1328,6.80697 -1.74641,12.34145 -6.24368,16.52924c-4.24641,3.95419 -9.93541,6.70774 -15.05172,8.19817c-4.42395,1.28875 -9.35876,0.43668 -13.66782,2.06891c-21.44428,8.12289 -54.04816,3.97624 -72.96772,4.20368c-2.64915,0.03185 -5.37211,0.98714 -8.06906,1c-13.66651,0.06514 -27.33385,0.11888 -41,0c-25.77821,-0.22424 -34.87319,-33.65448 -12.5,-46.875c2.75254,-1.6265 8.68812,-3.09024 12.5,-3.125c12.97644,-0.11833 25.95549,0.19962 38.93094,0c2.65421,-0.04083 5.36874,-0.98954 8.06906,-1c16.97685,-0.06575 33.95651,0.2946 50.93094,0c5.19425,-0.09015 9.21494,-2.77793 14.16281,-3.60938c5.20332,-0.87438 9.96051,-1.07785 15.33169,-1.97304c1.48309,-0.27424 3.01208,-0.41758 4.57456,-0.41758c3.56096,0 6.94804,0.74451 10.01406,2.08637c2.98017,1.00394 5.77087,2.53715 8.41661,5.18937z" fill="#ff4646"/></g></g></svg>