<svg version="1.1" xmlns="http://www.w3.org/2000/svg" xmlns:xlink="http://www.w3.org/1999/xlink" width="45.0661" height="53.05164" viewBox="0,0,45.0661,53.05164"><g transform="translate(-218.96695,-159.0018)"><g data-paper-data="{&quot;isPaintingLayer&quot;:true}" fill="#9966ff" fill-rule="nonzero" stroke="none" stroke-width="0.5" stroke-linecap="butt" stroke-linejoin="miter" stroke-miterlimit="10" stroke-dasharray="" stroke-dashoffset="0" style="mix-blend-mode: normal"><path d="M221.73223,211.26777c-1.76777,-1.76777 0,-3.53553 0,-3.53553l0.39606,-0.0228c1.65641,-4.86632 4.65987,-9.01968 7.20943,-13.46425c0.78242,-1.36396 1.21704,-2.92967 2.13417,-4.20696c2.46115,-3.42765 5.70555,-6.23535 8.8851,-9.11046c-1.75347,-1.68973 -3.03334,-3.84992 -4.75985,-5.57685c-2.89768,-2.8984 -6.70896,-5.25577 -9.76445,-7.9881c-1.54047,-1.37753 -3.14653,-2.88848 -5.12327,-3.49111c0,0 -2.37171,-0.79057 -1.58114,-3.16228c0.79057,-2.37171 3.16228,-1.58114 3.16228,-1.58114c2.58445,0.91319 4.81919,2.69787 6.87673,4.50889c3.1759,2.79538 7.05482,5.27012 10.04423,8.25885c1.73525,1.73485 2.95158,3.97155 4.78737,5.59457c1.6265,-1.64415 3.13665,-3.38696 4.39526,-5.33799c2.73414,-4.23832 3.88725,-9.89369 10.10584,-10.15262c1.31717,-0.05484 2.52705,0.75219 3.79057,1.12829c0,0 2.37171,0.79057 1.58114,3.16228c-0.79057,2.37171 -3.16228,1.58114 -3.16228,1.58114c-0.73648,-0.29057 -1.42101,-0.79942 -2.20943,-0.87171c-3.12506,-0.28652 -4.76401,6.11148 -5.89416,7.84738c-0.96987,1.48971 -2.18569,2.80469 -3.32126,4.17231c-0.44288,0.53338 -0.9077,1.05365 -1.38918,1.56397c3.85542,2.87032 7.91368,5.49382 11.57566,8.59197c0.28444,-0.11 0.62388,-0.17563 1.02895,-0.17563c2.5,0 2.5,2.5 2.5,2.5l-4.26777,3.76777c-4.30431,-4.32478 -9.59627,-7.51344 -14.48034,-11.17271c-3.11764,2.82383 -6.37984,5.56516 -8.72379,8.86672c-0.81569,1.14893 -1.16891,2.56842 -1.86583,3.79304c-2.34571,4.12188 -5.3223,8.01345 -6.79057,12.53575l-1.60394,1.9772c0,0 -1.76777,1.76777 -3.53553,0z"/></g></g></svg>