<svg version="1.1" xmlns="http://www.w3.org/2000/svg" xmlns:xlink="http://www.w3.org/1999/xlink" width="116.01608" height="131.03308" viewBox="0,0,116.01608,131.03308"><g transform="translate(-180.98442,-63.50001)"><g data-paper-data="{&quot;isPaintingLayer&quot;:true}" fill="#9966ff" fill-rule="nonzero" stroke="none" stroke-width="0.5" stroke-linecap="butt" stroke-linejoin="miter" stroke-miterlimit="10" stroke-dasharray="" stroke-dashoffset="0" style="mix-blend-mode: normal"><path d="M186.70943,194.37171c-2.37171,-0.79057 -1.58114,-3.16228 -1.58114,-3.16228l1.06201,-3.16614c3.42284,-6.8565 6.29987,-14.23777 8.82262,-21.54329c-1.83764,0 -3.67528,0 -5.51292,0h-2c0,0 -2.5,0 -2.5,-2.5c0,-2.5 2.5,-2.5 2.5,-2.5c1.65577,0 3.4349,0 5.27612,0c-0.39198,-0.64549 -0.74033,-1.32807 -1.20948,-1.91503c-1.48362,-1.85618 -3.17178,-3.84209 -3.53531,-6.19037c-0.6666,-4.30599 0.36691,-5.28559 0.94338,-9.37458c-0.60795,-0.51401 -0.84643,-1.22946 -0.84643,-1.22946c-1.54427,-4.6554 -1.6466,-8.65557 -2.11573,-13.44683c-0.78036,-7.96994 -3.96704,-15.31077 -4.01256,-23.34374l-0.73607,-0.88197c0,0 -1.11803,-2.23607 1.11803,-3.3541c2.23607,-1.11803 3.3541,1.11803 3.3541,1.11803l1.26393,3.11803c-0.05431,7.81277 3.20864,15.07725 3.98818,22.85052c0.01088,0.10846 0.02148,0.21637 0.03184,0.32377c0.23356,-10.09539 5.4864,-19.39864 9.45515,-28.64531c-0.47517,-0.70254 -0.47517,-1.52898 -0.47517,-1.52898c0,-3.33651 -0.44744,-7.00592 0.01873,-10.30546c0.38453,-2.72171 1.61635,-5.27817 2,-8c0.55784,-3.95767 0.98127,-7.6372 0.98127,-11.69454v-2c0,0 0,-2.5 2.5,-2.5c2.5,0 2.5,2.5 2.5,2.5v2c0,4.24778 -0.42241,8.18306 -1.01873,12.30546c-0.37756,2.61009 -1.50925,5.07175 -1.94816,7.66977c0.00171,-0.00113 0.00342,-0.00225 0.00512,-0.00333c0.85644,-0.54714 6.6998,-0.47782 8.46178,-0.47189c3.24541,0.01092 5.47595,0.66625 8.03571,1.33288c0.14987,-1.74804 0.23986,-3.50569 0.49753,-5.23918c0.30967,-2.08335 1.65143,-3.9168 1.99904,-5.99415c0.59225,-3.53937 0.14542,-6.55249 1.04236,-10.20588l-0.07464,-0.39366c0,0 0,-2.5 2.5,-2.5c2.5,0 2.5,2.5 2.5,2.5l-0.07464,1.60634c-0.90845,3.5595 -0.37524,6.28898 -0.95764,9.79412c-0.34587,2.0816 -1.71287,3.91547 -2.00096,6.00585c-0.24691,1.79166 -0.35023,3.60387 -0.51702,5.4061c1.32498,0.07853 2.67407,-0.04155 3.97597,0.21192c2.03714,0.39662 4.03448,0.93049 6.03201,1.47793c1.52971,-2.9419 4.04624,-6.61199 4.57456,-9.90271c0.73431,-4.57371 -0.03228,-9.95459 -0.03228,-14.59954v-2c0,0 0,-2.5 2.5,-2.5c2.5,0 2.5,2.5 2.5,2.5v2c0,4.89551 0.79208,10.58246 -0.03228,15.40046c-0.55499,3.24363 -2.40846,6.47691 -4.05128,9.48471l1.1956,1.20344c0.0721,0.05046 0.14429,0.10089 0.21656,0.15131c0.52426,0.10704 1.0515,0.20576 1.58239,0.29411c0,0 2.0576,0.34293 2.10051,2.28181c1.44399,1.04038 2.85493,2.12653 4.15579,3.32136c0.96426,0.88566 2.2438,1.65899 2.6424,2.90611c0.2631,0.82317 0.24993,3.56936 0.1899,5.97286c1.96482,0.12482 3.93422,0.22901 5.86004,0.50985c2.34597,0.34212 4.70399,0.60646 7.04082,1.00628c2.07799,0.35553 3.92072,1.65207 6,2c2.73673,0.45794 5.62679,-0.57649 8.324,0.07499c1.16826,0.28218 2,1.33333 3,2l2.27554,-0.10727c0,0 2.5,0 2.5,2.5c0,2.5 -2.5,2.5 -2.5,2.5l-3.72446,-0.10727c-1,-0.66667 -1.83686,-1.69741 -3,-2c-2.47636,-0.64422 -5.15181,0.4944 -7.676,0.07499c-2.07967,-0.34555 -3.91877,-1.66396 -6,-2c-2.3133,-0.37351 -4.64057,-0.65477 -6.95918,-0.99372c-1.30133,-0.19024 -2.60467,-0.31541 -3.90614,-0.42167c0.24083,0.34551 0.45249,0.70606 0.59974,1.09985c0.56213,1.50332 0.25704,3.26001 0.90204,4.72967c0.43132,0.98278 1.58343,1.47157 2.20388,2.34732c1.08,1.5244 2.11963,3.10316 2.86981,4.81413c1.55111,3.53765 2.12869,7.24345 3.90286,10.79284c0.086,0.17206 0.18312,0.33846 0.28766,0.50102c8.13777,-0.23935 16.27555,-0.47869 24.41332,-0.71804l4.01297,-0.11803c0,0 2.49892,-0.0735 2.57242,2.42542c0.0735,2.49892 -2.42542,2.57242 -2.42542,2.57242c-7.70389,0.22659 -17.79154,0.52328 -26.58852,0.78202c0.02671,1.80104 0.01502,4.22115 0.01502,4.71907c0,3.33333 0,6.66667 0,10c0,0.48363 0.01548,0.99723 0.03907,1.53093c0.14333,-0.02015 0.29674,-0.03093 0.46093,-0.03093c2.5,0 2.5,2.5 2.5,2.5c0,4.11933 -0.53902,8.6147 -0.01873,12.69454c0.51393,4.02994 1.01873,7.16907 1.01873,11.30546v2c0,0 0,2.5 -2.5,2.5c-2.5,0 -2.5,-2.5 -2.5,-2.5v-2c0,-4.03883 -0.4986,-6.7595 -0.98127,-10.69454c-0.08854,-0.72181 -0.14784,-1.45452 -0.18524,-2.19464c-1.49979,0.91198 -3.55953,0.3007 -5.3335,0.38918c-4.30946,0.21493 -8.68439,0 -13,0c-1.20485,0 -2.40575,-0.00936 -3.60331,-0.02889c-0.63998,5.33422 -3.96616,9.93478 -3.89669,15.52889v1c0,0 0,2.5 -2.5,2.5c-2.5,0 -2.5,-2.5 -2.5,-2.5v-1c0.0348,-3.66617 0.85037,-7.40387 2.15529,-10.86737c0.59465,-1.5783 1.43793,-3.15881 1.73673,-4.80525c-6.2987,-0.26232 -12.52739,-0.8414 -18.77578,-1.85702c-0.64427,-0.10472 -1.29419,-0.16243 -1.94703,-0.1953c-0.67888,3.35613 -1.61823,6.63117 -2.20004,10.11636c-0.17471,1.04657 0.25856,2.16362 -0.03604,3.18295c-0.4671,1.61618 -1.4647,3.0291 -2.19705,4.54365l0.26393,-0.11803c0,0 0,2.5 -2.5,2.5c-2.5,0 -2.5,-2.5 -2.5,-2.5l0.26393,-2.11803c0.60098,-1.15212 1.45066,-2.20557 1.80295,-3.45635c0.25459,-0.90392 -0.19205,-1.891 -0.03604,-2.81705c0.54964,-3.26257 1.45768,-6.33159 2.12514,-9.46856c-0.59001,-0.04592 -1.17667,-0.11803 -1.75795,-0.23292c-1.82461,-0.36062 -8.17733,-2.84601 -9.92216,-3.62649c-0.35136,-0.15717 -0.77683,-0.35355 -1.24762,-0.57922c-2.67216,7.86019 -5.72081,15.87177 -9.41854,23.25533l-0.93799,2.83386c0,0 -0.79057,2.37171 -3.16228,1.58114zM209.5,161.5c0,0 2.5,0 2.5,2.5c0,0.85062 -0.28942,1.41181 -0.67131,1.78207c0.34605,0.07887 0.69095,0.15188 1.03417,0.219c0.09368,0.01832 0.70352,0.05633 1.55875,0.10449c0.05269,-0.6919 0.08069,-1.39293 0.07838,-2.10555c0,0 0,-2.5 2.5,-2.5c2.5,0 2.5,2.5 2.5,2.5c-0.00231,0.80689 -0.03922,1.59956 -0.10384,2.38124c0.99342,0.05941 1.76439,0.11269 1.9876,0.14839c8.83321,1.41251 17.59471,1.97037 26.61624,1.97037c4.29645,0 8.71636,-0.30917 13,0c0.85834,0.06195 1.72739,0.76022 2.53822,0.47189c0.43102,-0.15327 -0.00243,-0.91491 -0.00594,-1.37235c-0.00922,-1.19986 -0.02641,-2.39966 -0.03228,-3.59954c-0.01467,-2.9998 0,-6.00016 0,-9c0,-3.32905 -0.06768,-6.67125 0,-10c0.01058,-0.5202 0.17603,-1.0598 0.19761,-1.57826c-0.90029,0.02648 -1.77662,0.05225 -2.62411,0.07718c0,0 -2.49892,0.0735 -2.57242,-2.42542c-0.0735,-2.49892 2.42542,-2.57242 2.42542,-2.57242c0.03034,-0.00089 0.06068,-0.00178 0.09103,-0.00268c-1.328,-3.16536 -1.99386,-6.38554 -3.32723,-9.54169c-1.09331,-2.58793 -3.76274,-4.28145 -4.92631,-6.83856c-0.71589,-1.57326 -0.45083,-3.45822 -1.05912,-5.07614c-0.46188,-1.22849 -1.40084,-2.21984 -2.10127,-3.32977c-0.00149,-0.06768 -0.00251,-0.1354 -0.0031,-0.20316c-1.81661,-0.22816 -3.61728,-0.56392 -5.39107,-1.13738c0,0 -2.37171,-0.79057 -1.58114,-3.16228c0.79057,-2.37171 3.16228,-1.58114 3.16228,-1.58114c1.33919,0.46386 2.71933,0.75904 4.12187,0.96149c0.0662,-1.22579 0.04847,-2.44216 -0.22214,-3.63307c-0.12877,-0.56671 -0.90399,-0.7306 -1.3576,-1.09389c-2.1357,-1.71043 -4.32232,-3.35843 -6.54473,-4.95534c-3.98236,-0.90824 -7.83749,-2.20702 -11.81393,-2.97456c-1.27574,-0.24625 -2.5667,-0.42376 -3.85708,-0.60236c-0.3783,0.65695 -1.14288,1.41376 -2.60725,1.12089c-1.36192,-0.27238 -1.81589,-1.15007 -1.9504,-1.87642c-0.53617,-0.11817 -1.06887,-0.25136 -1.59693,-0.40486c-3.08241,-0.89601 -5.81395,-0.4019 -8.96238,-0.67017c-0.85747,-0.07306 -1.76575,-0.8512 -2.53822,-0.47189c-0.52803,0.25928 0.0574,1.19299 -0.09007,1.76246c-0.42924,1.6576 -0.99898,3.27947 -1.62796,4.87204c-3.87855,9.82037 -10.30055,19.8303 -10.25591,30.58373c-0.93656,4.73887 -1.39057,9.3081 -2.00644,14.05808c-0.38222,2.94794 -2.26947,7.42173 -0.35477,10.38125c1.76186,2.72327 4.29548,5.00341 7.19066,6.81433c3.04327,0 6.02225,0 8.68272,0z"/><path d=""/></g></g></svg>