<svg version="1.1" xmlns="http://www.w3.org/2000/svg" xmlns:xlink="http://www.w3.org/1999/xlink" width="1041.8543" height="736.21819" viewBox="0,0,1041.8543,736.21819"><g transform="translate(115.83052,262.64998)"><g data-paper-data="{&quot;isPaintingLayer&quot;:true}" fill-rule="nonzero" stroke="none" stroke-width="0.5" stroke-linecap="butt" stroke-linejoin="miter" stroke-miterlimit="10" stroke-dasharray="" stroke-dashoffset="0" style="mix-blend-mode: normal"><path d="M128.61186,271.69577l-0.11186,-1.19313v1.59426zM-37.68178,57.39296l-1.05353,-2.58734l-4.32447,-0.72074l5.23745,5.23745l1.23453,1.50887zM129.31296,-34.42203l1.12467,-0.70123l0.05775,-0.08227l0.28215,-0.12967l8.17097,-5.09458l2.69779,0.09975l2.45301,-1.1273l6.72427,1.1107l-32.45817,-120.13253l-0.13239,-0.79893l-1.02166,-1.93726l0.77422,-7.06373l0.13623,-3.08248l0.2611,-0.54263l0.06561,-0.59859l1.51561,-2.6876l3.0811,-6.40332l1.89206,-1.10313l0.53511,-0.60783l40.71578,-37.87515l0.81329,-1.47362l1.87117,-0.95525l2.72591,-2.07054l8.15462,-3.85116l11.3473,-0.41904l1.92216,1.19858l2.2617,0.12658l9.03693,6.87537l4.45052,7.84361l1.03683,3.26232l0.98003,1.85831l-0.18338,1.67313l32.9304,155.98611l6.50172,-5.68901l1.40133,-0.99865l0.14284,-0.14489l0.83634,-0.55291l0.81647,-0.58185l0.18654,-0.08125l1.43544,-0.94898l76,-40l3.63864,-1.47365l0.49408,-0.08808l0.45454,-0.21275l3.82292,-0.89258l3.01196,-0.39286l27.7126,-137.74791l0.60367,-1.96401l0.25214,-1.78254l3.48842,-5.7564l1.18477,-2.13517l0.20604,-0.15988l1.00572,-1.65958l2.78648,-1.28299l4.9728,-3.85867l3.97312,-0.26033l1.867,-0.85963l4.54405,0.43955l4.55549,-0.29849l1.83946,0.91709l3.96314,0.38336l4.85081,4.01095l2.74537,1.36874l0.9538,1.68996l0.20099,0.16619l1.11802,2.17086l3.30832,5.86176l0.19677,1.7895l0.54251,1.98178l29.30774,173.29793l22.62797,-1.04437l14.69981,-2.17775l3.79256,-47.88108l0.34429,-1.90597l0.11894,-0.87936l0.08081,-0.22641l0.15381,-0.85147l1.20568,-2.95753l1.59116,-4.4581l0.4041,-0.43628l0.20346,-0.4991l3.05178,-3.01537l4.05677,-4.37981l0.49214,-0.11481l0.47658,-0.47089l7.77968,-1.45525l5.83178,-1.36052l0.54472,0.16775l0.56025,-0.1048l5.63954,2.01401l7.56409,2.32934l0.42002,0.52197l0.47592,0.16996l3.53313,4.81219l2.6896,3.34244l0.14547,0.51898l0.35194,0.47935l1.07458,4.60996l0.862,3.07532l0.05612,0.86342l0.05457,0.23412l0.0183,0.88718l0.12561,1.93274l-0.99023,28.46913l80.40971,-33.42331l1.34878,-0.40877l1.30836,-0.52394l90,-26l2.77335,-0.50915l0.25889,-0.08237l0.41688,-0.04169l0.41208,-0.07565l0.27158,0.00729l2.80571,-0.28057h3l3.90625,0.39063l0.67328,0.21423l2.24178,0.14159l3.06561,1.54713l2.61308,0.83143l1.35756,1.17244l3.10098,1.56498l1.19876,2.14844l2.93644,2.53602l1.42924,5.28819l1.73057,3.10154l-0.05857,3.08485l0.80501,2.97854l-0.92667,3.42867l-0.10399,5.47694l-2.23369,3.17249l-0.6419,2.37503l-2.62883,2.27035l-1.03267,1.46669l-2.33341,1.44038l-2.59884,2.24445l-2.14051,0.68107l-0.60122,0.37113l-3.69488,1.32637l-2.17985,0.54496l-10.15161,4.22984l-27.39411,11.74033l-24.51955,11.76938l-1.86155,0.67499l-1.83247,0.75034l-35.9928,10.70056l-22.02148,8.6171l-0.17185,0.04818l-0.16005,0.07898l-23.74559,8.9046l-9.74773,3.89909l-0.70732,0.20403l-0.67175,0.30113l-9,3l-1.51635,0.3424l-1.48644,0.45503l-4.15567,0.83113l-10.16929,2.77344l-0.58819,0.0989l-0.56648,0.18668l-2.46738,0.54831l-0.30741,8.83808l1.76033,2.20041l0.3908,0.2325l0.59201,0.8123l0.28605,0.28605l2.48592,3.03835l0.85348,1.65006l1.09417,1.5013l1.60584,3.58227l0.12793,0.38378l0.46179,0.89279l0.04618,0.63111l0.36411,1.09232l0.86469,3.82932l0.00119,0.08711l0.02641,0.08302l0.39063,3.90625v4l-0.14026,1.40259l0.011,0.1227l-0.14219,1.18922l-0.11917,1.19174l-0.03735,0.1174l-0.16735,1.39962l-3.99102,17.9596l-6.99115,31.95957l-0.18877,0.57926l-0.09965,0.60104l-5.69865,21.08502l-2.06659,32.23875l-2.03947,73.61146l28.11924,22.03763l3.4957,-73.90919l-0.13878,-0.65653l0.22763,-1.1465l0.56948,-3.84791l0.41834,-1.1274l0.99586,-5.01582l1.36771,-1.35391l0.35542,-0.95784l7.81959,-8.23351l7.83063,-1.72398l7.76412,-2.00236l10.69712,3.80897l0.75005,0.69369l1.83204,0.58933l3.15585,4.02377l0.88283,0.81649l2.24754,3.17479l0.72136,0.91974l0.17302,0.64835l83.88239,147.74738l223.06883,133.8413l0.72965,0.22468l1.27498,1.08048l2.441,1.81776l0.87292,0.99062l4.07384,3.45238l0.4813,1.71694l0.5342,0.60623l3.55056,10.78565l-2.2342,7.87463l-2.06172,7.92154l-8.52401,7.50186l-0.76765,0.25218l-1.28457,1.23669l-5.26121,0.91362l-1.25439,0.41207l-3.02541,0.33112l-1.64659,0.28593l-0.74294,-0.17581l-105.48749,0.98586l-1.85366,-0.16789l-2.03509,0.09699l-4.27737,-1.59384l-4.36254,-1.34331l-1.55433,-1.31722l-1.57192,-0.99665l-185.07395,-145.04632l-47.82514,93.04164l-0.00013,0.01804l-0.03644,0.05309l-2.40847,4.68556l-2.1332,3.29558l-3.01703,3.03243l-0.87676,1.27751l-0.744,0.35153l-1.72284,1.73163l-10.52962,4.25016l-0.28074,-0.06008l-0.25958,0.12265l-11.22224,-1.73148l-2.07296,-1.29211l-0.80464,-0.17221l-0.6865,-0.62528l-4.24799,24.63835l-0.65486,2.36246l-0.64801,2.36435l-5,13l-1.63704,3.24809l-0.60285,2.23056l-3.58922,3.09978l-1.57483,1.96658l-1.84558,0.98741l-1.58412,1.3681l-2.40083,0.7639l-4.18163,2.23723l-2.2983,-0.23805l-3.61925,0.36192h-34.91821l-1.49966,0.56365l-3.62637,-0.86808l-0.86201,-0.0862l-1.52462,-0.48511l-5.03005,-1.20409l-0.9322,-0.69299l-1.10688,-0.35219l-3.91441,-3.38063l-1.28401,-0.95453l-0.57328,-0.64949l-2.82206,-2.43723l-0.418,-1.5466l-11.44986,-15.92076l-1.74365,2.63809l-1.20252,2.57707l-1.22556,1.09655l-1.83297,2.77324l-2.35592,0.97472l-3.04778,2.72697l-5.28342,0.71991l-3.14727,1.30212l-3.20191,-0.43699l-0.72103,0.09825l-1.40106,0.96323l-0.87795,0.3649l-0.37418,0.28986l-0.47352,0.06247l-1.89944,0.78946l-33,10l-3.85166,0.759l-1.77279,-0.0245l-3.00395,0.87299l-2.96601,-0.95549l-1.27468,-0.01761l-3.21684,-1.42932l-3.35052,-1.07936l-0.96179,-0.8367l-2.20927,-0.98163l-2.45605,0.46139l-1.51437,0.97514l-4.80732,0.21244l-4.72928,0.88843l-1.69672,-0.60446l-3.72378,0.16455l-5.79581,-3.55594l-2.88713,-1.02855l-0.99535,-1.35349l-0.00029,-0.00018l-0.00415,-0.00586l-5.72741,-7.78824l-0.39211,-1.6763l-0.64507,-1.49318l-10.71491,-33.66699l-22.30482,-51.72821l9.54514,73.75792l0.08355,2.87759l0.25805,2.06439l-1.11597,3.88163l-0.72052,3.97408l-1.1465,1.73603l-1.35061,2.54232l-1.82131,2.73196l-1.16217,2.55896l-2.48337,1.52262l-6.06706,4.85364l-3.37535,0.93574l-0.83784,0.5137l-1.10305,0.02437l-5.62609,1.55971l-4.0099,-1.34684l-4.22901,0.09342l-4.90772,-3.16225l-1.0459,-0.3513l-0.64717,-0.73962l-2.94437,-1.89718l-4.34918,-6.4383l-1.91822,-2.19225l-0.3486,-2.7888l-2.24252,-7.62458l-8.08798,13.47997l-0.50071,1.85262l-8.59375,7.42188l-0.09709,0.03089l-0.07645,0.06736l-10.78565,3.55056l-1.84623,-0.52381h-1.69458l-1.24861,-0.12486l-0.36095,0.07299l-0.45316,-0.1544l-1.84353,-0.18435l-8.59375,-2.73437l-1.21922,-1.05296l-2.06198,-0.70257l-2.35697,-3.11379l-2.5773,-2.22585l-1.028,1.00957l-0.8987,0.22797l-2.22057,1.46191l-11.17579,2.00962l-0.10535,-0.04661l-0.11166,0.02832l-10.68191,-3.85144l-1.94462,-1.81289l-0.84788,-0.37515l-0.92299,-1.27577l-2.8809,-2.68574l-2.25554,-3.21308l-19.44946,-34.57681l-49.66263,46.55871l-0.47929,0.367l-1.17843,1.77644l-6.9391,2.85728l-2.65971,1.26874l-0.46791,0.0191l-0.43303,0.17831l-2.94655,-0.04036l-7.4981,0.30605l-1.81327,-1.12093l-0.58884,-0.13296l-3,-1l-0.84578,-0.37914l-2.208,-0.23536l-5.28848,-4.46048l-2.52807,-1.84249l-0.34603,-0.58162l-0.51733,-0.43633l-1.40507,-2.79494l-3.53731,-5.9457l0.12824,-2.2168l-0.23598,-0.89633l-5.54078,-34.82777c-1.12499,-1.38462 -2.19025,-2.82865 -3.3885,-4.14554c-0.52328,-0.57509 -1.4469,-0.83198 -1.74189,-1.55137c-1.07813,-2.62919 -3.86058,-14.30092 -2.96978,-17.89705c0.44748,-1.80648 1.38263,-3.63285 2.32254,-5.4395l-16.15483,-74.95843l-1.43145,0.17561l-4.91194,2.04664l-4.44248,-0.89907l-2.58691,0.31735l-3.69887,-1.58948l-3.94593,-0.79858l-1.9463,-1.73342l-4.16433,-1.78949l-2.87359,-4.47866l-2.19612,-1.95592l-0.6166,-2.42787l-0.44563,-0.69454l-0.5234,-3.12101l-1.20945,-4.76222l0.2718,-1.73274l0.13523,-3.20034l0.917,-6.41897l1.83174,-19.23328v-4.81221l0.15468,-1.54681l0.03837,-1.55405l7.74703,-61.97627l-1.82204,-47.37303l-0.70602,-2.82407l-3.77271,-7.54542l-0.307,-0.80587l-0.40924,-0.75908l-4.0682,-9.76368l-4.65614,-6.9842l-0.17305,-0.32574l-0.22565,-0.29179l-4.43719,-7.0995l-5.36285,-7.15047l-0.15097,-0.24968l-0.19237,-0.21937l-3.79738,-5.31633l-3.78652,-3.78652l-0.94027,-0.62685l-1.90357,-1.56364l-1.9066,-1.55994l-4,-4l-0.55905,-0.68329l-1.28566,-1.06823l-2.38258,-4.65347l-2.40184,-4.64356l-0.12198,-1.66708l-0.23107,-0.85208l-1,-6l-0.14294,-2.17991l-0.05917,-0.26789l-0.00663,-0.73554l-0.04813,-0.73399l0.03907,-0.27155l-0.01968,-2.1845l0.28388,-3.12265l-6.36197,-2.65082l-2.54713,-2.61788l-0.93057,-0.25151l-4.24103,-4.91067l-2.26898,-2.20766l-0.3378,-0.81072l-0.57406,-0.6647l-0.95987,-3.01673l-2.49559,-5.98941l0.45501,-2.2483l-0.12456,-1.24556v-2l0.39063,-3.90625l2.73438,-8.59375l0.36879,-0.42702l0.41246,-1.52611l3.56326,-3.07736l3.07736,-3.56326l1.52611,-0.41246l0.42702,-0.36879l8.59375,-2.73437l3.90625,-0.39062h2l1.76416,0.17642l1.77138,0.07485l4.99124,0.71303l1.47322,-1.9643l1.19963,-1.30548l1.1227,-1.37219l0.51298,-0.51298l0.07094,-0.26248l1.4046,-1.21306l2.01148,-2.01148l3.03835,-2.48592l0.39315,-0.20336l1.74617,-1.50805l3.0386,-0.96683l2.83227,-1.46497l2.30108,-0.16837l0.4218,-0.13421l0.45166,-0.04517l4.6765,-1.75369l2.15904,-0.57228l2.14691,-0.61624l11.9902,-2.18004l0.94955,-0.58614l1.55696,-1.60021l3.18579,-1.32741l1.03137,-0.63665l3.58645,-1.28744l2.67797,-1.11582l0.9605,0.19439l4.46997,-1.11749l0.59016,-0.08637l0.57032,-0.17459l4.41665,-0.88333l3.42286,-0.85572l1.92359,-0.2815l0.23355,-0.07431l0.86604,-0.0866l0.86118,-0.12603l0.2446,0.01545l1.93443,-0.19344h4l1.76416,0.17642l1.77138,0.07485l6.84405,0.97772l18.71751,-3.7435l0.69212,-0.06786l0.67525,-0.16637l6.1434,-0.87763l13.15391,-2.81869l1.2579,-0.14074l0.07408,-0.02357l1.28551,-0.12855l1.28391,-0.14365l0.07737,0.00753l1.25946,-0.12595h15l0.59349,0.05935l0.59564,-0.03105l21,1l0.18422,0.02732l0.18611,-0.00694l16,1l1.16303,0.19018l1.17657,0.06706l16.9361,2.67412zM550.78432,279.39781l0.26708,-5.64688l-31.27974,-24.51458l-4.04215,98.35899zM629.79329,271.93665l-26.4008,-46.5014l-1.17714,24.888zM802.02625,406.91922l9.59835,-0.0897l-41.43314,-24.85988z" fill="#ea7499"/><path d="M377,222c0,-1.38071 1.11929,-2.5 2.5,-2.5c1.38071,0 2.5,1.11929 2.5,2.5c0,1.38071 -1.11929,2.5 -2.5,2.5c-1.38071,0 -2.5,-1.11929 -2.5,-2.5z" fill="#9966ff"/><path d="M86.5,117.5c-2.5,0 -2.5,-2.5 -2.5,-2.5l0,-3.00006c0.00035,-7.81176 0.30301,-15.44649 1.01027,-23.22628c0,0 0.22634,-2.48973 2.71607,-2.26339c2.48973,0.22634 2.26339,2.71607 2.26339,2.71607c-0.69366,7.6303 -0.9894,15.11186 -0.98973,22.77372l0,2.99994c0,0 0,2.5 -2.5,2.5z" fill="#ff66bb"/><path d="M110.98601,129.26414c-0.26414,2.48601 -2.75015,2.22187 -2.75015,2.22187l-2.53245,-0.26907c-8.39399,-0.89186 -16.49587,-2.54272 -24.81336,-3.92218c-6.59397,-1.09361 -13.29828,-1.62639 -19.87063,-2.84138c-11.67309,-2.15793 -23.56268,-5.98022 -35.51942,-5.95337c0,0 -2.5,0 -2.5,-2.5c0,-2.5 2.5,-2.5 2.5,-2.5c12.31039,0.02493 24.46131,3.83324 36.48058,6.04663c6.52505,1.20161 13.18123,1.73033 19.72735,2.81547c8.22246,1.36303 16.22718,3.00131 24.52376,3.88282l2.53245,0.26907c0,0 2.48601,0.26414 2.22187,2.75015z" fill="#ff66bb"/></g></g></svg>