<svg version="1.1" xmlns="http://www.w3.org/2000/svg" xmlns:xlink="http://www.w3.org/1999/xlink" width="268.04259" height="141.38279" viewBox="0,0,268.04259,141.38279"><g transform="translate(-73.96695,-84.49941)"><g data-paper-data="{&quot;isPaintingLayer&quot;:true}" fill="#66ffbc" fill-rule="nonzero" stroke="none" stroke-width="0.5" stroke-linecap="butt" stroke-linejoin="miter" stroke-miterlimit="10" stroke-dasharray="" stroke-dashoffset="0" style="mix-blend-mode: normal"><path d="M122,188c0,-1.09754 0.48184,-1.71325 1.02245,-2.05865c0.38112,-1.34784 0.77715,-2.71317 0.99628,-4.24681c0.28737,-2.01124 -0.30994,-4.08925 0.01355,-6.095c0.16784,-1.04064 0.82049,-1.9613 1,-3c0.45592,-2.63809 -0.03228,-5.91859 -0.03228,-8.59954c0,-4.66667 0,-9.33333 0,-14c0,-3.3225 -0.12003,-6.68113 0,-10c0.05048,-1.39579 -0.4058,-2.97196 0.29581,-4.17964c0.80279,-1.38184 2.54496,-1.93365 3.81744,-2.90048c0,0 2.08013,-1.38675 3.46688,0.69338c0.25892,0.38838 0.39698,0.75258 0.45029,1.08811c0.47554,-0.84388 1.01198,-1.6419 1.61309,-2.3757c0.78301,-0.95585 2.04221,-1.39185 3.07769,-2.06605c0.05532,-0.03602 0.11066,-0.07202 0.16601,-0.108c-1.27947,-1.37523 -1.73265,-3.36782 -2.62328,-5.03357c0,0 -1.11803,-2.23607 1.11803,-3.3541c2.23607,-1.11803 3.3541,1.11803 3.3541,1.11803c0.56582,1.25159 0.73658,2.77327 1.69745,3.75478c0.2877,0.29388 0.65515,0.46028 1.05501,0.57592c1.22356,-0.77322 2.44819,-1.54477 3.66928,-2.32182c0,0 2.10915,-1.34219 3.45134,0.76696c1.34219,2.10915 -0.76696,3.45134 -0.76696,3.45134c-0.10346,0.06584 -0.2069,0.13173 -0.31031,0.19766c0.20724,0.08697 0.41416,0.17472 0.6207,0.26333c4.01922,1.72427 7.40259,3.42505 10.28077,6.84488c10.05835,11.95125 7.87501,29.87826 7.45937,44.30943c-1.96319,3.08164 -2.84149,5.08638 -5.93095,7.30365c-6.34476,4.55354 -15.48676,5.09531 -22.92355,6l-0.53149,-2.57401c-1.00348,0.03048 -2.00605,0.04591 -3.00673,0.04591h-2c0,0 -1.20286,0 -1.93986,-0.83435c-1.1738,-0.05775 -2.33579,-0.11344 -3.4704,-0.14324c-0.07707,0.59763 -0.12202,1.21939 -0.12202,1.87805c-0.59899,1.79698 -0.99124,3.70551 -0.96772,5.59954l-2.5,-0.5l-2.5,0.5c0.00314,-0.33079 0.01349,-0.66224 0.03123,-0.99375l-0.03123,-0.00625c0,0 0,-0.22384 0.06698,-0.53757c0.12895,-1.65237 0.44373,-3.29817 0.9653,-4.86289c0,-0.85223 0.07984,-1.65029 0.2088,-2.41835c-0.14893,-0.31337 -0.24108,-0.70121 -0.24108,-1.1812zM141.09954,185.53228c4.82666,-0.79254 9.98532,-3.98431 14.43892,-5.83997c0,0 2.30769,-0.96154 3.26923,1.34615c0.30729,0.73749 0.28069,1.3375 0.10222,1.81257c1.17542,-1.05117 2.24258,-2.24958 3.19736,-3.57549c-0.62043,-13.1614 2.60677,-28.57048 -6.54063,-39.69057c-3.06821,-3.72989 -7.87608,-5.18275 -12.23291,-6.94885c-0.97264,0.61937 -1.94779,1.23474 -2.92816,1.84179c-0.67246,0.41639 -1.55599,0.57803 -2.04908,1.19644c-2.20736,2.76835 -3.25446,7.0103 -3.35876,10.43206l0.00227,1.89359c0,0 0,2.5 -2.5,2.5c-2.06227,0 -2.42336,-1.70119 -2.48658,-2.29691c-0.00796,0.6007 -0.01342,1.19996 -0.01342,1.79691c0,5.66667 0,11.33333 0,17c0,0.48002 0.00949,6.14144 -0.03228,6.40046c-0.16784,1.04064 -0.82049,1.9613 -1,3c-0.3352,1.93959 0.29188,3.95644 0.01355,5.905c-0.16859,1.18031 -0.43001,2.24277 -0.70927,3.262c4.25604,0.18072 8.84188,0.61927 12.82755,-0.03518zM156.05974,184.97438c0.10958,-0.06699 0.21845,-0.13507 0.32662,-0.20423c-0.12526,0.05539 -0.25087,0.1114 -0.37683,0.16798c0.01683,0.01177 0.03357,0.02386 0.05021,0.03625zM131.88675,137.08013c-0.72752,0.36651 -1.74044,0.41531 -2.18256,1.09952c-0.33364,0.51633 0.26461,1.2064 0.29581,1.82036c0.08397,1.65216 0.08398,3.32387 0.063,4.99646c0.21671,-2.60241 0.79901,-5.37558 1.82927,-7.9201c-0.00363,0.0025 -0.00552,0.00376 -0.00552,0.00376z"/><path d="M231.68732,101.51179c4.17851,0.08588 7.47718,0.65366 11.60325,2.1165c1.24913,0.44286 2.68152,0.57033 3.72691,1.38494c1.09704,0.85486 1.61058,2.26786 2.41587,3.40179c2.48841,2.57619 3.03289,5.25748 5.10749,8.14104c1.88028,2.61346 3.5439,5.38251 5.12143,8.18911c0.68204,1.21343 1.80353,2.20547 2.23045,3.53036c0.38092,1.18214 0.09358,2.48253 0.10727,3.72446c0.08316,7.54167 -2.86526,15.9406 -6.5369,22.52401c-0.80864,1.44992 -2.11427,2.58398 -2.91541,4.03806c-2.14994,3.90214 -4.27124,8.9615 -5.66895,13.20711c-0.86615,2.63096 -0.90017,4.83244 -2.13295,7.32921c-1.78995,3.62524 -3.46977,6.1827 -5.03323,10.06549c-0.89836,1.2743 -1.49604,2.8263 -2.69507,3.82289c-0.93401,0.77632 -2.33617,0.70921 -3.41911,1.25902c-2.20911,1.12158 -4.25819,2.79085 -6.69792,3.22193c-6.35964,1.12368 -13.91846,0.03228 -20.40046,0.03228c-3.6125,0 -9.28122,0.79216 -12.44012,-1.45646c-3.73735,-2.66038 -3.00718,-5.24838 -3.05988,-9.04354c-0.11104,-7.99596 0,-16.00304 0,-24c0.10686,-14.56637 8.4534,-27.95241 17.61137,-38.638c2.49834,-2.91509 5.01726,-7.14233 7.95107,-9.66759c1.29937,-1.11843 3.00563,-1.66608 4.39903,-2.66491c0.94385,-0.67658 1.48696,-1.95203 2.58182,-2.33919c1.37775,-0.48719 2.95799,0.2034 4.38233,-0.12342c2.13665,-0.49027 3.97827,-1.78755 5.87988,-2.92625c-1.02052,-0.09418 -2.1008,-0.14063 -3.3055,-0.14063l0.5,-2.5l-0.5,-2.5c0.3388,0 0.67131,0.00268 0.99835,0.00824l0.00165,-0.00824c0,0 0.0703,0 0.18732,0.01179zM238.99286,107.58893c0.38994,1.76476 -1.37482,2.64714 -1.37482,2.64714c-0.08722,0.04361 -8.15155,4.10335 -8.54365,4.19705c-1.17355,0.28045 -2.46366,-0.47573 -3.61767,-0.12342c-0.69625,0.21256 -0.83306,1.2277 -1.41818,1.66081c-1.30123,0.9632 -2.9443,1.42926 -4.1759,2.48004c-2.73876,2.33667 -5.16289,6.49149 -7.474,9.18745c-8.25572,9.63049 -16.50731,22.12926 -16.38863,35.362c0,7 0,14 0,21c0,1.90082 -1.18613,6.73747 0.94012,7.95646c2.25132,1.2907 7.213,0.54354 9.55988,0.54354c6.27269,0 13.42558,0.97166 19.59954,0.03228c2.83662,-0.4316 2.52435,-1.41383 5.30208,-2.77807c0.80339,-0.39457 1.86518,-0.20351 2.58089,-0.74098c0.67655,-0.50806 0.86995,-1.4514 1.30493,-2.17711c1.48489,-3.73886 3.19717,-6.44758 4.96677,-9.93451c0.67776,-1.33551 1.54467,-5.69929 1.86705,-6.67079c1.49932,-4.5182 3.75936,-9.91201 6.04496,-14.07766c1.54763,-2.82066 3.51652,-5.43353 4.73232,-8.41231c2.1833,-5.34921 4.01562,-9.95257 4.10146,-15.74086c0.01126,-0.75927 0.35832,-1.55888 0.10727,-2.27554c-0.33481,-0.95577 -1.25981,-1.59456 -1.76955,-2.46964c-1.54511,-2.65255 -3.10239,-5.30718 -4.87857,-7.81089c-1.98598,-2.79944 -2.48078,-5.55051 -4.89251,-7.85896c-0.52804,-0.86607 -0.80478,-1.94896 -1.58413,-2.59821c-0.60309,-0.50241 -1.52256,-0.38518 -2.27309,-0.61506c-0.97014,-0.29714 -1.86266,-0.55781 -2.71657,-0.78278z"/><path d="M273,198c0,-2.5 2.5,-2.5 2.5,-2.5l0.20943,0.12829c4.81434,-1.55646 9.7535,-1.21439 14.79057,-1.12829c0.34774,0.00594 3.4524,0.54669 3.78593,-0.66098c0.30226,-1.09448 -0.28155,-2.25444 -0.36284,-3.38697c-0.22879,-3.1876 -0.56622,-6.37674 -1.1589,-9.5171c-0.88333,-4.68035 -2.13277,-9.61623 -3.62887,-14.1236c-1.23055,-3.70732 -3.64779,-6.94707 -4.88111,-10.71296c-1.66785,-2.46633 -4.1444,-4.50319 -5.12779,-7.31343c-0.88801,-2.53766 0.37152,-8.07338 0.95733,-10.42662c1.73639,-6.97528 5.98711,-12.43485 9.72531,-18.39831c2.29242,-3.65705 5.46147,-8.7432 9.37661,-11.08664c6.97647,-4.17583 13.36506,-1.77435 20.19214,0.7858c0,0 2.34082,0.87781 1.46301,3.21863c-0.87781,2.34082 -3.21863,1.46301 -3.21863,1.46301c-2.52748,-0.9478 -4.9292,-2.3136 -7.56825,-2.88094c-10.02308,-2.15475 -16.36026,11.39612 -20.44141,17.87699c-2.89797,4.60198 -4.85925,9.39529 -5.60587,14.81827c-0.13924,1.01139 -0.5089,2.11066 -0.13309,3.05991c1.01517,2.56414 3.3546,4.3839 4.87221,6.68657c1.33623,3.94582 3.80114,7.38142 5.11889,11.28704c0.54426,1.61311 0.53063,3.37325 1.01342,5.00582c1.47961,5.00333 3.14799,9.60721 3.78564,14.88114c0.15206,1.25765 0.54396,10.12848 0.05032,11.08536c-1.95252,3.78483 -5.03428,3.29486 -8.21407,3.33902c-4.45931,0.06193 -8.96873,-0.59715 -13.20943,0.87171l-1.79057,0.12829c0,0 -2.5,0 -2.5,-2.5z"/><path d="M82.5,217.5c-2.5,0 -2.5,-2.5 -2.5,-2.5v-1c0,-0.97901 0.03816,-1.93439 0.10495,-2.87355c-1.44928,-0.62875 -2.89895,-1.25716 -4.39552,-1.75474c0,0 -2.37171,-0.79057 -1.58114,-3.16228c0.79057,-2.37171 3.16228,-1.58114 3.16228,-1.58114c1.16383,0.38889 2.29945,0.85614 3.42881,1.34045c0.42178,-2.71221 0.94053,-5.4036 1.29935,-8.2742c0.70474,-5.63788 1.28331,-10.97964 3.10956,-16.48511c0.65613,-1.89429 0.34777,-4.03115 0.97898,-5.93389c0.41972,-1.26523 1.55269,-2.18068 2.14694,-3.37392c2.02126,-4.05862 2.00051,-8.94373 4,-13c0.53139,-1.078 1.4583,-1.92715 2,-3c2.04283,-4.04589 1.99996,-8.94572 4,-13c0.51773,-1.04949 1.49623,-1.83837 1.9595,-2.91301c1.46212,-3.39165 1.54082,-7.5715 2.99004,-10.97718c0.54182,-1.27328 1.59668,-2.27302 2.21525,-3.51083c2.64267,-5.28815 4.82855,-10.14087 8.14764,-15.08558c5.61157,-5.65615 12.50442,-9.53143 20.5329,-10.88275c0.87997,-0.14811 1.83093,0.36159 2.676,0.07499c1.13817,-0.38601 1.83174,-1.71782 3,-2c3.02122,-0.72973 6.24879,0.37594 9.324,-0.07499c1.04294,-0.15293 1.95602,-0.85438 3,-1c2.6411,-0.3684 5.36155,0.38689 8,0c1.04294,-0.15293 1.95602,-0.85438 3,-1c8.03965,-1.12144 16.12253,0.9803 24.08912,-1.01282c7.35154,-0.04621 14.80626,-1.96839 22.06515,-3.1802c9.26478,-1.54668 18.67548,-4.0496 28.03998,-4.83074c1.62793,-0.13579 3.27419,0.16159 4.90074,0.01021c2.73691,-0.25472 5.27186,-1.66415 8,-2c0.18083,-0.02226 7.00014,-0.01873 8.30546,-0.01873c7.6994,0 15.3988,-0.00199 23.0982,0.00134c0.48087,0.00021 9.91065,-0.00405 10.2492,0.03064c2.75347,0.2822 5.31827,1.61375 8.0589,2.00126c2.93549,0.41506 5.89373,0.6493 8.84004,0.97893c4.29392,0.4804 8.76805,-0.53653 13.05911,0.00656c2.0187,0.25549 5.91038,1.51819 7.91953,2.27961c1.43161,0.54254 2.75964,1.38716 4.24778,1.74677c3.10621,0.75061 4.62105,-1.72886 7.55534,1.99312c0.5838,0.74052 0.47578,6.51887 0.4699,7.77055c-0.0393,8.36111 -1.33913,16.70128 -2.07094,25.03334c-0.26277,8.46519 -1.72051,16.50389 -2.48465,24.90476c-0.42548,4.67773 -0.00385,9.41354 -0.46114,14.05858c-0.2738,2.78119 -1.50634,5.38985 -2.02069,8.13675c-0.53677,2.86663 -0.76138,5.78667 -0.96441,8.69605c-0.50305,7.20877 0.00383,14.63244 0.00383,21.86175c0,5.75714 0.36558,10.37832 -1.73223,15.76777c-1.45577,0.56665 -2.83477,1.39717 -4.36731,1.69995c-4.56788,0.90247 -9.62428,-0.54885 -14.24341,0.03875c-11.2933,1.43661 -22.61656,3.1085 -34.0017,3.9887c-11.22715,0.86799 -22.88925,0.00483 -34.15534,0.00483c-10.11556,0 -20.10525,-0.34993 -30.17722,-1.00629c-9.36283,-0.61015 -18.61192,-2.46218 -28.00385,-3.00028c-11.3017,-0.64751 -22.72699,-3.58096 -33.97427,-4.99826c-4.77757,0.00096 -9.23711,-0.73615 -13.98291,-0.99899c-12.94261,-0.71683 -26.28728,1.39515 -39.16721,-0.01491c-1.36621,-0.14957 -2.63954,-0.80495 -4,-1c-3.76425,-0.5397 -7.37571,-0.25662 -11.14994,-1.42235c-0.01062,-0.00328 -0.02124,-0.00657 -0.03186,-0.00986c-0.00837,0.31462 -0.01274,0.63151 -0.01274,0.95094v1c0,0 0,2.5 -2.5,2.5zM85.46376,207.927c0.35181,0.12579 0.70588,0.24524 1.06283,0.3566c3.4675,1.08181 6.80999,0.74132 10.27887,1.23513c1.36065,0.19369 2.6343,0.84587 4,1c3.96403,0.44738 8.71063,-0.01873 12.69454,-0.01873c7,0 14,-0.00329 21,0c6.43901,0.00303 12.71846,1.00354 19.15534,1.00483c11.25827,1.39657 22.71731,4.38142 34.02573,5.00174c9.39314,0.51526 18.63694,2.40512 27.99615,2.99972c9.95856,0.63268 19.82177,0.99371 29.82278,0.99371c11.15728,0 22.72787,0.87785 33.84466,0.00483c11.32348,-0.88925 22.56484,-2.59006 33.8041,-3.97246c5.14377,-0.63267 10.47263,0.63911 15.58347,-0.30014c0.55209,-3.00414 0.26777,-6.19793 0.26777,-9.23223c0,-8.32072 -0.56712,-16.8419 0.00383,-25.13825c0.21424,-3.11311 0.46287,-6.23649 1.03559,-9.30395c0.49607,-2.65693 1.72507,-5.17239 1.97931,-7.86325c0.43422,-4.59572 0.02343,-9.26928 0.44421,-13.90035c0.75913,-8.35488 2.2084,-16.33423 2.47291,-24.7485c0.71999,-8.23475 2.03146,-16.49288 2.06218,-24.75494c0.00408,-1.09716 -0.10518,-2.19958 0.00196,-3.2915c0.05235,-0.53353 0.7436,-1.07534 0.47189,-1.53747c-0.23185,-0.39435 -0.9149,0.00665 -1.37235,0.00594c-1.02411,-0.00159 -2.07743,0.23008 -3.07231,-0.01283c-2.84411,-0.69442 -5.42603,-2.2278 -8.23385,-3.05683c-5.50004,-1.62393 -10.93114,-0.30169 -16.53973,-0.91023c-3.05431,-0.33139 -6.11981,-0.57827 -9.15996,-1.02107c-2.63585,-0.38391 -5.09608,-1.69877 -7.74691,-1.95991c-3.23459,-0.31864 -6.5005,-0.00412 -9.75075,-0.00552c-7.69868,-0.00332 -15.39736,-0.00134 -23.09604,-0.00134c-2.56485,0 -5.1489,-0.33211 -7.69454,-0.01873c-2.72814,0.33585 -5.26486,1.72696 -8,2c-1.69135,0.16884 -3.4052,-0.12886 -5.09926,0.01021c-9.21995,0.75692 -18.50707,3.25608 -27.62891,4.7795c-7.31276,1.22129 -14.86003,3.18623 -22.26595,3.20955c-7.94064,1.9837 -15.94397,-0.18104 -23.91088,0.98718c-1.04294,0.15293 -1.95602,0.85438 -3,1c-2.6411,0.3684 -5.36155,-0.38689 -8,0c-1.04294,0.15293 -1.95602,0.85438 -3,1c-2.86437,0.39955 -5.87705,-0.80313 -8.676,-0.07499c-1.16314,0.30259 -1.85805,1.62531 -3,2c-1.05305,0.34552 -2.2305,-0.10542 -3.324,0.07499c-6.80714,1.12305 -12.69021,4.38517 -17.4671,9.11725c-3.08614,4.66573 -5.07811,9.22554 -7.56627,14.19919c-0.569,1.13738 -1.56939,2.03566 -2.07084,3.2044c-1.46371,3.41154 -1.55116,7.60097 -3.00996,11.02282c-0.48373,1.13467 -1.48235,1.98702 -2.0405,3.08699c-0.61759,1.21712 -1.60873,5.77293 -1.84549,6.60059c-1.024,3.57972 -2.50862,6.15991 -4.15451,9.39941c-2.03139,3.99826 -1.96459,8.94562 -4,13c-0.48068,0.95747 -1.51242,1.61033 -1.85306,2.62608c-0.28372,0.84604 0.2231,1.79602 0.07499,2.676c-0.19712,1.17115 -0.73067,2.26008 -1.09601,3.39011c-1.74171,5.19727 -2.2259,10.19858 -2.89044,15.51489c-0.41855,3.34838 -1.07601,6.44398 -1.51751,9.62154z"/></g></g></svg>