<svg version="1.1" xmlns="http://www.w3.org/2000/svg" xmlns:xlink="http://www.w3.org/1999/xlink" width="391.96304" height="148.98654" viewBox="0,0,391.96304,148.98654"><g transform="translate(4.23709,-54.51343)"><g data-paper-data="{&quot;isPaintingLayer&quot;:true}" fill="#9966ff" fill-rule="nonzero" stroke="none" stroke-width="0.5" stroke-linecap="butt" stroke-linejoin="miter" stroke-miterlimit="10" stroke-dasharray="" stroke-dashoffset="0" style="mix-blend-mode: normal"><path d="M72.56759,190.59571c-0.82731,0.33087 -1.66491,0.6287 -2.52801,0.84536c-4.32005,1.08443 -8.63701,0.74538 -13.03965,2.00843c-4.5581,0.58029 -9.28537,1.61862 -13.90038,1.01821c-11.25666,-1.46448 -16.46677,-12.79354 -20.06378,-21.89686c-0.6697,-1.69486 -1.60321,-3.31132 -1.98953,-5.09227c-0.88295,-4.07045 -0.00322,-9.09295 -1.10389,-13.11804c-0.8394,-3.06965 -3.96743,-8.36922 -6.25849,-10.6425c-3.78964,-3.76025 -9.02289,-5.08892 -12.76884,-8.78468c-1.15286,-0.83108 -2.69087,-1.29724 -3.45857,-2.49323c-0.96011,-1.49575 -1.19647,-3.37373 -1.43773,-5.13466c-0.67091,-4.89701 -0.05879,-13.07962 2.27145,-17.47453c0.61234,-1.15489 1.61416,-2.05886 2.35258,-3.1375c4.25499,-6.21542 8.64611,-12.86171 13.37028,-18.72058c2.16122,-2.68032 5.23893,-4.47136 7.77768,-6.79724c2.27309,-2.08249 3.78606,-4.89671 6.02132,-7.01975c2.145,-2.0373 4.82418,-3.42582 7.2113,-5.17317c3.90683,-2.85977 7.65676,-5.78582 11.75219,-8.37543c4.47176,-0.08046 5.85148,-1.69813 10.28346,-3.05587c4.28415,-1.31246 11.2493,-3.06769 15.70342,-3.03758c0.95856,0.00648 1.72432,0.90685 2.66865,1.07158c1.56083,0.27227 3.17706,0.01607 4.74799,0.22218c6.54457,0.85868 12.91606,3.1582 19.52714,3.70095c1.69406,0.13908 3.41062,-0.18389 5.09926,0.01021c2.48794,0.28599 4.7782,1.53339 7.23085,2.03947c2.82514,0.58294 5.72437,0.74645 8.60213,0.94563c5.98854,0.41449 12.14913,0.0705 18.1578,0.18461c4.66064,0.77139 9.31446,2.17524 13.97655,2.82648c2.55097,0.35634 5.15147,-0.01493 7.72721,-0.01493c6.58692,0 13.2656,0.31565 19.84408,0.00487c2.69492,-0.12731 5.33881,-0.82844 8.03074,-1.00824c6.58969,-0.44014 13.12718,-0.02124 19.70871,-0.9617c9.35804,-1.3372 17.84119,-4.99294 27.44295,-5.07053c6.68802,-0.03946 13.19883,-0.65966 19.86022,-0.96183c11.32571,-0.51375 23.23509,0.52719 34.46185,2.02185c9.51519,1.26679 18.7709,4.07789 28.147,6.02519c6.05689,1.25794 12.22355,2.04366 18.29926,3.22578c7.83693,1.52509 16.1041,3.8754 24.14953,3.72523c3.00716,-0.05613 6.02248,-0.48031 8.94303,-1.19901c2.1478,-0.52854 4.32154,-3.07524 6.29948,-2.08521c2.03582,1.019 1.53762,4.28602 2.34793,6.41353c0.89959,2.36192 2.27569,5.29138 2.90208,7.83005c0.36715,1.48804 0.21503,3.12257 0.84539,4.5196c0.67437,1.49455 2.20111,2.47408 2.96494,3.92495c0.59458,1.1294 0.70286,2.45408 1.04127,3.68475c2.6916,9.78815 2.39593,19.20052 0.23664,29.07212c-1.78443,8.00676 -1.94065,16.19662 -3.42879,24.24122c-0.89254,4.82487 -2.94473,9.54675 -3.61506,14.40284c-0.3963,2.87096 0.01873,5.79635 0.01873,8.69454c0,6.65624 0.19333,13.34694 0,20c-0.05023,1.72863 0.55945,3.67657 -0.29581,5.17964c-2.5309,4.44792 -4.42648,2.81166 -7.89873,3.30162c-2.32513,0.3281 -4.40544,1.65869 -6.6855,2.22011c-3.98676,0.98166 -5.29267,0.79407 -8.97119,0.76625c-3.25385,-0.65129 -6.59836,-0.72321 -9.90672,-0.98097c-6.19955,-0.48302 -11.6492,-3.44817 -17.51186,-5.09829c-3.09509,-0.87115 -6.42498,-0.55819 -9.56429,-1.25332c-4.82539,-1.06847 -9.57403,-3.3774 -14.32379,-4.72317c-2.97991,-0.84431 -6.17433,-0.67546 -9.18545,-1.40058c-2.18651,-0.52654 -6.00145,-2.26304 -8.46209,-2.53003c-9.08687,-0.98597 -18.49058,0.81326 -27.45468,2.00688c-17.70185,1.77138 -35.48567,2.43567 -53.19472,4.02324c-8.30525,0.74454 -16.57342,2.48659 -24.89595,2.98416c-7.9873,0.47753 -16.03814,-0.21021 -24.03853,0.21262c-21.29351,1.12071 -42.87352,2.47123 -64.19978,1.79025c-8.0021,-0.25552 -15.88731,-0.99841 -23.91088,-0.99841c0,0 -2.5,0 -2.5,-2.5c0,-2.5 2.5,-2.5 2.5,-2.5c8.08264,0 16.02871,0.74542 24.08912,1.00159c21.1796,0.67311 42.61174,-0.67352 63.75875,-1.78652c7.98825,-0.41874 16.02908,0.2661 24.00293,-0.21062c8.27154,-0.49452 16.49277,-2.23305 24.7479,-2.9731c17.66475,-1.5836 35.4045,-2.24501 53.06218,-4.00957c9.35435,-1.24686 19.16512,-3.07745 28.64458,-2.00305c3.86543,0.43811 5.24002,1.71578 9.02474,2.63225c0.6439,0.15592 8.61755,1.2389 9.32771,1.43715c4.67341,1.30458 9.33863,3.60981 14.07614,4.66235c3.23122,0.71788 6.65214,0.4371 9.84158,1.32232c5.57873,1.54837 10.78576,4.51288 16.68233,4.94055c3.30714,0.23986 6.64754,0.33039 9.89908,0.98019c2.76494,0.01263 4.15323,0.14627 7.12249,-0.60913c2.51432,-0.63966 4.84729,-1.99445 7.415,-2.36567c0.36467,-0.05272 3.66365,0.59086 4.10127,-0.69838c0.30384,-0.89511 -0.26008,-1.87576 -0.29581,-2.82036c-0.063,-1.66548 0,-3.33333 0,-5c0,-7.85851 -1.04038,-16.52491 0.01873,-24.30546c0.67617,-4.96735 2.74915,-9.7721 3.66101,-14.70143c1.49906,-8.10361 1.67596,-16.34598 3.46444,-24.41637c1.56319,-6.91082 2.63268,-14.9633 1.09106,-21.97678c-0.55545,-2.52698 -0.74474,-5.23243 -1.98245,-7.50448c-0.81023,-1.48733 -2.34853,-2.52673 -3.03506,-4.07505c-0.72998,-1.64631 -0.67384,-3.54038 -1.11577,-5.28621c-0.6677,-2.63775 -2.3136,-4.98149 -2.85067,-7.64891c-0.22215,-1.10336 1.2994,-2.9313 0.26139,-3.36636c-1.09298,-0.45811 -1.55299,1.93162 -2.6571,2.36224c-0.08896,0.03469 -9.94662,1.41146 -10.29995,1.4182c-8.42021,0.16051 -17.01299,-2.21975 -25.21592,-3.81606c-6.08792,-1.18496 -12.26575,-1.97356 -18.33529,-3.23293c-9.27748,-1.92499 -18.43789,-4.72557 -27.853,-5.97481c-10.92304,-1.44932 -22.51761,-2.47805 -33.53815,-1.97815c-6.72435,0.30502 -13.30547,0.92705 -20.05729,0.96688c-9.29248,0.03252 -17.57411,3.68274 -26.63953,5.00075c-6.75001,0.98138 -13.45069,0.56909 -20.20842,1.02045c-2.69905,0.18027 -5.35023,0.87892 -8.05213,1.00962c-6.6814,0.3232 -13.46577,0.00487 -20.15592,0.00487c-2.7576,0 -5.54028,0.35625 -8.27279,-0.01493c-4.63214,-0.62921 -9.26175,-2.04066 -13.88739,-2.81751c-8.9968,-0.14637 -18.5034,0.59825 -27.37612,-1.22577c-2.301,-0.47303 -4.43333,-1.71099 -6.76915,-1.96053c-3.33846,-0.35664 -6.72531,-0.28788 -10.03751,-0.83728c-4.87554,-0.80872 -9.74447,-2.23324 -14.63086,-2.87923c-1.73392,-0.22923 -3.51505,-0.00949 -5.23775,-0.31169c-0.74441,-0.13059 -1.29507,-0.96432 -2.05085,-0.96689c-1.41886,-0.00481 -2.76239,0.65053 -4.15019,0.94584c-3.17906,0.67648 -6.45613,0.94801 -9.56381,1.90006c-3.94605,1.20888 -6.14612,3.14785 -10.29912,3.06064c-3.45166,2.49449 -6.81172,5.10939 -10.24781,7.62457c-2.24048,1.64001 -4.78084,2.90904 -6.7887,4.82683c-1.19739,1.14368 -4.71359,5.81281 -5.97868,6.98025c-2.35671,2.1748 -5.29844,3.76305 -7.29339,6.27383c-4.63204,5.82973 -8.93815,12.32073 -13.17187,18.45524c-2.78964,4.0421 -3.4917,7.56875 -3.74885,12.60189c-0.03066,0.60004 -0.29639,6.21454 0.54837,7.40454c0.57009,0.80307 1.69429,1.00451 2.54143,1.50677c3.80533,3.86301 9.29729,5.25687 13.23116,9.21532c2.81217,2.82974 6.40596,9.07455 7.46582,12.82229c1.16593,4.12282 0.28884,9.25444 1.17181,13.41717c0.31355,1.4782 1.15671,2.79209 1.72438,4.19249c2.95325,7.28543 6.85196,17.71029 16.22231,18.81837c4.00566,0.47369 8.1408,-0.4973 12.09962,-0.98179c1.6222,-0.46164 3.20609,-1.08937 4.8666,-1.38491c2.66363,-0.47407 5.47326,0.06614 8.09375,-0.60667c2.1555,-0.55342 4.07081,-1.33103 5.99289,-2.06408c-1.56558,-0.00739 -2.82981,-0.02146 -2.96332,-0.04741c-3.7564,-0.73023 -7.61901,-2.97848 -10.85542,-4.84581c-5.62395,-3.24488 -10.94009,-5.88777 -16.25051,-9.69407c-3.12064,-3.11025 -8.30654,-6.82661 -10.53648,-10.63589c-2.88222,-4.92355 -2.34759,-11.80114 -2.34759,-17.27166c0,-3.10183 -0.35994,-6.22683 0.01873,-9.30546c1.55429,-12.63656 7.64441,-26.32116 16.7135,-35.46231c0,0 1.76777,-1.76777 3.53553,0c1.76777,1.76777 0,3.53553 0,3.53553c-2.64896,2.62411 -4.31464,5.62616 -6.29777,8.79722c-2.39347,3.82721 -5.00863,8.00526 -6.59836,12.24919c-2.36322,6.30882 -2.37164,13.57042 -2.37164,20.18583c0,4.41771 -0.72142,10.76668 1.65241,14.72834c0.62034,1.03528 1.75418,1.65832 2.61535,2.50389c0.77582,0.76177 5.98796,5.99688 6.84817,6.86022c5.10954,3.63597 10.22912,6.13349 15.63803,9.2502c2.75546,1.58775 6.05958,3.58029 9.25604,4.20992c2.7767,0.54694 5.65994,-0.05257 8.48999,-0.05257h2c0,0 2.5,0 2.5,2.5c0,0.17379 -0.01208,0.33549 -0.03456,0.48596c2.71256,0.06255 5.86996,0.28121 6.30233,0.74627c1.35349,1.45582 1.23909,4.12888 0.43642,5.94741c-2.31341,5.24126 -11.99393,3.32036 -16.20419,3.32036l-3.11803,-1.26393c0,0 -0.4269,-0.21345 -0.81438,-0.64035zM87.86295,187.05741c-0.87549,0.25339 -1.75806,0.40025 -2.64695,0.49967c0.52324,0.06253 1.04642,0.14207 1.55954,0.05019c0.40105,-0.07181 0.73711,-0.32756 1.08741,-0.54986z"/><path d=""/><path d=""/><path d="M138.70943,190.37171c-2.37171,-0.79057 -1.58114,-3.16228 -1.58114,-3.16228l0.90399,-2.60989c-0.04801,-3.86647 -0.03228,-7.73279 -0.03228,-11.59954c0.01076,-1.80015 -0.18728,-3.61371 0.03228,-5.40046c0.12856,-1.04622 0.85093,-1.9565 1,-3c0.16658,-1.16606 -0.11382,-2.3643 -0.0466,-3.53716c-1.43468,3.35916 -3.56173,6.50928 -6.15338,8.05303c-1.36413,0.81256 -2.99139,1.06698 -4.47201,1.64045c-5.03145,1.9488 -9.16454,4.09001 -14.52417,5.05492c-9.29758,1.67386 -19.45747,2.61467 -28.83256,1.18072c-0.70994,-0.10859 -10.11677,-1.53461 -10.47269,-1.68698c-3.01837,-1.29217 -4.74651,-3.47599 -6.78577,-5.75128c-3.90903,-4.36148 -6.27748,-7.54187 -7.72639,-13.24778c-0.00304,-3.84133 0.42475,-8.99102 2.08354,-12.48431c2.27512,-4.79122 6.86921,-8.42248 10.75973,-11.70979c2.17806,-1.84036 3.87329,-4.20636 6.05303,-6.04472c2.69762,-2.27513 7.50075,-5.06614 10.65288,-6.38639c1.20102,-0.50304 2.64225,-0.31124 3.79914,-0.90881c2.78945,-1.44081 4.51825,-4.44408 7.20932,-6.06122c1.43208,-0.86058 3.19993,-1.03879 4.65308,-1.8633c3.77532,-2.1421 7.32969,-6.03456 10.68746,-8.78183c0,0 1.93489,-1.58309 3.51799,0.3518c1.58309,1.93489 -0.3518,3.51799 -0.3518,3.51799c-3.57402,2.9242 -7.31128,6.90832 -11.31254,9.21817c-1.43987,0.83121 -3.20128,1.00321 -4.63169,1.85061c-3.32224,1.96814 -4.00469,4.36979 -7.50592,6.22488c-1.2784,0.67735 -2.86493,0.53586 -4.20086,1.09119c-6.33144,2.63194 -10.23668,7.29205 -15.29408,11.56889c-3.34186,2.82608 -7.55389,5.93871 -9.51909,10.07726c-1.20067,2.52852 -1.63429,6.87991 -1.63765,9.72865c1.11966,4.58159 3.36344,7.02569 6.4896,10.52421c1.39867,1.56526 3.0159,3.66327 4.99825,4.47673c2.89657,1.18861 6.20063,0.87525 9.29475,1.35416c11.4681,1.77506 25.4795,0.60126 36.07923,-4.03511c2.71606,-1.18802 5.70085,-1.74998 8.3246,-3.12994c1.45822,-0.76695 3.32747,-5.02859 3.57513,-5.46948c1.15116,-2.04941 2.21877,-4.3261 2.27084,-6.67611c0.53542,-3.20974 0.8821,-6.46005 0.98424,-9.71254c0.03517,-1.11983 0.43369,-2.29267 0.09261,-3.35987c-0.45517,-1.42418 -1.68488,-2.47808 -2.38127,-3.80115c-2.05005,-3.89487 -4.06999,-8.1211 -6.02873,-12.05706c-1.02349,-2.05664 -1.1081,-4.53456 -2.30713,-6.49406c-0.47962,-0.78382 -1.50045,-1.14262 -1.96048,-1.9381c-1.36839,-2.36625 -2.08073,-5.0586 -3.26286,-7.52319l0.00449,-0.26667l-0.07988,0.01997l-0.9864,-3.94561c-0.05753,-0.21047 -0.08824,-0.43201 -0.08824,-0.66073c0,-1.38071 1.11929,-2.5 2.5,-2.5c0.69036,0 1.31536,0.27982 1.76777,0.73223l2,2l-0.03244,0.03244c0.06675,0.04895 0.13278,0.09905 0.19803,0.15035c0.98096,0.77124 1.34075,2.10751 2.08469,3.10934c1.60411,2.16018 5.36712,6.30469 6.36255,8.71706c0.40477,0.98093 -0.21635,2.15645 0.05225,3.18305c0.92478,3.53454 5.24684,7.21506 7.45578,9.93751c0.75873,0.93511 1.96094,1.56847 2.42106,2.6813c0.4534,1.09655 -0.04837,2.38775 0.15802,3.55625c0.18334,1.03802 0.85438,1.95602 1,3c0.72237,5.17871 0.66147,12.64735 0,17.80091c-0.26839,2.09103 -1.71434,3.91126 -2,6c-0.18067,1.32104 0.18856,2.68007 0,4c-0.36114,2.52797 -0.98564,5.04597 -0.96772,7.59954c0,4.13384 0.00696,8.26682 -0.03228,12.40046l-1.09601,3.39011c0,0 -0.79057,2.37171 -3.16228,1.58114zM140.44234,156.69087c0.27432,-0.67947 0.50263,-1.36925 0.58994,-2.09132c0.09785,-0.80924 0.13744,-1.62182 0.14399,-2.43633c-0.06732,0.37896 -0.1313,0.74569 -0.18993,1.09778c-0.0634,1.03978 -0.24867,2.20724 -0.544,3.42987zM140.02092,134.98941c0.05413,-0.68578 0.40936,-1.39725 0.16938,-2.0327c-0.24227,-0.64151 -1.13154,-0.79903 -1.57894,-1.3187c-0.33764,-0.39219 -0.68199,-0.77927 -1.02963,-1.16385c0.51863,1.0344 1.03961,2.06436 1.56407,3.08546c0.2539,0.49435 0.55877,0.96501 0.87511,1.42979z"/><path d="M219.70943,138.37171c-2.37171,-0.79057 -1.58114,-3.16228 -1.58114,-3.16228c0.33333,-1 1.66667,-5 2,-6c1.9678,-5.89162 4.64029,-12.45624 3.90399,-18.80897c-0.03353,-0.28931 -1.26285,-3.90442 -1.71193,-4.19627c-0.43985,-0.28585 -1.03532,0.17199 -1.54845,0.28098c-1.20812,0.25662 -2.4082,0.5498 -3.61432,0.81568c-3.00445,0.66231 -5.94642,1.74487 -8.65759,3.19915c-1.46871,0.78783 -2.92282,1.60406 -4.41176,2.35294c-1.18851,0.59778 -2.74784,0.67901 -3.61772,1.68559c-0.69995,0.80994 -0.30437,2.12348 -0.57021,3.16044c-1.28285,5.00398 -0.57814,9.94187 -1.99148,14.96982c0.02905,1.63097 0.04142,3.26216 0.02721,4.89315l-0.40856,0.4518l0.2086,0.1043l-1.97578,3.95156c-0.40086,0.84561 -1.26228,1.43041 -2.26029,1.43041c-1.38071,0 -2.5,-1.11929 -2.5,-2.5c0,-0.18573 0.02025,-0.36673 0.05867,-0.54091l0.97046,-4.85228l0.01015,0.00203c0.0006,-0.01962 0.00123,-0.03923 0.0019,-0.05885c0.03987,-1.17127 0.44204,-2.28137 0.87865,-3.38787c-0.02988,-0.99578 -0.05798,-1.99161 -0.08603,-2.98743c-0.61052,-3.63765 -0.67436,-8.06838 -2.85215,-11.25037c-0.88175,-1.28833 -2.23676,-2.1854 -3.24373,-3.37841c-0.8912,-1.05585 -1.33107,-2.52514 -2.43762,-3.35256c-0.56517,-0.42261 -1.43766,0.14031 -2.11645,-0.05272c-1.7132,-0.48719 -3.316,-1.3015 -4.96995,-1.96247c-2.2787,-0.91063 -4.66405,-1.55898 -7.0626,-2.07728c-1.12787,-0.24372 -2.17298,-1.12576 -3.31837,-0.98585c-0.45721,0.05585 0.13178,0.91634 0.11823,1.37675c-0.03861,1.31153 -0.12897,2.62271 -0.27437,3.92673c-0.19037,1.70739 -0.44145,3.40845 -0.73226,5.10163c-1.3223,7.69866 -2.09551,15.33562 -3.99372,22.98393c0.03226,0.1603 0.04919,0.32615 0.04919,0.49595c0,1.38071 -1.11929,2.5 -2.5,2.5c-1.38071,0 -2.5,-1.11929 -2.5,-2.5c0,-0.16198 0.0154,-0.32036 0.04483,-0.47375c-0.09934,-0.61597 0.02982,-1.13259 0.02982,-1.13259c2.25956,-9.01927 3.59281,-18.29284 4.63152,-27.51637c0.22308,-1.98093 0.02678,-7.77317 2.4609,-8.99231c3.56545,-1.78577 11.61149,1.33263 14.90379,2.65078c1.44104,0.57695 2.82709,1.30858 4.31482,1.75144c1.07169,0.31901 2.39733,-0.12083 3.31402,0.51946c1.60203,1.119 2.50853,2.99785 3.80933,4.45613c1.17971,1.32253 2.65938,2.40172 3.63038,3.88427c0.32105,0.49019 0.60648,0.98639 0.8615,1.4881c0.03155,-0.11087 0.06446,-0.22223 0.0988,-0.33413c0.49346,-1.60811 0.34467,-3.55424 1.42979,-4.83956c1.29416,-1.53293 3.45443,-2.04182 5.20581,-3.02029c4.83905,-2.70353 8.91429,-4.81522 14.34111,-6.02204c1.96486,-0.43694 6.55878,-1.81632 8.60324,-0.62333c1.47531,0.86088 2.24356,2.60881 3.06614,4.10581c2.44142,4.44306 1.08084,9.00905 0.20758,13.57896c-0.80135,4.19363 -1.753,7.31549 -3.08166,11.30999c-0.33333,1 -0.66667,2 -1,3l-1,3c0,0 -0.79057,2.37171 -3.16228,1.58114z"/><path d="M283,144c0,1.48852 -0.88627,2.09076 -1.60343,2.33442c-0.27831,0.10696 -0.58059,0.16558 -0.89657,0.16558h-2c-5.45607,0 -11.05439,0.35346 -16.47581,-0.41474c-4.35556,-0.61717 -8.41173,-1.58642 -12.82965,-1.60399c-1.58966,-0.40797 -3.29421,-0.50383 -4.76897,-1.22392c-1.65733,-0.80924 -2.9933,-2.1566 -4.45576,-3.28035c-4.45004,-3.41939 -10.14807,-8.56757 -10.93753,-14.57654c-0.73781,-5.61582 0.93562,-9.86717 3.1525,-14.84674c1.33491,-2.9985 3.10735,-8.02336 6.19719,-9.78978c1.48304,-0.84783 3.41047,-0.2145 5.11803,-0.26393c2.99874,-0.0868 6,-0.00545 9,0c3.12035,0.00567 6.20419,0.67411 9.30546,1.01873c4.90967,0.54557 9.38415,0.40028 14.25736,1.80302c3.33025,0.95861 6.48926,2.43661 9.76234,3.57524c4.09387,2.4856 10.2641,4.39797 12.80147,8.78868c2.59435,4.4893 1.52899,6.87949 -3.16992,9.62403c-0.43214,0.2524 -8.02521,0.20349 -8.26217,0.17157c-1.60394,-0.21603 -3.2118,-0.57298 -4.70593,-1.19498c-1.01814,-0.42385 -1.66813,-1.54093 -2.71308,-1.89356c-0.84551,-0.28532 -1.79571,0.22121 -2.676,0.07499c-2.36264,-0.39246 -4.53283,-1.65646 -6.905,-1.98645c-0.99046,-0.13778 -2.01052,0.14467 -3,0c-2.41766,-0.35347 -4.63382,-1.64364 -7.05006,-2.00668c-3.83669,-0.57645 -8.51109,0.45755 -12.29093,1.00028c0,0 -2.47487,0.35355 -2.82843,-2.12132c-0.35355,-2.47487 2.12132,-2.82843 2.12132,-2.82843c4.28207,-0.60876 9.36195,-1.62665 13.70907,-0.99972c2.38537,0.34401 4.56288,1.66126 6.94994,1.99332c0.99046,0.13778 2.01052,-0.14467 3,0c2.43253,0.35565 4.67027,1.60809 7.095,2.01355c1.09311,0.18279 2.27154,-0.2723 3.324,0.07499c1.23578,0.40778 2.09686,1.57996 3.28692,2.10644c2.71023,1.19902 4.10329,0.70001 6.98862,0.78629c1.2667,0.03788 2.90039,0.83333 3.56688,-1.07438c0.14401,-0.41221 -0.40295,-0.78535 -0.6935,-1.11129c-0.72487,-0.81315 -1.42828,-1.68272 -2.33515,-2.28622c-2.64481,-1.76007 -5.63566,-2.94532 -8.34306,-4.60749c-3.02828,-1.03429 -5.94262,-2.40699 -9.01714,-3.29445c-4.62865,-1.33606 -8.81109,-1.12579 -13.48348,-1.64489c-2.89874,-0.32205 -5.77797,-0.9869 -8.69454,-0.98127c-2.99999,0.0058 -6.0022,0.11497 -9,0c-0.96397,-0.03697 -2.04422,-0.74224 -2.88197,-0.26393c-1.2062,0.68868 -3.58333,6.71521 -3.8642,7.34834c-1.81876,4.09985 -3.32091,7.40104 -2.78612,12.01514c0.2153,1.85761 1.49772,3.51199 2.55033,4.92482c3.37218,4.52621 7.74,8.66191 13.28741,9.99436c4.43091,-0.0192 8.54459,0.98554 12.90583,1.61397c5.18102,0.74655 10.57534,0.3673 15.78871,0.3673h2c0.31597,0 0.61826,0.05862 0.89657,0.16558c0.71716,0.24366 1.60343,0.84591 1.60343,2.33442z"/><path d="M334,119c0,2.5 -2.5,2.5 -2.5,2.5h-3c-5.47308,0 -10.01532,0.7925 -15.39737,1.92628c-0.60211,0.12684 -1.3723,0.31624 -2.10157,0.61967c0.00174,2.79877 0.00503,5.59757 0.00521,8.39637c1.80865,3.90672 3.73297,11.26332 0.66924,14.78943c-0.14754,0.16981 -0.30627,0.32551 -0.47436,0.46939l0.06663,0.06663l-2,2c-0.45241,0.45241 -1.07741,0.73223 -1.76777,0.73223c-1.38071,0 -2.5,-1.11929 -2.5,-2.5c0,-0.29691 0.05176,-0.58173 0.14675,-0.84593l0.88465,-2.65395c-0.03049,-3.444 -0.04023,-6.88826 -0.04158,-10.33257c-1.61373,-3.14337 -3.48259,-5.64621 -1.79951,-10.12426c0.40977,-1.09024 1.04052,-1.96872 1.80967,-2.68374c0.00002,-0.11985 0.00003,-0.2397 0.00003,-0.35955c0,0 0,-2.5 2.5,-2.5c0.76924,0 1.30179,0.23669 1.67048,0.56442c0.57656,-0.19049 1.15748,-0.35096 1.72689,-0.4907c5.66234,-1.38962 10.80257,-2.07372 16.60263,-2.07372h3c0,0 2.5,0 2.5,2.5z"/><path d="M368.29057,167.37171c-2.37171,0.79057 -3.16228,-1.58114 -3.16228,-1.58114l-1,-3c-0.99419,-2.98257 -2.56559,-6.29758 -3.09601,-9.39011c-0.46357,-2.7028 -0.16673,-5.59672 -1.68961,-8.13715c-0.30479,-0.50843 -0.78123,-0.88995 -1.22909,-1.29194c-0.07558,0.70756 -0.12222,1.42172 -0.11648,2.1444c-0.16282,4.51441 -0.80317,8.76902 -1.39624,13.23294c-0.24473,1.84207 -0.02621,3.81484 -0.75778,5.52304c-0.74995,1.75113 -1.78953,3.72253 -3.53175,4.49294c-1.39401,0.61644 -2.9825,-0.63076 -4.47214,-0.9536c-6.12507,-1.32742 -12.78153,-3.30156 -14.77232,-9.8367c-1.1441,-3.75574 0.42176,-3.73069 0.9654,-6.97484c0.17486,-1.04349 -0.26554,-2.15935 0.0346,-3.17393c0.96145,-3.2501 3.55131,-5.77432 5.2772,-8.69131c1.49976,-2.53481 2.49442,-6.74847 4.09515,-9.14965c0.86886,-1.30334 2.19534,-2.23495 3.29301,-3.35243c0,0 1.59736,-1.59736 3.27366,-0.23683c0.41682,-0.31118 0.93395,-0.49541 1.49411,-0.49541c0.41989,0 0.81561,0.10352 1.16302,0.28642l3.95502,1.97751l-0.08125,0.1625c0.29191,0.12551 0.5764,0.26937 0.85185,0.43556c1.17686,0.71003 1.01436,2.55536 1.48307,3.84743c0.67558,1.86232 1.72223,5.57916 2.60453,7.10682c0.54317,0.94047 1.63889,1.47941 2.18109,2.42044c1.81468,3.14956 1.76922,6.5045 2.31039,9.86285c0.45309,2.81171 2.00219,5.90449 2.90399,8.60989l1,3c0,0 0.79057,2.37171 -1.58114,3.16228zM343.65593,142.26569c-1.44793,2.46534 -3.93422,4.41556 -4.7228,7.30869c-0.24775,0.90893 0.18861,1.89665 0.0346,2.82607c-0.33672,2.03206 -1.54358,2.97628 -1.0346,5.02516c1.10381,4.44332 7.48027,4.81553 11.22768,6.1633c0.58085,0.20891 0.92638,1.18521 1.52786,1.0464c0.51257,-0.11829 0.38465,-0.9877 0.46825,-1.50706c0.23447,-1.45662 0.31246,-2.9342 0.48257,-4.39974c0.49835,-4.29351 1.21055,-8.36531 1.35842,-12.70206c0.03828,-4.91214 2.74633,-9.47791 -1.26567,-13.25869l-1.73219,-1.73219c-3.3922,3.47142 -3.87901,7.03286 -6.34412,11.23011z"/></g></g></svg>