<svg version="1.1" xmlns="http://www.w3.org/2000/svg" xmlns:xlink="http://www.w3.org/1999/xlink" width="349.70204" height="163.33878" viewBox="0,0,349.70204,163.33878"><g transform="translate(-23.60835,-32.16122)"><g data-paper-data="{&quot;isPaintingLayer&quot;:true}" fill="#9966ff" fill-rule="nonzero" stroke="none" stroke-width="0.5" stroke-linecap="butt" stroke-linejoin="miter" stroke-miterlimit="10" stroke-dasharray="" stroke-dashoffset="0" style="mix-blend-mode: normal"><path d="M204.5,60.5c2.5,0 2.5,2.5 2.5,2.5v1c-0.01568,2.2553 0.66771,4.46109 0.98127,6.69454c0.05623,0.40053 -0.04386,5.55466 0.10605,6.13815c1.18062,4.59548 3.62375,9.81617 5.65847,14.06892c1.16171,2.42808 4.13702,3.5063 5.78232,5.6366c1.90788,2.47029 1.45135,5.6619 1.47189,8.46178c0,15.42234 1.30427,31.41477 -2.06091,46.54847c-1.58971,7.14917 -3.18716,14.17819 -10.34072,17.69732c-3.59691,1.76947 -4.91006,1.23812 -9.09838,1.25421c-5.51298,0.02119 -11.02767,0.03287 -16.53987,-0.05899c-5.74512,-2.56762 -12.16755,-4.28629 -17.69113,-7.26509c-2.62371,-1.41494 -4.76288,-3.58593 -7.13721,-5.38829c-2.72025,-2.06496 -5.81525,-3.65291 -8.33534,-5.9579c-1.17671,-1.07628 -1.97672,-2.50297 -2.95661,-3.76107c-2.88176,-3.69995 -5.8465,-8.01708 -7.83824,-12.57258c-0.17065,-0.00234 -0.34199,-0.00651 -0.51315,-0.0111c0.00767,-0.1607 0.01155,-0.32239 0.01155,-0.48499c0,-2.13207 -0.66723,-4.1083 -1.80428,-5.73127c-0.2305,-1.1638 -0.26092,-2.38687 -0.58413,-3.53017c-0.54567,-1.9302 -1.47901,-3.72187 -2.33755,-5.54186c0.88934,-1.46071 1.73341,-2.94299 2.36311,-4.52738c0.27784,-0.69908 0.24794,-1.46123 0.20566,-2.22947c0.22409,0.54285 0.44765,1.08617 0.6707,1.63c0.00563,-2.2306 0.01662,-4.30517 0.03817,-4.51712c0.04196,-0.41262 0.08905,-0.82586 0.14074,-1.23964c0.07874,-0.23243 0.14239,-0.46851 0.17845,-0.71129c0.08926,-0.60095 0.14807,-1.18929 0.18132,-1.76789c0.85065,-5.19936 2.25984,-10.45135 3.2061,-15.56471c2.14764,-11.56943 7.66629,-28.73758 21.16732,-31.70235c3.23153,-0.70963 6.60454,0.4841 9.87984,0.95185c3.68182,0.5258 7.2784,1.07538 11.04969,1.30566c4.56197,0.27856 8.53182,1.37203 12.99355,2.07474c2.03713,0.32084 4.38451,-0.09161 6.09523,1.06002c0.03274,0.02204 0.06492,0.04459 0.09656,0.06764c-0.02421,-0.3415 -0.03855,-0.68371 -0.0405,-1.02679v-1c0,0 0,-2.5 2.5,-2.5zM203.09238,73.44598c-1.88563,0.55769 -2.82844,-1.32794 -2.82844,-1.32794c-0.40262,-1.02573 -0.28267,-2.47866 -1.20786,-3.07719c-1.07242,-0.69377 -2.55474,-0.07366 -3.82755,-0.18033c-4.37792,-0.3669 -8.24546,-1.77126 -12.68008,-2.04554c-3.89046,-0.24062 -7.57354,-0.79348 -11.3539,-1.33371c-3.33864,-0.47711 -4.61827,-1.8394 -8.12016,-1.04815c-3.09979,0.7004 -6.70461,3.89412 -8.68575,6.20488c-5.12451,5.97713 -7.31636,13.96493 -8.71381,21.54106c-1.14766,6.20165 -3.01142,12.61872 -3.64882,18.8798c-0.32913,3.233 -0.01573,6.4994 -0.01864,9.74911c-0.00233,2.59759 -0.54414,5.24458 -0.03946,7.79268c0.64981,3.28084 2.11828,5.47816 3.6594,8.39583c1.97813,3.74502 4.37794,8.27263 7.57625,11.17379c2.40596,2.18243 5.36316,3.67104 7.95093,5.63448c2.19692,1.66688 4.14478,3.71873 6.57652,5.01933c5.1374,2.74769 11.05328,4.16223 16.30887,6.73491c5.15038,-0.1235 10.30827,-0.08087 15.46013,-0.05899c3.0428,0.01293 4.39739,0.53643 6.90162,-0.74579c5.57995,-2.85706 6.41324,-8.70425 7.65928,-14.30268c3.28276,-14.74935 1.93909,-30.41974 1.93909,-45.45153c0.00458,-0.51063 0.38439,-4.55564 -0.52811,-5.53822c-2.01805,-2.17306 -4.85635,-3.72873 -6.21768,-6.3634c-2.2748,-4.40257 -4.8754,-10.38671 -6.05544,-15.21584c-0.35144,-1.43824 -0.16652,-2.9429 -0.1064,-4.43656z"/><path d="M236,151c0,-2.5 2.5,-2.5 2.5,-2.5h1c5.30098,0 11.0942,0.56494 16.35395,-0.15502c1.55609,-0.213 3.00602,-0.95644 4.55929,-1.18908c1.071,-0.16041 2.77374,0.99283 3.24877,0.01963c0.49098,-1.00587 -1.47397,-1.73077 -1.91046,-2.76145c-0.66467,-1.5695 -0.90101,-3.28765 -1.34788,-4.93246c-1.70839,-6.2882 -5.06211,-11.35796 -6.12075,-17.8362c-1.03381,-6.62026 -4.25514,-12.72106 -5.25431,-19.26825c-0.6915,-4.53113 -0.02861,-9.77539 -0.02861,-14.37716c0,-4.9676 -0.5901,-10.47721 0.03228,-15.40046c0.14494,-1.14652 0.71786,-2.19701 1.06742,-3.29851c0.52825,-1.66458 0.40757,-3.69278 1.56599,-4.99965c1.05552,-1.19078 2.88307,-1.41252 4.43385,-1.76909c2.6816,-0.61659 6.63085,-0.09113 9.40046,-0.03228c1.98613,0.0422 4.06008,-0.40073 5.95671,0.1903c1.2061,0.37585 1.87404,1.69462 2.81106,2.54193c0,0 1.76777,1.76777 0,3.53553c-1.76777,1.76777 -3.53553,0 -3.53553,0c-2.18947,-2.68507 -7.80636,-1.24802 -11.23223,-1.26777c-1.39012,-0.00801 -3.43402,-0.98339 -4.16569,0.19862c-0.53187,0.85923 -0.19848,2.01765 -0.43401,3.00035c-0.22204,0.92641 -0.81599,1.75601 -0.93258,2.70149c-0.57469,4.66051 0.03228,9.89949 0.03228,14.59954c0,4.35131 -0.68253,9.338 -0.02861,13.62284c0.99401,6.51336 4.20139,12.64191 5.25059,19.24425c0.73665,4.88618 2.94684,7.72951 4.61338,12.24066c0.04963,0.13436 2.58597,9.42007 2.67544,9.77346c0.55594,2.19584 2.64785,4.60876 1.58356,6.60828c-1.08195,2.03271 -4.24934,1.78846 -6.43642,2.50901c-7.01277,2.31042 -14.86298,1.50151 -22.15793,1.50151h-1c0,0 -2.5,0 -2.5,-2.5z"/><path d=""/><path d="M362,139c0,2.5 -2.5,2.5 -2.5,2.5l-2.79057,-0.12829c-1.87339,-0.62446 -3.66224,-1.57808 -5.60989,-1.90399c-5.83087,-0.9757 -12.62611,0.22479 -18.29409,1.01355c-1.65481,0.23028 -3.2119,0.91167 -4.80399,1.43826c-0.0004,0.02675 -0.0009,0.05358 -0.00147,0.08048c-0.07513,3.49815 0.51463,5.46183 -3.54329,7.3097c-3.34345,1.52252 -4.47766,-0.34434 -7.35716,-0.84198c-2.86591,-0.49529 -6.01179,0.417 -8.905,0.01355c-3.65179,-0.50923 -6.86204,-0.84752 -10.41675,-0.94915c-0.30222,0.02196 -0.60459,0.01833 -0.90717,-0.02063c-0.45002,-0.00762 -0.90638,-0.01149 -1.37062,-0.01149h-3c-1.38071,0 -2.5,-1.11929 -2.5,-2.5c0,-1.38071 1.11929,-2.5 2.5,-2.5h4v0.00535c0.36959,0.00399 0.73551,0.0102 1.0984,0.01863c5.5524,-1.92209 11.71633,-2.04548 17.50115,-2.9917c2.42615,-0.39684 4.66248,-1.65779 7.095,-2.01355c0.09267,-0.01355 0.1854,-0.02728 0.2782,-0.04117c-0.52088,-1.34896 -1.20457,-2.65744 -1.44046,-4.0771c-0.32782,-1.97295 0.34059,-4.02921 0,-6c-0.36802,-2.12949 -1.01177,-4.2395 -1.03228,-6.40046c0,-2.68095 0.4882,-5.96145 0.03228,-8.59954c-0.17951,-1.0387 -0.83216,-1.95936 -1,-3c-0.31845,-1.97448 0.33008,-4.02743 0,-6c-0.34793,-2.07928 -1.65445,-3.92033 -2,-6c-1.11724,-6.72403 -0.03228,-14.57444 -0.03228,-21.40046c0,-3.13867 -0.01446,-6.27792 -0.00253,-9.4166c-1.2524,0.89604 -2.62434,1.59866 -4.09701,1.88432c-2.64266,0.5126 -5.59117,0.12338 -8.08613,1.65891c-0.80293,0.49416 -1.18709,1.52243 -2,2c-1.07411,0.63102 -2.34917,0.83005 -3.52376,1.24508c0,0 -2.37171,0.79057 -3.16228,-1.58114c-0.79057,-2.37171 1.58114,-3.16228 1.58114,-3.16228c3.21563,-0.98033 4.67291,-2.87342 8,-4c3.30244,-1.11823 6.99447,-0.39426 9.55942,-2.84054l0.84121,-2.52363c0.31417,-1.02156 1.26534,-1.76412 2.38994,-1.76412c1.1246,0 2.07576,0.74256 2.38994,1.76412l0.98177,2.94531l-0.06677,0.02226c0.05724,0.12101 0.11161,0.24358 0.16278,0.36786c0.43159,1.04816 0.02734,2.26693 0.03228,3.40046c0,0 0,6.41667 0,7c0,5 0,10 0,15c0,2.69121 -0.47583,5.94884 -0.03228,8.59954c0.34793,2.07928 1.65445,3.92033 2,6c0.32782,1.97295 -0.34059,4.02921 0,6c0.17951,1.0387 0.83216,1.95936 1,3c0.47242,2.92917 0.03228,6.42653 0.03228,9.40046c-0.02352,1.89404 0.66612,3.72953 0.96772,5.59954c0.31845,1.97448 -0.33008,4.02743 0,6c0.25316,1.5129 0.69241,2.80538 1.09818,4.09076c8.11733,-1.51841 16.59441,-3.52717 24.83455,-2.15802c0.26376,0.04383 5.92847,1.94213 6.39011,2.09601l1.20943,-0.12829c0,0 2.5,0 2.5,2.5zM323.23089,142.89843c-1.63865,0.25377 -3.28814,0.49337 -4.93297,0.73573c1.07491,0.33909 3.09811,1.30114 4.24537,1.05614c0.45069,-0.09624 0.63499,-0.86536 0.68759,-1.79187z"/><path d="M43,172c0,-2.5 2.5,-2.5 2.5,-2.5l1.5,0.29151c0,-5.5182 0,-11.50343 0,-16.79151c0,-2.5332 0.35227,-5.08663 0.03228,-7.59954c-0.13315,-1.04565 -0.86904,-1.95407 -1,-3c-0.211,-1.68518 0.17455,-3.40711 -0.01355,-5.095c-0.15222,-1.36591 -0.81018,-2.6388 -1,-4c-0.4104,-2.94301 -0.01873,-6.32106 -0.01872,-9.29762c-0.00939,-4.12924 -1.41523,-7.67486 -1.98128,-11.70238c-1.09666,-7.80283 -0.01873,-16.42242 -0.01873,-24.30546c0,-2.68095 0.4882,-5.96145 0.03228,-8.59954c-0.17951,-1.0387 -0.85438,-1.95602 -1,-3c-0.59335,-4.25374 -0.03228,-9.09095 -0.03228,-13.40046c0,0 0,-2.5 2.5,-2.5c1.77923,0 2.2922,1.26627 2.44009,1.99641c2.32345,-0.0366 4.66972,-0.33357 6.96037,0.03587c1.04064,0.16784 1.95706,0.84707 3,1c5.536,0.81177 11.431,-0.68434 17,0c2.99953,0.36859 6.01142,1.5019 9,2c3.36316,0.56053 6.47505,0.59098 9.69792,2.22193c2.07554,1.05034 3.67016,2.85928 5.48659,4.31243c3.57821,2.86257 5.19925,3.64998 6.78674,8.14279c1.33466,4.00397 3.02814,8.05429 4.04454,12.1489c0.37606,1.51498 0.33044,3.13822 0.87888,4.59965c0.41505,1.106 1.43461,1.89519 1.95623,2.9551c2.64387,5.3722 4.28053,11.88754 5.21636,17.68646c1.77711,11.012 -1.67533,21.92899 -5.09601,32.19103c-0.41503,1.17459 -0.60184,2.45692 -1.24508,3.52376c-0.97364,1.6148 -3.05284,2.36953 -4,4c-0.52948,0.91146 -0.44721,2.10249 -1,3c-0.19368,0.31446 -3.89905,3.99363 -4.35886,4.45344c-2.69534,2.69534 -4.35004,4.94565 -8.36731,5.69995c-4.20285,0.78915 -8.79834,-0.70308 -13,0c-6.15274,1.02955 -11.83008,4.97483 -18,6c-0.25142,0.04177 -5.92714,0.03228 -6.40046,0.03228c-1.01454,0 -6.36633,0.04804 -6.95671,-0.1903c-1.17144,-0.47293 -1.87404,-1.69462 -2.81106,-2.54193l-0.23223,0.73223c0,0 -2.5,0 -2.5,-2.5zM55.5,171.5c1.86655,0 3.75859,0.34033 5.59954,0.03228c6.15274,-1.02955 11.83008,-4.97483 18,-6c4.22901,-0.70267 8.7635,0.56656 13,0c3.14957,-0.4212 5.49765,-4.22047 7.63269,-6.30005c0.53846,-0.52448 1.26357,-0.89659 1.64114,-1.54656c0.52948,-0.91146 0.44721,-2.10249 1,-3c1.85985,-3.01965 3.69446,-2.99777 4.75492,-6.47624c3.13843,-9.41528 6.65242,-19.69174 4.90399,-29.80897c-0.9213,-5.33104 -2.31968,-11.37046 -4.78364,-16.31354c-0.57264,-1.1488 -1.63216,-2.03711 -2.08261,-3.23909c-0.622,-1.65976 -0.64769,-3.48777 -1.08228,-5.20615c-1.01026,-3.99457 -2.65198,-7.94065 -3.95546,-11.8511c-1.12836,-3.70119 -2.17161,-3.42389 -5.21326,-5.85721c-1.51704,-1.21364 -2.77027,-2.82978 -4.51341,-3.68757c-2.8388,-1.39696 -5.35605,-1.28706 -8.30208,-1.77807c-2.99435,-0.49906 -5.99551,-1.61741 -9,-2c-5.56847,-0.70908 -11.42816,0.77721 -17,0c-1.04398,-0.14562 -1.9613,-0.82049 -3,-1c-1.9815,-0.34244 -4.01663,-0.03187 -6.03189,0.02402c0.22475,7.87893 0.93235,15.52017 0.93235,23.50826c0,6.66254 -0.97933,14.0953 -0.01873,20.69454c0.61236,4.20686 1.97685,7.97196 2.01872,12.29762c0.00001,2.76544 -0.41945,5.96843 -0.01872,8.70238c0.19932,1.35984 0.84868,2.63399 1,4c0.18002,1.62507 -0.21601,3.28258 -0.01355,4.905c0.13053,1.04598 0.87144,1.95378 1,3c1.07361,8.73681 0.0569,18.25141 0.03272,27.08387c0.98392,0.04383 2.09675,-0.18342 3.49956,-0.18342z"/><path d="M39,190.26251c7.08042,-0.42306 14.19767,-1.29616 21.26158,-1.6588c7.34463,-0.37705 14.76219,0.37981 22.09212,-0.09942c11.23975,-0.73485 22.54972,-2.84555 33.61844,-4.85839c13.50127,-2.43489 27.59027,-1.02332 41.16666,-3.11967c6.0416,-0.93289 11.93657,-3.09871 17.97472,-3.99618c12.8948,-1.91658 26.39268,-1.03005 39.38648,-1.03005c6.41954,0 12.57429,-0.85282 18.94534,-0.9994c5.56347,-0.12801 11.30291,0.47162 16.84846,0.00792c6.11793,-0.51156 12.18267,-1.48674 18.38342,-1.00223c11.29256,0.88238 22.17695,2.88635 33.42232,3.02599c4.76318,-1.58773 9.26912,-0.40212 14.15411,-1.02011c4.04975,-0.51233 7.9287,-1.43401 11.94089,-1.99344c3.98085,-0.55506 7.97047,-0.18898 11.905,-0.98645c3.16539,-0.64157 6.13984,-2.01031 9.23934,-2.91831c4.72906,-1.38539 9.91413,-3.31415 14.76066,-4.08169c0.03023,-0.00479 2.88208,0.80341 3.09076,-0.48899c0.3852,-2.38569 0.18803,-4.83797 0.52811,-7.23052c0.47598,-9.92417 0.28159,-19.87848 0.28159,-29.81277c0,-5.72175 0.73202,-12.03471 0.01873,-17.69454c-0.92945,-7.37497 -2.93532,-14.63801 -4.00017,-22.00138c-0.64599,-4.46697 -0.40551,-9.2269 -1.89027,-13.5135c-0.75374,-2.26549 -1.81195,-5.17139 -2.10956,-7.48511c-0.16606,-1.29104 0.19441,-2.61595 0.01355,-3.905c-0.49542,-3.53099 -1.95043,-7.24825 -2.93389,-10.70601c-0.69949,-2.45934 -0.65976,-5.16132 -1.77389,-7.4627c-1.90205,-3.92895 -8.63424,-5.03086 -12.33357,-5.78413c-12.91516,-2.62983 -26.26739,-1.94652 -39.36628,-1.94723c-34.08899,-0.00186 -68.85778,-2.01038 -102.57759,3.60959c-15.24144,2.54024 -30.86495,4.93244 -46.19966,6.35804c-2.91802,0.27128 -5.84543,-0.50925 -8.73495,-0.99824c-3.01358,-0.50999 -6.54424,0.03022 -9.61245,0.03022c-7.13327,0 -14.26748,0.03543 -21.40046,-0.03228c-1.92354,-0.64118 -4.00159,-0.65724 -6,-1c-3.72901,-0.63959 -6.9092,-2.48268 -10.75659,-2.96125c-2.59433,-0.3227 -5.22864,-0.00647 -7.84295,-0.00647c-4.00131,0 -8.71172,-0.45069 -12.69454,-0.01873c-2.38106,0.25824 -4.54162,1.59848 -6.905,1.98645c-2.47185,0.40578 -6.3598,-0.90598 -8.676,-0.07499c-1.13125,0.40586 -1.85314,1.64061 -3,2c-3.08303,0.96614 -7.24067,-0.31679 -10.419,0.08854c-2.43896,0.31104 -4.84678,1.0048 -7.30546,1.01873c-2.99725,0 -6.00344,0.06093 -9,0c-0.69134,-0.01406 -3.21994,-0.54657 -3.79581,0.67964c-0.26132,0.55644 0.25816,1.20676 0.29581,1.82036c0.1822,2.96894 0,6.02485 0,9c0,6.31099 -0.91995,13.46769 -0.01873,19.69454c0.6895,4.76401 3.29079,9.21433 3.98645,13.905c0.33087,2.23095 0.19663,4.56959 0.93258,6.70149c1.87823,7.63393 1.0997,15.84562 1.0997,23.69897c0,2.68095 -0.4882,5.96145 -0.03228,8.59954c1.19531,6.91647 2.03483,14.0757 3.01355,21.095c0.27182,1.94948 -0.34875,3.96541 -0.01355,5.905c0.57472,3.32554 1.03228,5.93016 1.03228,9.40046c0,7 0,14 0,21zM34,190.47409c0,-7 0,-15.47409 0,-22.47409c0,-1.86655 0.35015,-3.76026 0.03228,-5.59954c-0.17951,-1.0387 -0.83216,-1.95936 -1,-3c-0.32349,-2.00575 0.28115,-4.08481 -0.01355,-6.095c-0.59356,-4.04877 -1.50817,-7.96726 -2.00656,-12.05911c-0.2356,-1.93435 0.35196,-3.92571 0.02011,-5.84589c-0.17951,-1.0387 -0.83216,-1.95936 -1,-3c-1.6774,-10.40041 1.6923,-21.40087 -0.93258,-31.70149c-0.75701,-2.33928 -0.73426,-4.86247 -1.06742,-7.29851c-0.64537,-4.71886 -3.33356,-9.28204 -4.01355,-14.095c-0.91231,-6.45735 -0.01873,-13.76889 -0.01873,-20.30546c0,-2.98874 -0.12302,-6.01408 0,-9c0.0575,-1.39552 -0.46205,-3.00644 0.29581,-4.17964c3.33694,-5.16572 12.04491,-3.32036 17.20419,-3.32036c2.2553,0.01568 4.45596,-0.70669 6.69454,-0.98127c2.4635,-0.30217 7.19001,0.94636 9.581,0.08854c1.13125,-0.40586 1.85314,-1.64061 3,-2c2.87467,-0.90085 6.38492,0.42417 9.324,-0.07499c2.42369,-0.41163 4.65225,-1.73658 7.095,-2.01355c4.16103,-0.47179 9.1095,-0.01874 13.30546,-0.01873c2.78377,0 5.58915,-0.31433 8.35124,0.03237c3.95283,0.49617 7.25443,2.38841 11.04922,2.99991c2.00176,0.32257 4.07646,0.35882 6,1c9.19662,-0.1142 18.40225,-0.06991 27.59954,-0.03228c3.88594,0.0159 6.89119,1.42571 10.84679,0.99314c15.24659,-1.66731 30.69964,-3.78537 45.87827,-6.31514c33.99965,-5.66661 69.02846,-3.67949 103.39985,-3.67762c13.4481,0.00074 27.1265,-0.65682 40.38416,2.05199c5.38093,1.09943 12.89012,2.77996 15.66643,8.21587c0.32136,0.62921 1.93949,7.53041 2.22611,8.5373c1.03839,3.64779 2.52403,7.55996 3.06611,11.29399c0.19611,1.35085 -0.15054,2.73989 0.01355,4.095c0.207,1.70944 1.32061,4.80882 1.89044,6.51489c1.52113,4.70508 1.41782,9.63419 2.10973,14.4865c1.04919,7.35786 3.08474,14.6251 3.99983,21.99862c0.72942,5.87744 0.01873,12.36793 0.01873,18.30546c0,10.09377 0.18816,20.20458 -0.3042,30.28773c-0.23403,1.62983 -0.53466,3.25148 -0.70209,4.88949c-0.12826,1.25478 0.37636,2.64948 -0.18401,3.77949c-0.70223,1.41606 -1.94388,2.63693 -3.35299,3.35299c-1.05784,0.53755 -2.38729,-0.04571 -3.55625,0.15802c-3.50504,0.61086 -7.28556,2.01112 -10.74572,2.94502c-4.40147,1.18796 -8.81286,3.14196 -13.25428,4.05498c-3.96842,0.81579 -8.08577,0.42579 -12.095,1.01355c-4.04877,0.59356 -7.96726,1.50817 -12.05911,2.00656c-4.79023,0.58345 -9.20426,-0.56732 -13.84589,0.97989c-11.66166,0.11071 -22.90587,-2.04107 -34.57768,-2.97401c-5.94596,-0.47527 -11.75252,0.51722 -17.61658,0.99777c-5.64929,0.46295 -11.48513,-0.11138 -17.15154,0.00792c-6.39537,0.13465 -12.60488,1.0006 -19.05466,1.0006c-12.72654,0 -25.9847,-0.91157 -38.61352,0.96995c-6.05252,0.90174 -11.96591,3.07219 -18.02528,4.00382c-13.51492,2.07794 -27.57012,0.62929 -40.99464,3.09148c-11.2679,2.04836 -22.77798,4.18725 -34.22026,4.93047c-7.34424,0.47703 -14.77092,-0.27629 -22.12838,0.10142c-9.65849,0.49584 -19.38443,1.88336 -29.01793,1.90287c0,0 -2.5,0 -2.5,-2.5c0,-2.5 2.5,-2.5 2.5,-2.5c0.83242,0.00187 1.66581,-0.0073 2.5,-0.02591z"/></g></g></svg>