<svg version="1.1" xmlns="http://www.w3.org/2000/svg" xmlns:xlink="http://www.w3.org/1999/xlink" width="34.98447" height="73.04519" viewBox="0,0,34.98447,73.04519"><g transform="translate(-214.00852,-25.48598)"><g data-paper-data="{&quot;isPaintingLayer&quot;:true}" fill="#9966ff" fill-rule="nonzero" stroke="none" stroke-width="0.5" stroke-linecap="butt" stroke-linejoin="miter" stroke-miterlimit="10" stroke-dasharray="" stroke-dashoffset="0" style="mix-blend-mode: normal"><path d="M232.49999,79.5c-2.5,-0.00001 -2.49999,-2.50001 -2.49999,-2.50001l0.00001,-4.20896c0.00016,-15.31645 0.29368,-30.13178 3.04031,-45.23825c0,0 0.44721,-2.45967 2.90689,-2.01246c2.45967,0.44721 2.01246,2.90689 2.01246,2.90689c-2.6926,14.80929 -2.9595,29.32764 -2.95966,44.34386l-0.00001,4.20894c0,0 -0.00001,2.5 -2.50001,2.49999z"/><path d="M247.12002,54.5781c2.4219,0.62002 1.80188,3.04191 1.80188,3.04191l-0.05286,0.20646c-2.72956,10.62852 -2.51372,21.47389 -7.05382,31.61981c-0.74291,1.66021 -1.13176,3.53803 -2.25444,4.96905c-1.30191,1.65947 -2.78184,3.61758 -4.84087,4.07497c-1.47824,0.32837 -2.68062,-1.40944 -4.02548,-2.10542c-1.58977,-0.82272 -3.37332,-1.34152 -4.77833,-2.45066c-1.20573,-0.95183 -1.93122,-2.38954 -2.88168,-3.59635c-4.51462,-5.73228 -7.52597,-11.69983 -8.98587,-18.84759c0,0 -0.49029,-2.45145 1.96116,-2.94174c2.45145,-0.49029 2.94174,1.96116 2.94174,1.96116c0.59094,3.02791 1.61753,5.99644 2.9935,8.75762c1.40472,2.81887 3.11128,5.50112 5.03283,7.99649c0.71287,0.92575 1.17992,2.08967 2.10612,2.80195c1.22353,0.94093 2.87937,1.16876 4.16594,2.02147c0.488,0.32343 0.45964,1.55344 1.03025,1.42245c0.73004,-0.16758 0.83133,-1.25154 1.15913,-1.92503c0.66283,-1.36186 1.19587,-2.7832 1.80694,-4.16906c4.3483,-9.86165 4.13878,-20.48471 6.77909,-30.82915l0.05286,-0.20646c0,0 0.62002,-2.4219 3.04191,-1.80188z"/></g></g></svg>