<svg version="1.1" xmlns="http://www.w3.org/2000/svg" xmlns:xlink="http://www.w3.org/1999/xlink" width="682.75846" height="524.40565" viewBox="0,0,682.75846,524.40565"><g transform="translate(67.57516,70.48328)"><g data-paper-data="{&quot;isPaintingLayer&quot;:true}" fill="#668cff" fill-rule="nonzero" stroke="none" stroke-width="0.5" stroke-linecap="butt" stroke-linejoin="miter" stroke-miterlimit="10" stroke-dasharray="" stroke-dashoffset="0" style="mix-blend-mode: normal"><path d="M131.95313,413.09375c-0.58558,0.51152 -1.52657,0.32823 -2.25179,0.60859c-2.93284,1.1338 -5.67202,2.80772 -8.70748,3.62811c-2.96846,0.80229 -6.04889,-1.12336 -9.0416,-1.82985c-2.99271,-0.70648 -6.6091,-0.36174 -8.90538,-2.40686c-1.40041,-1.24724 -2.57078,-2.71889 -3.73631,-4.197c-2.88417,0.92558 -5.83971,1.86564 -8.90487,2.82033c-7.17684,2.23534 -15.94613,1.36106 -22.90569,1.28292c-0.3861,-0.00434 -5.61089,-0.59578 -5.61991,-0.57047c-0.29714,0.83341 0.53492,5.97659 0.61991,7.57047c0.23205,4.352 -0.65535,11.19027 -3.125,14.5c-1.83209,2.4553 -4.58148,7.60409 -7.42187,8.59375c-2.61694,0.91181 -11.27674,4.52589 -14.45312,3.90625c-3.81564,-0.74434 -11.84554,-1.28961 -14.45312,-3.90625c-1.94936,-1.95613 -6.30065,-5.78134 -7.42187,-8.59375c-1.02998,-2.58352 -2.25268,-5.80393 -2.73437,-8.59375c-0.10301,-0.59661 0.0507,-2.55798 -0.47485,-2.94602c-3.68944,-2.72406 -5.52699,-7.43062 -7.30895,-11.65638c-2.58228,-6.12364 2.71011,-12.72945 0.53127,-18.5549c-0.19021,-0.50855 -0.49884,0.96533 -0.77741,1.43138c-0.84654,1.41623 -1.34994,3.07916 -2.4733,4.28762c-1.74661,1.87892 -5.85926,6.33137 -8.56262,7.45777c-11.79653,4.91522 -26.78422,0.23342 -33.68544,-10.52254c-3.90214,-6.08171 -2.33696,-15.03901 -1.56736,-21.6836c1.20849,-10.43389 -0.20773,-11.13707 2.67448,-21.78298c3.64406,-13.45994 11.88819,-25.306 17.69926,-37.76071c0.36831,-0.78939 -1.51527,-0.86895 -2.21075,-1.39345c-1.29033,-0.97311 -2.66952,-1.82253 -3.99573,-2.74614c-5.34706,-3.72383 -11.6072,-5.3708 -16.36351,-9.93553c-14.02737,-13.46236 -23.72887,-33.42767 -23.8757,-53.10079c-0.19028,-25.49419 -0.49454,-48.80009 5.74644,-74.06339c4.0846,-16.53437 7.28675,-33.32385 12.44296,-49.556c3.74125,-11.77776 8.00264,-23.39935 11.29898,-35.3093c0.20206,-0.73006 -0.83221,-1.31441 -0.95572,-2.06178c-0.67009,-4.05464 -0.56687,-8.86605 0.42925,-12.87755c0.48534,-1.95453 1.96969,-8.8421 3.5034,-11.39932c3.15911,-5.2673 7.34249,-7.24156 8.72599,-13.2327c0.11279,-0.48843 -0.31823,-0.95153 -0.44486,-1.43656c-1.70463,-6.52935 -3.05768,-12.47282 -4.26095,-19.16049c-1.17179,-6.51267 -0.30333,-14.74744 -0.48548,-20.5663c-0.02687,-0.85833 -1.21977,-1.27033 -1.5347,-2.06925c-0.94501,-2.39733 -1.66708,-4.87979 -2.3555,-7.363c-1.58177,-5.70567 0.68308,-13.1211 4.08894,-17.77185c4.40389,-6.01359 11.58098,-10.7166 18.91009,-11.63274c3.86231,-0.48279 8.86121,1.98748 12.31736,2.8431c1.34916,0.334 2.83256,-0.71026 4.15917,-0.29567c5.23931,1.63742 14.10018,9.79776 19.84946,6.95281c2.08127,-1.02989 3.82678,-3.52674 5.90151,-4.83709c6.98985,-4.41464 16.14101,-9.04616 24.66367,-9.16291c5.12734,-0.07024 9.72517,1.95945 14.45313,3.90625c0.91697,0.37758 1.04792,2.53941 1.98526,2.2157c2.49833,-0.8628 5.65733,-4.09619 8.38127,-5.48263c19.39762,-9.87305 24.1352,-13.88327 44.18034,-13.63932c1.16973,0.01424 2.35836,-0.61173 3.49386,-0.33046c6.83097,1.69211 13.03152,5.52426 17.59989,10.87733c2.45681,2.87881 2.64891,8.66339 5.17035,11.64425c1.47575,1.74464 3.52162,1.09893 5.37611,1.97136c1.13152,0.53232 1.78346,2.25623 3.033,2.20777c4.8995,-0.19001 9.60446,-1.98243 14.42389,-2.88478c12.32506,-2.30763 25.27708,-1.84255 37.70894,-1.47249c10.33413,0.30762 20.66893,0.60255 31,1c5.69787,0.2192 10.44692,1.86446 16.29422,1.15535c9.33778,-1.13241 80.9795,-9.74918 92.42703,-11.79323c19.33177,-3.45184 38.40552,-8.23493 57.50769,-12.78902c8.08266,-1.92696 16.17133,-3.88346 24.1009,-6.36628c5.89632,-1.84619 11.35696,-5.02212 17.35129,-6.5198c5.00815,-1.25128 10.50203,-0.37762 15.52599,-0.70002c1.51547,-0.09725 2.83837,-3.18814 4.48684,-3.875c2.96809,-1.2367 5.88505,-2.68233 9.00614,-3.45546c2.36164,-0.58501 12.15919,0.6483 14.39946,1.36112c14.73174,4.68737 18.59363,26.71432 19.73978,41.47166c1.39538,0.03962 2.78545,0.09795 4.1186,0.47619c3.54012,1.00441 10.18034,8.32895 12.10364,10.89927c0.68486,0.91526 1.97975,1.3992 2.37847,2.47054c0.87505,2.35122 -1.04596,8.30241 1.29995,7.41322c30.38839,-11.51834 31.48443,-15.9021 56.37781,-17.67519c5.3865,-0.38367 12.24132,0.69864 16.52926,3.81989c2.50179,1.82109 4.73282,4.59235 6.16192,7.13485c14.69139,26.1374 -13.69344,50.13105 -32.91075,64.1773c-0.62366,0.45585 -22.37494,16.71241 -33.56608,24.39982c-7.98562,5.48547 -16.05609,10.84967 -24.04135,16.33548c0.50302,6.75002 0.32318,14.62159 0.736,19.5143c1.49695,17.74155 7.27406,34.9892 -5.87499,49.67016c-1.58107,1.76528 -4.26446,2.08077 -6.30109,3.29244l0.18844,3.20353c4.52449,-0.91567 9.87341,-3.73867 14.64863,-2.9646c9.27061,1.50277 19.76829,10.60863 21.75971,20.50914c0.54348,2.70196 0.8466,5.46334 0.9022,8.21886c0.0164,0.81272 -0.97232,1.66759 -0.56651,2.37194c4.03796,7.00851 3.75259,24.48085 0.97144,32.59077c-3.55678,10.37167 -7.28217,20.68496 -11,31c-0.77336,2.14566 -2.43113,4.27598 -3.05477,6.39855c-1.08778,3.70225 -1.49086,7.76265 -2.58907,11.52025c-0.75954,2.59879 -2.31023,5.06366 -2.36497,7.77061c-0.01602,0.79217 1.47091,0.59158 2.18912,0.92617c1.56677,0.72989 3.2579,1.61155 4.67608,2.59998c5.69046,3.96608 11.37058,7.94775 17,12c15.04135,10.82728 28.0898,30.49249 17.83633,48.6415c-1.42778,2.52721 -8.98346,9.27339 -10.2698,10.42796c-10.64119,9.55114 -30.74838,13.19836 -42.66182,15.14123c-15.47719,2.52405 -32.66197,-0.02999 -46.45412,7.43266c-8.33833,4.5117 -9.19304,16.58736 -13.52467,25.02064c-4.35718,8.48301 -7.66192,21.5933 -17.57002,25.57833c-5.28519,2.1257 -6.90817,4.03031 -11.77299,3.18189c-2.55613,-0.44579 -12.27698,-2.07111 -14.45312,-3.90625c-2.12159,-1.78913 -3.5466,-4.27388 -5.44192,-6.30117c-0.63201,-0.67601 -1.75054,-0.94235 -2.12237,-1.7898c-5.65894,-12.8972 -3.78699,-27.7779 -0.57006,-41.02937c0.99851,-4.11316 -9.2028,-2.77817 -12.69212,-0.38239c-4.56951,3.13744 -6.87632,12.43902 -10.9866,17.7575c-4.73388,6.12538 -22.69333,36.44527 -38.14098,43.94834c-6.53524,3.17423 -13.53395,5.28893 -20.30806,7.91506c-5.48025,2.12454 -11.59279,2.24307 -17.19046,0.50517c-2.93873,-0.91239 -12.13397,-3.13556 -15.54743,-5.62333c-15.01911,-10.94613 -11.82227,-35.72284 -10.29618,-50.9837c0.53197,-5.3197 5.3139,-18.87816 4.9585,-19.11005c-7.71646,-5.03486 -18.42925,-0.17771 -27.6413,0c-15.24639,0.29411 -31.22777,0.97039 -46.1041,4.64848c-1.47394,0.36442 -2.31551,1.9815 -3.6014,2.78884c-4.15499,2.60869 -8.56252,4.79425 -12.77503,7.30898c-0.68443,0.40858 -1.11334,1.26971 -1.88424,1.47245c-5.63603,1.4822 -13.4012,1.08162 -18.85479,-0.97265c-1.11985,-0.42183 -1.5695,-2.25072 -2.76555,-2.28907c-7.50893,-0.24074 -14.77562,2.75374 -22.09652,4.44082c-1.57202,0.36227 -3.11095,0.72757 -4.62088,1.09594c-3.40049,6.4214 -7.24948,13.09012 -12.41225,17.59996z"/></g></g></svg>